ISO-10303-21;
HEADER;
FILE_DESCRIPTION(('shape.step'),'2;1');
FILE_NAME('shape.step','2026-10-04',('tscircuit'),('tscircuit'),'generator','','');
FILE_SCHEMA(('AUTOMOTIVE_DESIGN { 1 0 10303 214 1 1 1 1 }'));
ENDSEC;
DATA;
#1 = APPLICATION_CONTEXT('core data for automotive mechanical design processes');
#2 = APPLICATION_PROTOCOL_DEFINITION('international standard','automotive_design',2000,#1);
#3 = PRODUCT_CONTEXT('',#1,'mechanical');
#4 = PRODUCT('shape','shape','',(#3));
#5 = PRODUCT_DEFINITION_CONTEXT('part definition',#1,'design');
#6 = PRODUCT_DEFINITION_FORMATION('','',#4);
#7 = PRODUCT_DEFINITION('design','',#6,#5);
#8 = PRODUCT_DEFINITION_SHAPE('','',#7);
#9 = (
LENGTH_UNIT()
NAMED_UNIT(*)
SI_UNIT(.MILLI.,.METRE.)
);
#10 = (
NAMED_UNIT(*)
PLANE_ANGLE_UNIT()
SI_UNIT($,.RADIAN.)
);
#11 = (
NAMED_UNIT(*)
SI_UNIT($,.STERADIAN.)
SOLID_ANGLE_UNIT()
);
#12 = UNCERTAINTY_MEASURE_WITH_UNIT(LENGTH_MEASURE(1.E-07),#9,'distance_accuracy_value','confusion accuracy');
#13 = (
GEOMETRIC_REPRESENTATION_CONTEXT(3)
GLOBAL_UNCERTAINTY_ASSIGNED_CONTEXT((#12))
GLOBAL_UNIT_ASSIGNED_CONTEXT((#9,#10,#11))
REPRESENTATION_CONTEXT('Context #1','3D
Context with
TORTURE://UNITS')
);
#14 = CARTESIAN_POINT('',(0.,0.,0.));
#15 = DIRECTION('',(0.,0.,1.));
#16 = DIRECTION('',(1.,0.,0.));
#17 = AXIS2_PLACEMENT_3D('',#14,#15,#16);
#18 = CARTESIAN_POINT('',(-5.08,-1.27,0.));
#19 = VERTEX_POINT('',#18);
#20 = CARTESIAN_POINT('',(-5.08,-1.27,2.));
#21 = VERTEX_POINT('',#20);
#22 = CARTESIAN_POINT('',(-5.08,1.27,2.));
#23 = VERTEX_POINT('',#22);
#24 = CARTESIAN_POINT('',(-5.08,1.27,0.));
#25 = VERTEX_POINT('',#24);
#26 = DIRECTION('',(0.,0.,1.));
#27 = VECTOR('',#26,1.);
#28 = LINE('',#18,#27);
#29 = EDGE_CURVE('',#19,#21,#28,.T.);
#30 = ORIENTED_EDGE('',*,*,#29,.T.);
#31 = DIRECTION('',(0.,1.,0.));
#32 = VECTOR('',#31,1.);
#33 = LINE('',#20,#32);
#34 = EDGE_CURVE('',#21,#23,#33,.T.);
#35 = ORIENTED_EDGE('',*,*,#34,.T.);
#36 = DIRECTION('',(0.,0.,1.));
#37 = VECTOR('',#36,1.);
#38 = LINE('',#24,#37);
#39 = EDGE_CURVE('',#25,#23,#38,.T.);
#40 = ORIENTED_EDGE('',*,*,#39,.F.);
#41 = DIRECTION('',(0.,1.,0.));
#42 = VECTOR('',#41,1.);
#43 = LINE('',#18,#42);
#44 = EDGE_CURVE('',#19,#25,#43,.T.);
#45 = ORIENTED_EDGE('',*,*,#44,.F.);
#46 = CARTESIAN_POINT('',(-5.08,-1.27,0.));
#47 = DIRECTION('',(-1.,0.,0.));
#48 = DIRECTION('',(0.,0.,1.));
#49 = AXIS2_PLACEMENT_3D('',#46,#47,#48);
#50 = PLANE('',#49);
#51 = EDGE_LOOP('',(#30,#35,#40,#45));
#52 = FACE_OUTER_BOUND('',#51,.T.);
#53 = ADVANCED_FACE('',(#52),#50,.T.);
#54 = CARTESIAN_POINT('',(-2.54,-1.27,0.));
#55 = VERTEX_POINT('',#54);
#56 = CARTESIAN_POINT('',(-2.54,1.27,0.));
#57 = VERTEX_POINT('',#56);
#58 = CARTESIAN_POINT('',(-2.54,1.27,2.));
#59 = VERTEX_POINT('',#58);
#60 = CARTESIAN_POINT('',(-2.54,-1.27,2.));
#61 = VERTEX_POINT('',#60);
#62 = DIRECTION('',(0.,1.,0.));
#63 = VECTOR('',#62,1.);
#64 = LINE('',#54,#63);
#65 = EDGE_CURVE('',#55,#57,#64,.T.);
#66 = ORIENTED_EDGE('',*,*,#65,.T.);
#67 = DIRECTION('',(0.,0.,1.));
#68 = VECTOR('',#67,1.);
#69 = LINE('',#56,#68);
#70 = EDGE_CURVE('',#57,#59,#69,.T.);
#71 = ORIENTED_EDGE('',*,*,#70,.T.);
#72 = DIRECTION('',(0.,1.,0.));
#73 = VECTOR('',#72,1.);
#74 = LINE('',#60,#73);
#75 = EDGE_CURVE('',#61,#59,#74,.T.);
#76 = ORIENTED_EDGE('',*,*,#75,.F.);
#77 = DIRECTION('',(0.,0.,1.));
#78 = VECTOR('',#77,1.);
#79 = LINE('',#54,#78);
#80 = EDGE_CURVE('',#55,#61,#79,.T.);
#81 = ORIENTED_EDGE('',*,*,#80,.F.);
#82 = CARTESIAN_POINT('',(-2.54,-1.27,0.));
#83 = DIRECTION('',(1.,0.,0.));
#84 = DIRECTION('',(0.,1.,0.));
#85 = AXIS2_PLACEMENT_3D('',#82,#83,#84);
#86 = PLANE('',#85);
#87 = EDGE_LOOP('',(#66,#71,#76,#81));
#88 = FACE_OUTER_BOUND('',#87,.T.);
#89 = ADVANCED_FACE('',(#88),#86,.T.);
#90 = DIRECTION('',(-1.,0.,0.));
#91 = VECTOR('',#90,1.);
#92 = LINE('',#54,#91);
#93 = EDGE_CURVE('',#55,#19,#92,.T.);
#94 = ORIENTED_EDGE('',*,*,#93,.F.);
#95 = ORIENTED_EDGE('',*,*,#80,.T.);
#96 = DIRECTION('',(-1.,0.,0.));
#97 = VECTOR('',#96,1.);
#98 = LINE('',#60,#97);
#99 = EDGE_CURVE('',#61,#21,#98,.T.);
#100 = ORIENTED_EDGE('',*,*,#99,.T.);
#101 = ORIENTED_EDGE('',*,*,#29,.F.);
#102 = CARTESIAN_POINT('',(-5.08,-1.27,0.));
#103 = DIRECTION('',(0.,-1.,0.));
#104 = DIRECTION('',(1.,0.,0.));
#105 = AXIS2_PLACEMENT_3D('',#102,#103,#104);
#106 = PLANE('',#105);
#107 = EDGE_LOOP('',(#94,#95,#100,#101));
#108 = FACE_OUTER_BOUND('',#107,.T.);
#109 = ADVANCED_FACE('',(#108),#106,.T.);
#110 = ORIENTED_EDGE('',*,*,#39,.T.);
#111 = DIRECTION('',(-1.,0.,0.));
#112 = VECTOR('',#111,1.);
#113 = LINE('',#58,#112);
#114 = EDGE_CURVE('',#59,#23,#113,.T.);
#115 = ORIENTED_EDGE('',*,*,#114,.F.);
#116 = ORIENTED_EDGE('',*,*,#70,.F.);
#117 = DIRECTION('',(-1.,0.,0.));
#118 = VECTOR('',#117,1.);
#119 = LINE('',#56,#118);
#120 = EDGE_CURVE('',#57,#25,#119,.T.);
#121 = ORIENTED_EDGE('',*,*,#120,.T.);
#122 = CARTESIAN_POINT('',(-5.08,1.27,0.));
#123 = DIRECTION('',(0.,1.,0.));
#124 = DIRECTION('',(0.,0.,1.));
#125 = AXIS2_PLACEMENT_3D('',#122,#123,#124);
#126 = PLANE('',#125);
#127 = EDGE_LOOP('',(#110,#115,#116,#121));
#128 = FACE_OUTER_BOUND('',#127,.T.);
#129 = ADVANCED_FACE('',(#128),#126,.T.);
#130 = ORIENTED_EDGE('',*,*,#44,.T.);
#131 = ORIENTED_EDGE('',*,*,#120,.F.);
#132 = ORIENTED_EDGE('',*,*,#65,.F.);
#133 = ORIENTED_EDGE('',*,*,#93,.T.);
#134 = CARTESIAN_POINT('',(-5.08,-1.27,0.));
#135 = DIRECTION('',(0.,0.,-1.));
#136 = DIRECTION('',(0.,1.,0.));
#137 = AXIS2_PLACEMENT_3D('',#134,#135,#136);
#138 = PLANE('',#137);
#139 = EDGE_LOOP('',(#130,#131,#132,#133));
#140 = FACE_OUTER_BOUND('',#139,.T.);
#141 = ADVANCED_FACE('',(#140),#138,.T.);
#142 = ORIENTED_EDGE('',*,*,#99,.F.);
#143 = ORIENTED_EDGE('',*,*,#75,.T.);
#144 = ORIENTED_EDGE('',*,*,#114,.T.);
#145 = ORIENTED_EDGE('',*,*,#34,.F.);
#146 = CARTESIAN_POINT('',(-5.08,-1.27,2.));
#147 = DIRECTION('',(0.,0.,1.));
#148 = DIRECTION('',(1.,0.,0.));
#149 = AXIS2_PLACEMENT_3D('',#146,#147,#148);
#150 = PLANE('',#149);
#151 = EDGE_LOOP('',(#142,#143,#144,#145));
#152 = FACE_OUTER_BOUND('',#151,.T.);
#153 = ADVANCED_FACE('',(#152),#150,.T.);
#154 = CLOSED_SHELL('',(#53,#89,#109,#129,#141,#153));
#155 = MANIFOLD_SOLID_BREP('',#154);
#156 = COLOUR_RGB('',0.13333333333333333,0.13333333333333333,0.13333333333333333);
#157 = FILL_AREA_STYLE_COLOUR('',#156);
#158 = FILL_AREA_STYLE('',(#157));
#159 = SURFACE_STYLE_FILL_AREA(#158);
#160 = SURFACE_SIDE_STYLE('',(#159));
#161 = SURFACE_STYLE_USAGE(.BOTH.,#160);
#162 = PRESENTATION_STYLE_ASSIGNMENT((#161));
#163 = STYLED_ITEM('',(#162),#155);
#164 = CARTESIAN_POINT('',(-3.495,-0.315,0.5500000000000003));
#165 = VERTEX_POINT('',#164);
#166 = CARTESIAN_POINT('',(-3.495,0.315,0.5500000000000003));
#167 = VERTEX_POINT('',#166);
#168 = CARTESIAN_POINT('',(-4.125,0.315,0.5500000000000003));
#169 = VERTEX_POINT('',#168);
#170 = CARTESIAN_POINT('',(-4.125,-0.315,0.5500000000000003));
#171 = VERTEX_POINT('',#170);
#172 = DIRECTION('',(0.,1.,0.));
#173 = VECTOR('',#172,1.);
#174 = LINE('',#164,#173);
#175 = EDGE_CURVE('',#165,#167,#174,.T.);
#176 = ORIENTED_EDGE('',*,*,#175,.T.);
#177 = DIRECTION('',(-1.,0.,0.));
#178 = VECTOR('',#177,1.);
#179 = LINE('',#166,#178);
#180 = EDGE_CURVE('',#167,#169,#179,.T.);
#181 = ORIENTED_EDGE('',*,*,#180,.T.);
#182 = DIRECTION('',(0.,1.,0.));
#183 = VECTOR('',#182,1.);
#184 = LINE('',#170,#183);
#185 = EDGE_CURVE('',#171,#169,#184,.T.);
#186 = ORIENTED_EDGE('',*,*,#185,.F.);
#187 = DIRECTION('',(-1.,0.,0.));
#188 = VECTOR('',#187,1.);
#189 = LINE('',#164,#188);
#190 = EDGE_CURVE('',#165,#171,#189,.T.);
#191 = ORIENTED_EDGE('',*,*,#190,.F.);
#192 = CARTESIAN_POINT('',(-3.495,-0.315,0.5500000000000003));
#193 = DIRECTION('',(0.,0.,1.));
#194 = DIRECTION('',(0.,1.,0.));
#195 = AXIS2_PLACEMENT_3D('',#192,#193,#194);
#196 = PLANE('',#195);
#197 = EDGE_LOOP('',(#176,#181,#186,#191));
#198 = FACE_OUTER_BOUND('',#197,.T.);
#199 = ADVANCED_FACE('',(#198),#196,.T.);
#200 = CARTESIAN_POINT('',(-4.125,0.315,-2.15));
#201 = VERTEX_POINT('',#200);
#202 = CARTESIAN_POINT('',(-3.495,0.315,-2.15));
#203 = VERTEX_POINT('',#202);
#204 = DIRECTION('',(0.,0.,1.));
#205 = VECTOR('',#204,1.);
#206 = LINE('',#200,#205);
#207 = EDGE_CURVE('',#201,#169,#206,.T.);
#208 = ORIENTED_EDGE('',*,*,#207,.T.);
#209 = ORIENTED_EDGE('',*,*,#180,.F.);
#210 = DIRECTION('',(0.,0.,1.));
#211 = VECTOR('',#210,1.);
#212 = LINE('',#202,#211);
#213 = EDGE_CURVE('',#203,#167,#212,.T.);
#214 = ORIENTED_EDGE('',*,*,#213,.F.);
#215 = DIRECTION('',(-1.,0.,0.));
#216 = VECTOR('',#215,1.);
#217 = LINE('',#202,#216);
#218 = EDGE_CURVE('',#203,#201,#217,.T.);
#219 = ORIENTED_EDGE('',*,*,#218,.T.);
#220 = CARTESIAN_POINT('',(-4.125,0.315,-2.15));
#221 = DIRECTION('',(0.,1.,0.));
#222 = DIRECTION('',(0.,0.,1.));
#223 = AXIS2_PLACEMENT_3D('',#220,#221,#222);
#224 = PLANE('',#223);
#225 = EDGE_LOOP('',(#208,#209,#214,#219));
#226 = FACE_OUTER_BOUND('',#225,.T.);
#227 = ADVANCED_FACE('',(#226),#224,.T.);
#228 = CARTESIAN_POINT('',(-4.125,-0.315,-2.15));
#229 = VERTEX_POINT('',#228);
#230 = DIRECTION('',(0.,1.,0.));
#231 = VECTOR('',#230,1.);
#232 = LINE('',#228,#231);
#233 = EDGE_CURVE('',#229,#201,#232,.T.);
#234 = ORIENTED_EDGE('',*,*,#233,.F.);
#235 = DIRECTION('',(0.,0.,1.));
#236 = VECTOR('',#235,1.);
#237 = LINE('',#228,#236);
#238 = EDGE_CURVE('',#229,#171,#237,.T.);
#239 = ORIENTED_EDGE('',*,*,#238,.T.);
#240 = ORIENTED_EDGE('',*,*,#185,.T.);
#241 = ORIENTED_EDGE('',*,*,#207,.F.);
#242 = CARTESIAN_POINT('',(-4.125,0.315,-2.15));
#243 = DIRECTION('',(-1.,0.,0.));
#244 = DIRECTION('',(0.,-1.,0.));
#245 = AXIS2_PLACEMENT_3D('',#242,#243,#244);
#246 = PLANE('',#245);
#247 = EDGE_LOOP('',(#234,#239,#240,#241));
#248 = FACE_OUTER_BOUND('',#247,.T.);
#249 = ADVANCED_FACE('',(#248),#246,.T.);
#250 = CARTESIAN_POINT('',(-3.495,-0.315,-2.15));
#251 = VERTEX_POINT('',#250);
#252 = DIRECTION('',(0.,1.,0.));
#253 = VECTOR('',#252,1.);
#254 = LINE('',#250,#253);
#255 = EDGE_CURVE('',#251,#203,#254,.T.);
#256 = ORIENTED_EDGE('',*,*,#255,.T.);
#257 = ORIENTED_EDGE('',*,*,#213,.T.);
#258 = ORIENTED_EDGE('',*,*,#175,.F.);
#259 = DIRECTION('',(0.,0.,1.));
#260 = VECTOR('',#259,1.);
#261 = LINE('',#250,#260);
#262 = EDGE_CURVE('',#251,#165,#261,.T.);
#263 = ORIENTED_EDGE('',*,*,#262,.F.);
#264 = CARTESIAN_POINT('',(-3.495,-0.315,-2.15));
#265 = DIRECTION('',(1.,0.,0.));
#266 = DIRECTION('',(0.,1.,0.));
#267 = AXIS2_PLACEMENT_3D('',#264,#265,#266);
#268 = PLANE('',#267);
#269 = EDGE_LOOP('',(#256,#257,#258,#263));
#270 = FACE_OUTER_BOUND('',#269,.T.);
#271 = ADVANCED_FACE('',(#270),#268,.T.);
#272 = ORIENTED_EDGE('',*,*,#262,.T.);
#273 = ORIENTED_EDGE('',*,*,#190,.T.);
#274 = ORIENTED_EDGE('',*,*,#238,.F.);
#275 = DIRECTION('',(-1.,0.,0.));
#276 = VECTOR('',#275,1.);
#277 = LINE('',#250,#276);
#278 = EDGE_CURVE('',#251,#229,#277,.T.);
#279 = ORIENTED_EDGE('',*,*,#278,.F.);
#280 = CARTESIAN_POINT('',(-3.495,-0.315,-2.15));
#281 = DIRECTION('',(0.,-1.,0.));
#282 = DIRECTION('',(0.,0.,1.));
#283 = AXIS2_PLACEMENT_3D('',#280,#281,#282);
#284 = PLANE('',#283);
#285 = EDGE_LOOP('',(#272,#273,#274,#279));
#286 = FACE_OUTER_BOUND('',#285,.T.);
#287 = ADVANCED_FACE('',(#286),#284,.T.);
#288 = CARTESIAN_POINT('',(-3.985,0.175,-2.5));
#289 = VERTEX_POINT('',#288);
#290 = CARTESIAN_POINT('',(-3.6350000000000002,0.175,-2.5));
#291 = VERTEX_POINT('',#290);
#292 = DIRECTION('',(-0.34815531191139587,0.3481553119113956,0.8703882797784892));
#293 = VECTOR('',#292,1.);
#294 = LINE('',#288,#293);
#295 = EDGE_CURVE('',#289,#201,#294,.T.);
#296 = ORIENTED_EDGE('',*,*,#295,.T.);
#297 = ORIENTED_EDGE('',*,*,#218,.F.);
#298 = DIRECTION('',(-0.34815531191139587,-0.3481553119113956,-0.8703882797784892));
#299 = VECTOR('',#298,1.);
#300 = LINE('',#202,#299);
#301 = EDGE_CURVE('',#203,#291,#300,.T.);
#302 = ORIENTED_EDGE('',*,*,#301,.T.);
#303 = DIRECTION('',(-1.,0.,0.));
#304 = VECTOR('',#303,1.);
#305 = LINE('',#290,#304);
#306 = EDGE_CURVE('',#291,#289,#305,.T.);
#307 = ORIENTED_EDGE('',*,*,#306,.T.);
#308 = CARTESIAN_POINT('',(-3.985,0.175,-2.5));
#309 = DIRECTION('',(0.,0.9284766908852594,-0.3713906763541036));
#310 = DIRECTION('',(-0.34815531191139587,0.3481553119113956,0.8703882797784892));
#311 = AXIS2_PLACEMENT_3D('',#308,#309,#310);
#312 = PLANE('',#311);
#313 = EDGE_LOOP('',(#296,#297,#302,#307));
#314 = FACE_OUTER_BOUND('',#313,.T.);
#315 = ADVANCED_FACE('',(#314),#312,.T.);
#316 = CARTESIAN_POINT('',(-3.985,-0.175,-2.5));
#317 = VERTEX_POINT('',#316);
#318 = DIRECTION('',(0.,1.,0.));
#319 = VECTOR('',#318,1.);
#320 = LINE('',#316,#319);
#321 = EDGE_CURVE('',#317,#289,#320,.T.);
#322 = ORIENTED_EDGE('',*,*,#321,.F.);
#323 = DIRECTION('',(-0.34815531191139587,-0.3481553119113956,0.8703882797784892));
#324 = VECTOR('',#323,1.);
#325 = LINE('',#316,#324);
#326 = EDGE_CURVE('',#317,#229,#325,.T.);
#327 = ORIENTED_EDGE('',*,*,#326,.T.);
#328 = ORIENTED_EDGE('',*,*,#233,.T.);
#329 = ORIENTED_EDGE('',*,*,#295,.F.);
#330 = CARTESIAN_POINT('',(-3.985,0.175,-2.5));
#331 = DIRECTION('',(-0.9284766908852592,0.,-0.37139067635410367));
#332 = DIRECTION('',(0.,-1.,0.));
#333 = AXIS2_PLACEMENT_3D('',#330,#331,#332);
#334 = PLANE('',#333);
#335 = EDGE_LOOP('',(#322,#327,#328,#329));
#336 = FACE_OUTER_BOUND('',#335,.T.);
#337 = ADVANCED_FACE('',(#336),#334,.T.);
#338 = CARTESIAN_POINT('',(-3.6350000000000002,-0.175,-2.5));
#339 = VERTEX_POINT('',#338);
#340 = DIRECTION('',(-1.,0.,0.));
#341 = VECTOR('',#340,1.);
#342 = LINE('',#338,#341);
#343 = EDGE_CURVE('',#339,#317,#342,.T.);
#344 = ORIENTED_EDGE('',*,*,#343,.T.);
#345 = ORIENTED_EDGE('',*,*,#321,.T.);
#346 = ORIENTED_EDGE('',*,*,#306,.F.);
#347 = DIRECTION('',(0.,1.,0.));
#348 = VECTOR('',#347,1.);
#349 = LINE('',#338,#348);
#350 = EDGE_CURVE('',#339,#291,#349,.T.);
#351 = ORIENTED_EDGE('',*,*,#350,.F.);
#352 = CARTESIAN_POINT('',(-3.6350000000000002,-0.175,-2.5));
#353 = DIRECTION('',(0.,0.,-1.));
#354 = DIRECTION('',(-1.,0.,0.));
#355 = AXIS2_PLACEMENT_3D('',#352,#353,#354);
#356 = PLANE('',#355);
#357 = EDGE_LOOP('',(#344,#345,#346,#351));
#358 = FACE_OUTER_BOUND('',#357,.T.);
#359 = ADVANCED_FACE('',(#358),#356,.T.);
#360 = ORIENTED_EDGE('',*,*,#350,.T.);
#361 = ORIENTED_EDGE('',*,*,#301,.F.);
#362 = ORIENTED_EDGE('',*,*,#255,.F.);
#363 = DIRECTION('',(-0.34815531191139587,0.3481553119113956,-0.8703882797784892));
#364 = VECTOR('',#363,1.);
#365 = LINE('',#250,#364);
#366 = EDGE_CURVE('',#251,#339,#365,.T.);
#367 = ORIENTED_EDGE('',*,*,#366,.T.);
#368 = CARTESIAN_POINT('',(-3.6350000000000002,-0.175,-2.5));
#369 = DIRECTION('',(0.9284766908852592,0.,-0.37139067635410367));
#370 = DIRECTION('',(0.,1.,0.));
#371 = AXIS2_PLACEMENT_3D('',#368,#369,#370);
#372 = PLANE('',#371);
#373 = EDGE_LOOP('',(#360,#361,#362,#367));
#374 = FACE_OUTER_BOUND('',#373,.T.);
#375 = ADVANCED_FACE('',(#374),#372,.T.);
#376 = ORIENTED_EDGE('',*,*,#366,.F.);
#377 = ORIENTED_EDGE('',*,*,#278,.T.);
#378 = ORIENTED_EDGE('',*,*,#326,.F.);
#379 = ORIENTED_EDGE('',*,*,#343,.F.);
#380 = CARTESIAN_POINT('',(-3.6350000000000002,-0.175,-2.5));
#381 = DIRECTION('',(0.,-0.9284766908852594,-0.3713906763541036));
#382 = DIRECTION('',(0.34815531191139587,-0.3481553119113956,0.8703882797784892));
#383 = AXIS2_PLACEMENT_3D('',#380,#381,#382);
#384 = PLANE('',#383);
#385 = EDGE_LOOP('',(#376,#377,#378,#379));
#386 = FACE_OUTER_BOUND('',#385,.T.);
#387 = ADVANCED_FACE('',(#386),#384,.T.);
#388 = CLOSED_SHELL('',(#199,#227,#249,#271,#287,#315,#337,#359,#375,#387));
#389 = MANIFOLD_SOLID_BREP('',#388);
#390 = COLOUR_RGB('',0.7529411764705882,0.7529411764705882,0.7529411764705882);
#391 = FILL_AREA_STYLE_COLOUR('',#390);
#392 = FILL_AREA_STYLE('',(#391));
#393 = SURFACE_STYLE_FILL_AREA(#392);
#394 = SURFACE_SIDE_STYLE('',(#393));
#395 = SURFACE_STYLE_USAGE(.BOTH.,#394);
#396 = PRESENTATION_STYLE_ASSIGNMENT((#395));
#397 = STYLED_ITEM('',(#396),#389);
#398 = CARTESIAN_POINT('',(-4.125,0.315,2.));
#399 = VERTEX_POINT('',#398);
#400 = CARTESIAN_POINT('',(-4.125,-0.315,2.));
#401 = VERTEX_POINT('',#400);
#402 = CARTESIAN_POINT('',(-4.125,-0.315,7.4));
#403 = VERTEX_POINT('',#402);
#404 = CARTESIAN_POINT('',(-4.125,0.315,7.4));
#405 = VERTEX_POINT('',#404);
#406 = DIRECTION('',(0.,1.,0.));
#407 = VECTOR('',#406,1.);
#408 = LINE('',#400,#407);
#409 = EDGE_CURVE('',#401,#399,#408,.T.);
#410 = ORIENTED_EDGE('',*,*,#409,.F.);
#411 = DIRECTION('',(0.,0.,1.));
#412 = VECTOR('',#411,1.);
#413 = LINE('',#400,#412);
#414 = EDGE_CURVE('',#401,#403,#413,.T.);
#415 = ORIENTED_EDGE('',*,*,#414,.T.);
#416 = DIRECTION('',(0.,1.,0.));
#417 = VECTOR('',#416,1.);
#418 = LINE('',#402,#417);
#419 = EDGE_CURVE('',#403,#405,#418,.T.);
#420 = ORIENTED_EDGE('',*,*,#419,.T.);
#421 = DIRECTION('',(0.,0.,1.));
#422 = VECTOR('',#421,1.);
#423 = LINE('',#398,#422);
#424 = EDGE_CURVE('',#399,#405,#423,.T.);
#425 = ORIENTED_EDGE('',*,*,#424,.F.);
#426 = CARTESIAN_POINT('',(-4.125,0.315,2.));
#427 = DIRECTION('',(-1.,0.,0.));
#428 = DIRECTION('',(0.,-1.,0.));
#429 = AXIS2_PLACEMENT_3D('',#426,#427,#428);
#430 = PLANE('',#429);
#431 = EDGE_LOOP('',(#410,#415,#420,#425));
#432 = FACE_OUTER_BOUND('',#431,.T.);
#433 = ADVANCED_FACE('',(#432),#430,.T.);
#434 = CARTESIAN_POINT('',(-3.495,0.315,7.4));
#435 = VERTEX_POINT('',#434);
#436 = CARTESIAN_POINT('',(-3.495,0.315,2.));
#437 = VERTEX_POINT('',#436);
#438 = DIRECTION('',(0.,0.,1.));
#439 = VECTOR('',#438,1.);
#440 = LINE('',#436,#439);
#441 = EDGE_CURVE('',#437,#435,#440,.T.);
#442 = ORIENTED_EDGE('',*,*,#441,.F.);
#443 = DIRECTION('',(-1.,0.,0.));
#444 = VECTOR('',#443,1.);
#445 = LINE('',#436,#444);
#446 = EDGE_CURVE('',#437,#399,#445,.T.);
#447 = ORIENTED_EDGE('',*,*,#446,.T.);
#448 = ORIENTED_EDGE('',*,*,#424,.T.);
#449 = DIRECTION('',(-1.,0.,0.));
#450 = VECTOR('',#449,1.);
#451 = LINE('',#434,#450);
#452 = EDGE_CURVE('',#435,#405,#451,.T.);
#453 = ORIENTED_EDGE('',*,*,#452,.F.);
#454 = CARTESIAN_POINT('',(-3.495,0.315,7.4));
#455 = DIRECTION('',(0.,1.,0.));
#456 = DIRECTION('',(0.,0.,-1.));
#457 = AXIS2_PLACEMENT_3D('',#454,#455,#456);
#458 = PLANE('',#457);
#459 = EDGE_LOOP('',(#442,#447,#448,#453));
#460 = FACE_OUTER_BOUND('',#459,.T.);
#461 = ADVANCED_FACE('',(#460),#458,.T.);
#462 = CARTESIAN_POINT('',(-3.985,0.175,8.));
#463 = VERTEX_POINT('',#462);
#464 = CARTESIAN_POINT('',(-3.985,-0.175,8.));
#465 = VERTEX_POINT('',#464);
#466 = DIRECTION('',(-0.22158112824152176,0.22158112824152157,-0.9496334067493776));
#467 = VECTOR('',#466,1.);
#468 = LINE('',#462,#467);
#469 = EDGE_CURVE('',#463,#405,#468,.T.);
#470 = ORIENTED_EDGE('',*,*,#469,.T.);
#471 = ORIENTED_EDGE('',*,*,#419,.F.);
#472 = DIRECTION('',(-0.22158112824152176,-0.22158112824152157,-0.9496334067493776));
#473 = VECTOR('',#472,1.);
#474 = LINE('',#464,#473);
#475 = EDGE_CURVE('',#465,#403,#474,.T.);
#476 = ORIENTED_EDGE('',*,*,#475,.F.);
#477 = DIRECTION('',(0.,1.,0.));
#478 = VECTOR('',#477,1.);
#479 = LINE('',#464,#478);
#480 = EDGE_CURVE('',#465,#463,#479,.T.);
#481 = ORIENTED_EDGE('',*,*,#480,.T.);
#482 = CARTESIAN_POINT('',(-3.985,0.175,8.));
#483 = DIRECTION('',(-0.9738412097417933,0.,0.2272296156064183));
#484 = DIRECTION('',(-0.22158112824152176,0.22158112824152157,-0.9496334067493776));
#485 = AXIS2_PLACEMENT_3D('',#482,#483,#484);
#486 = PLANE('',#485);
#487 = EDGE_LOOP('',(#470,#471,#476,#481));
#488 = FACE_OUTER_BOUND('',#487,.T.);
#489 = ADVANCED_FACE('',(#488),#486,.T.);
#490 = CARTESIAN_POINT('',(-3.495,-0.315,2.));
#491 = VERTEX_POINT('',#490);
#492 = CARTESIAN_POINT('',(-3.495,-0.315,7.4));
#493 = VERTEX_POINT('',#492);
#494 = DIRECTION('',(0.,1.,0.));
#495 = VECTOR('',#494,1.);
#496 = LINE('',#490,#495);
#497 = EDGE_CURVE('',#491,#437,#496,.T.);
#498 = ORIENTED_EDGE('',*,*,#497,.T.);
#499 = ORIENTED_EDGE('',*,*,#441,.T.);
#500 = DIRECTION('',(0.,1.,0.));
#501 = VECTOR('',#500,1.);
#502 = LINE('',#492,#501);
#503 = EDGE_CURVE('',#493,#435,#502,.T.);
#504 = ORIENTED_EDGE('',*,*,#503,.F.);
#505 = DIRECTION('',(0.,0.,1.));
#506 = VECTOR('',#505,1.);
#507 = LINE('',#490,#506);
#508 = EDGE_CURVE('',#491,#493,#507,.T.);
#509 = ORIENTED_EDGE('',*,*,#508,.F.);
#510 = CARTESIAN_POINT('',(-3.495,-0.315,2.));
#511 = DIRECTION('',(1.,0.,0.));
#512 = DIRECTION('',(0.,1.,0.));
#513 = AXIS2_PLACEMENT_3D('',#510,#511,#512);
#514 = PLANE('',#513);
#515 = EDGE_LOOP('',(#498,#499,#504,#509));
#516 = FACE_OUTER_BOUND('',#515,.T.);
#517 = ADVANCED_FACE('',(#516),#514,.T.);
#518 = ORIENTED_EDGE('',*,*,#508,.T.);
#519 = DIRECTION('',(-1.,0.,0.));
#520 = VECTOR('',#519,1.);
#521 = LINE('',#492,#520);
#522 = EDGE_CURVE('',#493,#403,#521,.T.);
#523 = ORIENTED_EDGE('',*,*,#522,.T.);
#524 = ORIENTED_EDGE('',*,*,#414,.F.);
#525 = DIRECTION('',(-1.,0.,0.));
#526 = VECTOR('',#525,1.);
#527 = LINE('',#490,#526);
#528 = EDGE_CURVE('',#491,#401,#527,.T.);
#529 = ORIENTED_EDGE('',*,*,#528,.F.);
#530 = CARTESIAN_POINT('',(-3.495,-0.315,2.));
#531 = DIRECTION('',(0.,-1.,0.));
#532 = DIRECTION('',(0.,0.,1.));
#533 = AXIS2_PLACEMENT_3D('',#530,#531,#532);
#534 = PLANE('',#533);
#535 = EDGE_LOOP('',(#518,#523,#524,#529));
#536 = FACE_OUTER_BOUND('',#535,.T.);
#537 = ADVANCED_FACE('',(#536),#534,.T.);
#538 = ORIENTED_EDGE('',*,*,#528,.T.);
#539 = ORIENTED_EDGE('',*,*,#409,.T.);
#540 = ORIENTED_EDGE('',*,*,#446,.F.);
#541 = ORIENTED_EDGE('',*,*,#497,.F.);
#542 = CARTESIAN_POINT('',(-3.495,-0.315,2.));
#543 = DIRECTION('',(0.,0.,-1.));
#544 = DIRECTION('',(-1.,0.,0.));
#545 = AXIS2_PLACEMENT_3D('',#542,#543,#544);
#546 = PLANE('',#545);
#547 = EDGE_LOOP('',(#538,#539,#540,#541));
#548 = FACE_OUTER_BOUND('',#547,.T.);
#549 = ADVANCED_FACE('',(#548),#546,.T.);
#550 = CARTESIAN_POINT('',(-3.6350000000000002,0.175,8.));
#551 = VERTEX_POINT('',#550);
#552 = DIRECTION('',(-0.22158112824152176,-0.22158112824152157,0.9496334067493776));
#553 = VECTOR('',#552,1.);
#554 = LINE('',#434,#553);
#555 = EDGE_CURVE('',#435,#551,#554,.T.);
#556 = ORIENTED_EDGE('',*,*,#555,.F.);
#557 = ORIENTED_EDGE('',*,*,#452,.T.);
#558 = ORIENTED_EDGE('',*,*,#469,.F.);
#559 = DIRECTION('',(-1.,0.,0.));
#560 = VECTOR('',#559,1.);
#561 = LINE('',#550,#560);
#562 = EDGE_CURVE('',#551,#463,#561,.T.);
#563 = ORIENTED_EDGE('',*,*,#562,.F.);
#564 = CARTESIAN_POINT('',(-3.6350000000000002,0.175,8.));
#565 = DIRECTION('',(0.,0.9738412097417931,0.2272296156064186));
#566 = DIRECTION('',(0.22158112824152176,0.22158112824152157,-0.9496334067493776));
#567 = AXIS2_PLACEMENT_3D('',#564,#565,#566);
#568 = PLANE('',#567);
#569 = EDGE_LOOP('',(#556,#557,#558,#563));
#570 = FACE_OUTER_BOUND('',#569,.T.);
#571 = ADVANCED_FACE('',(#570),#568,.T.);
#572 = CARTESIAN_POINT('',(-3.6350000000000002,-0.175,8.));
#573 = VERTEX_POINT('',#572);
#574 = DIRECTION('',(-0.22158112824152176,0.22158112824152157,0.9496334067493776));
#575 = VECTOR('',#574,1.);
#576 = LINE('',#492,#575);
#577 = EDGE_CURVE('',#493,#573,#576,.T.);
#578 = ORIENTED_EDGE('',*,*,#577,.F.);
#579 = ORIENTED_EDGE('',*,*,#503,.T.);
#580 = ORIENTED_EDGE('',*,*,#555,.T.);
#581 = DIRECTION('',(0.,1.,0.));
#582 = VECTOR('',#581,1.);
#583 = LINE('',#572,#582);
#584 = EDGE_CURVE('',#573,#551,#583,.T.);
#585 = ORIENTED_EDGE('',*,*,#584,.F.);
#586 = CARTESIAN_POINT('',(-3.6350000000000002,-0.175,8.));
#587 = DIRECTION('',(0.9738412097417933,0.,0.2272296156064183));
#588 = DIRECTION('',(0.22158112824152176,-0.22158112824152157,-0.9496334067493776));
#589 = AXIS2_PLACEMENT_3D('',#586,#587,#588);
#590 = PLANE('',#589);
#591 = EDGE_LOOP('',(#578,#579,#580,#585));
#592 = FACE_OUTER_BOUND('',#591,.T.);
#593 = ADVANCED_FACE('',(#592),#590,.T.);
#594 = ORIENTED_EDGE('',*,*,#584,.T.);
#595 = ORIENTED_EDGE('',*,*,#562,.T.);
#596 = ORIENTED_EDGE('',*,*,#480,.F.);
#597 = DIRECTION('',(-1.,0.,0.));
#598 = VECTOR('',#597,1.);
#599 = LINE('',#572,#598);
#600 = EDGE_CURVE('',#573,#465,#599,.T.);
#601 = ORIENTED_EDGE('',*,*,#600,.F.);
#602 = CARTESIAN_POINT('',(-3.6350000000000002,-0.175,8.));
#603 = DIRECTION('',(0.,0.,1.));
#604 = DIRECTION('',(0.,1.,0.));
#605 = AXIS2_PLACEMENT_3D('',#602,#603,#604);
#606 = PLANE('',#605);
#607 = EDGE_LOOP('',(#594,#595,#596,#601));
#608 = FACE_OUTER_BOUND('',#607,.T.);
#609 = ADVANCED_FACE('',(#608),#606,.T.);
#610 = ORIENTED_EDGE('',*,*,#600,.T.);
#611 = ORIENTED_EDGE('',*,*,#475,.T.);
#612 = ORIENTED_EDGE('',*,*,#522,.F.);
#613 = ORIENTED_EDGE('',*,*,#577,.T.);
#614 = CARTESIAN_POINT('',(-3.6350000000000002,-0.175,8.));
#615 = DIRECTION('',(0.,-0.9738412097417931,0.2272296156064186));
#616 = DIRECTION('',(-1.,0.,0.));
#617 = AXIS2_PLACEMENT_3D('',#614,#615,#616);
#618 = PLANE('',#617);
#619 = EDGE_LOOP('',(#610,#611,#612,#613));
#620 = FACE_OUTER_BOUND('',#619,.T.);
#621 = ADVANCED_FACE('',(#620),#618,.T.);
#622 = CLOSED_SHELL('',(#433,#461,#489,#517,#537,#549,#571,#593,#609,#621));
#623 = MANIFOLD_SOLID_BREP('',#622);
#624 = COLOUR_RGB('',0.7529411764705882,0.7529411764705882,0.7529411764705882);
#625 = FILL_AREA_STYLE_COLOUR('',#624);
#626 = FILL_AREA_STYLE('',(#625));
#627 = SURFACE_STYLE_FILL_AREA(#626);
#628 = SURFACE_SIDE_STYLE('',(#627));
#629 = SURFACE_STYLE_USAGE(.BOTH.,#628);
#630 = PRESENTATION_STYLE_ASSIGNMENT((#629));
#631 = STYLED_ITEM('',(#630),#623);
#632 = CARTESIAN_POINT('',(-2.54,-1.27,0.));
#633 = VERTEX_POINT('',#632);
#634 = CARTESIAN_POINT('',(-2.54,-1.27,2.));
#635 = VERTEX_POINT('',#634);
#636 = CARTESIAN_POINT('',(-2.54,1.27,2.));
#637 = VERTEX_POINT('',#636);
#638 = CARTESIAN_POINT('',(-2.54,1.27,0.));
#639 = VERTEX_POINT('',#638);
#640 = DIRECTION('',(0.,0.,1.));
#641 = VECTOR('',#640,1.);
#642 = LINE('',#632,#641);
#643 = EDGE_CURVE('',#633,#635,#642,.T.);
#644 = ORIENTED_EDGE('',*,*,#643,.T.);
#645 = DIRECTION('',(0.,1.,0.));
#646 = VECTOR('',#645,1.);
#647 = LINE('',#634,#646);
#648 = EDGE_CURVE('',#635,#637,#647,.T.);
#649 = ORIENTED_EDGE('',*,*,#648,.T.);
#650 = DIRECTION('',(0.,0.,1.));
#651 = VECTOR('',#650,1.);
#652 = LINE('',#638,#651);
#653 = EDGE_CURVE('',#639,#637,#652,.T.);
#654 = ORIENTED_EDGE('',*,*,#653,.F.);
#655 = DIRECTION('',(0.,1.,0.));
#656 = VECTOR('',#655,1.);
#657 = LINE('',#632,#656);
#658 = EDGE_CURVE('',#633,#639,#657,.T.);
#659 = ORIENTED_EDGE('',*,*,#658,.F.);
#660 = CARTESIAN_POINT('',(-2.54,-1.27,0.));
#661 = DIRECTION('',(-1.,0.,0.));
#662 = DIRECTION('',(0.,0.,1.));
#663 = AXIS2_PLACEMENT_3D('',#660,#661,#662);
#664 = PLANE('',#663);
#665 = EDGE_LOOP('',(#644,#649,#654,#659));
#666 = FACE_OUTER_BOUND('',#665,.T.);
#667 = ADVANCED_FACE('',(#666),#664,.T.);
#668 = CARTESIAN_POINT('',(0.,-1.27,0.));
#669 = VERTEX_POINT('',#668);
#670 = CARTESIAN_POINT('',(0.,1.27,0.));
#671 = VERTEX_POINT('',#670);
#672 = CARTESIAN_POINT('',(0.,1.27,2.));
#673 = VERTEX_POINT('',#672);
#674 = CARTESIAN_POINT('',(0.,-1.27,2.));
#675 = VERTEX_POINT('',#674);
#676 = DIRECTION('',(0.,1.,0.));
#677 = VECTOR('',#676,1.);
#678 = LINE('',#668,#677);
#679 = EDGE_CURVE('',#669,#671,#678,.T.);
#680 = ORIENTED_EDGE('',*,*,#679,.T.);
#681 = DIRECTION('',(0.,0.,1.));
#682 = VECTOR('',#681,1.);
#683 = LINE('',#670,#682);
#684 = EDGE_CURVE('',#671,#673,#683,.T.);
#685 = ORIENTED_EDGE('',*,*,#684,.T.);
#686 = DIRECTION('',(0.,1.,0.));
#687 = VECTOR('',#686,1.);
#688 = LINE('',#674,#687);
#689 = EDGE_CURVE('',#675,#673,#688,.T.);
#690 = ORIENTED_EDGE('',*,*,#689,.F.);
#691 = DIRECTION('',(0.,0.,1.));
#692 = VECTOR('',#691,1.);
#693 = LINE('',#668,#692);
#694 = EDGE_CURVE('',#669,#675,#693,.T.);
#695 = ORIENTED_EDGE('',*,*,#694,.F.);
#696 = CARTESIAN_POINT('',(0.,-1.27,0.));
#697 = DIRECTION('',(1.,0.,0.));
#698 = DIRECTION('',(0.,1.,0.));
#699 = AXIS2_PLACEMENT_3D('',#696,#697,#698);
#700 = PLANE('',#699);
#701 = EDGE_LOOP('',(#680,#685,#690,#695));
#702 = FACE_OUTER_BOUND('',#701,.T.);
#703 = ADVANCED_FACE('',(#702),#700,.T.);
#704 = DIRECTION('',(1.,0.,0.));
#705 = VECTOR('',#704,1.);
#706 = LINE('',#632,#705);
#707 = EDGE_CURVE('',#633,#669,#706,.T.);
#708 = ORIENTED_EDGE('',*,*,#707,.T.);
#709 = ORIENTED_EDGE('',*,*,#694,.T.);
#710 = DIRECTION('',(1.,0.,0.));
#711 = VECTOR('',#710,1.);
#712 = LINE('',#634,#711);
#713 = EDGE_CURVE('',#635,#675,#712,.T.);
#714 = ORIENTED_EDGE('',*,*,#713,.F.);
#715 = ORIENTED_EDGE('',*,*,#643,.F.);
#716 = CARTESIAN_POINT('',(-2.54,-1.27,0.));
#717 = DIRECTION('',(0.,-1.,0.));
#718 = DIRECTION('',(1.,0.,0.));
#719 = AXIS2_PLACEMENT_3D('',#716,#717,#718);
#720 = PLANE('',#719);
#721 = EDGE_LOOP('',(#708,#709,#714,#715));
#722 = FACE_OUTER_BOUND('',#721,.T.);
#723 = ADVANCED_FACE('',(#722),#720,.T.);
#724 = ORIENTED_EDGE('',*,*,#653,.T.);
#725 = DIRECTION('',(1.,0.,0.));
#726 = VECTOR('',#725,1.);
#727 = LINE('',#636,#726);
#728 = EDGE_CURVE('',#637,#673,#727,.T.);
#729 = ORIENTED_EDGE('',*,*,#728,.T.);
#730 = ORIENTED_EDGE('',*,*,#684,.F.);
#731 = DIRECTION('',(1.,0.,0.));
#732 = VECTOR('',#731,1.);
#733 = LINE('',#638,#732);
#734 = EDGE_CURVE('',#639,#671,#733,.T.);
#735 = ORIENTED_EDGE('',*,*,#734,.F.);
#736 = CARTESIAN_POINT('',(-2.54,1.27,0.));
#737 = DIRECTION('',(0.,1.,0.));
#738 = DIRECTION('',(0.,0.,1.));
#739 = AXIS2_PLACEMENT_3D('',#736,#737,#738);
#740 = PLANE('',#739);
#741 = EDGE_LOOP('',(#724,#729,#730,#735));
#742 = FACE_OUTER_BOUND('',#741,.T.);
#743 = ADVANCED_FACE('',(#742),#740,.T.);
#744 = ORIENTED_EDGE('',*,*,#658,.T.);
#745 = ORIENTED_EDGE('',*,*,#734,.T.);
#746 = ORIENTED_EDGE('',*,*,#679,.F.);
#747 = ORIENTED_EDGE('',*,*,#707,.F.);
#748 = CARTESIAN_POINT('',(-2.54,-1.27,0.));
#749 = DIRECTION('',(0.,0.,-1.));
#750 = DIRECTION('',(0.,1.,0.));
#751 = AXIS2_PLACEMENT_3D('',#748,#749,#750);
#752 = PLANE('',#751);
#753 = EDGE_LOOP('',(#744,#745,#746,#747));
#754 = FACE_OUTER_BOUND('',#753,.T.);
#755 = ADVANCED_FACE('',(#754),#752,.T.);
#756 = ORIENTED_EDGE('',*,*,#713,.T.);
#757 = ORIENTED_EDGE('',*,*,#689,.T.);
#758 = ORIENTED_EDGE('',*,*,#728,.F.);
#759 = ORIENTED_EDGE('',*,*,#648,.F.);
#760 = CARTESIAN_POINT('',(-2.54,-1.27,2.));
#761 = DIRECTION('',(0.,0.,1.));
#762 = DIRECTION('',(1.,0.,0.));
#763 = AXIS2_PLACEMENT_3D('',#760,#761,#762);
#764 = PLANE('',#763);
#765 = EDGE_LOOP('',(#756,#757,#758,#759));
#766 = FACE_OUTER_BOUND('',#765,.T.);
#767 = ADVANCED_FACE('',(#766),#764,.T.);
#768 = CLOSED_SHELL('',(#667,#703,#723,#743,#755,#767));
#769 = MANIFOLD_SOLID_BREP('',#768);
#770 = COLOUR_RGB('',0.13333333333333333,0.13333333333333333,0.13333333333333333);
#771 = FILL_AREA_STYLE_COLOUR('',#770);
#772 = FILL_AREA_STYLE('',(#771));
#773 = SURFACE_STYLE_FILL_AREA(#772);
#774 = SURFACE_SIDE_STYLE('',(#773));
#775 = SURFACE_STYLE_USAGE(.BOTH.,#774);
#776 = PRESENTATION_STYLE_ASSIGNMENT((#775));
#777 = STYLED_ITEM('',(#776),#769);
#778 = CARTESIAN_POINT('',(-0.9550000000000001,-0.315,0.5500000000000003));
#779 = VERTEX_POINT('',#778);
#780 = CARTESIAN_POINT('',(-1.585,-0.315,0.5500000000000003));
#781 = VERTEX_POINT('',#780);
#782 = CARTESIAN_POINT('',(-1.585,-0.315,-2.15));
#783 = VERTEX_POINT('',#782);
#784 = CARTESIAN_POINT('',(-0.9550000000000001,-0.315,-2.15));
#785 = VERTEX_POINT('',#784);
#786 = DIRECTION('',(-1.,0.,0.));
#787 = VECTOR('',#786,1.);
#788 = LINE('',#778,#787);
#789 = EDGE_CURVE('',#779,#781,#788,.T.);
#790 = ORIENTED_EDGE('',*,*,#789,.T.);
#791 = DIRECTION('',(0.,0.,1.));
#792 = VECTOR('',#791,1.);
#793 = LINE('',#782,#792);
#794 = EDGE_CURVE('',#783,#781,#793,.T.);
#795 = ORIENTED_EDGE('',*,*,#794,.F.);
#796 = DIRECTION('',(-1.,0.,0.));
#797 = VECTOR('',#796,1.);
#798 = LINE('',#784,#797);
#799 = EDGE_CURVE('',#785,#783,#798,.T.);
#800 = ORIENTED_EDGE('',*,*,#799,.F.);
#801 = DIRECTION('',(0.,0.,1.));
#802 = VECTOR('',#801,1.);
#803 = LINE('',#784,#802);
#804 = EDGE_CURVE('',#785,#779,#803,.T.);
#805 = ORIENTED_EDGE('',*,*,#804,.T.);
#806 = CARTESIAN_POINT('',(-0.9550000000000001,-0.315,0.5500000000000003));
#807 = DIRECTION('',(0.,-1.,0.));
#808 = DIRECTION('',(-1.,0.,0.));
#809 = AXIS2_PLACEMENT_3D('',#806,#807,#808);
#810 = PLANE('',#809);
#811 = EDGE_LOOP('',(#790,#795,#800,#805));
#812 = FACE_OUTER_BOUND('',#811,.T.);
#813 = ADVANCED_FACE('',(#812),#810,.T.);
#814 = CARTESIAN_POINT('',(-0.9550000000000001,0.315,-2.15));
#815 = VERTEX_POINT('',#814);
#816 = CARTESIAN_POINT('',(-0.9550000000000001,0.315,0.5500000000000003));
#817 = VERTEX_POINT('',#816);
#818 = ORIENTED_EDGE('',*,*,#804,.F.);
#819 = DIRECTION('',(0.,1.,0.));
#820 = VECTOR('',#819,1.);
#821 = LINE('',#784,#820);
#822 = EDGE_CURVE('',#785,#815,#821,.T.);
#823 = ORIENTED_EDGE('',*,*,#822,.T.);
#824 = DIRECTION('',(0.,0.,1.));
#825 = VECTOR('',#824,1.);
#826 = LINE('',#814,#825);
#827 = EDGE_CURVE('',#815,#817,#826,.T.);
#828 = ORIENTED_EDGE('',*,*,#827,.T.);
#829 = DIRECTION('',(0.,1.,0.));
#830 = VECTOR('',#829,1.);
#831 = LINE('',#778,#830);
#832 = EDGE_CURVE('',#779,#817,#831,.T.);
#833 = ORIENTED_EDGE('',*,*,#832,.F.);
#834 = CARTESIAN_POINT('',(-0.9550000000000001,-0.315,0.5500000000000003));
#835 = DIRECTION('',(1.,0.,0.));
#836 = DIRECTION('',(0.,0.,-1.));
#837 = AXIS2_PLACEMENT_3D('',#834,#835,#836);
#838 = PLANE('',#837);
#839 = EDGE_LOOP('',(#818,#823,#828,#833));
#840 = FACE_OUTER_BOUND('',#839,.T.);
#841 = ADVANCED_FACE('',(#840),#838,.T.);
#842 = CARTESIAN_POINT('',(-1.095,-0.175,-2.5));
#843 = VERTEX_POINT('',#842);
#844 = CARTESIAN_POINT('',(-1.445,-0.175,-2.5));
#845 = VERTEX_POINT('',#844);
#846 = DIRECTION('',(-0.3481553119113954,0.3481553119113957,-0.8703882797784894));
#847 = VECTOR('',#846,1.);
#848 = LINE('',#784,#847);
#849 = EDGE_CURVE('',#785,#843,#848,.T.);
#850 = ORIENTED_EDGE('',*,*,#849,.F.);
#851 = ORIENTED_EDGE('',*,*,#799,.T.);
#852 = DIRECTION('',(-0.3481553119113954,-0.3481553119113957,0.8703882797784894));
#853 = VECTOR('',#852,1.);
#854 = LINE('',#844,#853);
#855 = EDGE_CURVE('',#845,#783,#854,.T.);
#856 = ORIENTED_EDGE('',*,*,#855,.F.);
#857 = DIRECTION('',(-1.,0.,0.));
#858 = VECTOR('',#857,1.);
#859 = LINE('',#842,#858);
#860 = EDGE_CURVE('',#843,#845,#859,.T.);
#861 = ORIENTED_EDGE('',*,*,#860,.F.);
#862 = CARTESIAN_POINT('',(-1.095,-0.175,-2.5));
#863 = DIRECTION('',(0.,-0.9284766908852593,-0.37139067635410344));
#864 = DIRECTION('',(0.3481553119113954,-0.3481553119113957,0.8703882797784894));
#865 = AXIS2_PLACEMENT_3D('',#862,#863,#864);
#866 = PLANE('',#865);
#867 = EDGE_LOOP('',(#850,#851,#856,#861));
#868 = FACE_OUTER_BOUND('',#867,.T.);
#869 = ADVANCED_FACE('',(#868),#866,.T.);
#870 = CARTESIAN_POINT('',(-1.585,0.315,0.5500000000000003));
#871 = VERTEX_POINT('',#870);
#872 = CARTESIAN_POINT('',(-1.585,0.315,-2.15));
#873 = VERTEX_POINT('',#872);
#874 = DIRECTION('',(-1.,0.,0.));
#875 = VECTOR('',#874,1.);
#876 = LINE('',#816,#875);
#877 = EDGE_CURVE('',#817,#871,#876,.T.);
#878 = ORIENTED_EDGE('',*,*,#877,.F.);
#879 = ORIENTED_EDGE('',*,*,#827,.F.);
#880 = DIRECTION('',(-1.,0.,0.));
#881 = VECTOR('',#880,1.);
#882 = LINE('',#814,#881);
#883 = EDGE_CURVE('',#815,#873,#882,.T.);
#884 = ORIENTED_EDGE('',*,*,#883,.T.);
#885 = DIRECTION('',(0.,0.,1.));
#886 = VECTOR('',#885,1.);
#887 = LINE('',#872,#886);
#888 = EDGE_CURVE('',#873,#871,#887,.T.);
#889 = ORIENTED_EDGE('',*,*,#888,.T.);
#890 = CARTESIAN_POINT('',(-1.585,0.315,0.5500000000000003));
#891 = DIRECTION('',(0.,1.,0.));
#892 = DIRECTION('',(1.,0.,0.));
#893 = AXIS2_PLACEMENT_3D('',#890,#891,#892);
#894 = PLANE('',#893);
#895 = EDGE_LOOP('',(#878,#879,#884,#889));
#896 = FACE_OUTER_BOUND('',#895,.T.);
#897 = ADVANCED_FACE('',(#896),#894,.T.);
#898 = ORIENTED_EDGE('',*,*,#888,.F.);
#899 = DIRECTION('',(0.,1.,0.));
#900 = VECTOR('',#899,1.);
#901 = LINE('',#782,#900);
#902 = EDGE_CURVE('',#783,#873,#901,.T.);
#903 = ORIENTED_EDGE('',*,*,#902,.F.);
#904 = ORIENTED_EDGE('',*,*,#794,.T.);
#905 = DIRECTION('',(0.,1.,0.));
#906 = VECTOR('',#905,1.);
#907 = LINE('',#780,#906);
#908 = EDGE_CURVE('',#781,#871,#907,.T.);
#909 = ORIENTED_EDGE('',*,*,#908,.T.);
#910 = CARTESIAN_POINT('',(-1.585,0.315,0.5500000000000003));
#911 = DIRECTION('',(-1.,0.,0.));
#912 = DIRECTION('',(0.,0.,-1.));
#913 = AXIS2_PLACEMENT_3D('',#910,#911,#912);
#914 = PLANE('',#913);
#915 = EDGE_LOOP('',(#898,#903,#904,#909));
#916 = FACE_OUTER_BOUND('',#915,.T.);
#917 = ADVANCED_FACE('',(#916),#914,.T.);
#918 = ORIENTED_EDGE('',*,*,#908,.F.);
#919 = ORIENTED_EDGE('',*,*,#789,.F.);
#920 = ORIENTED_EDGE('',*,*,#832,.T.);
#921 = ORIENTED_EDGE('',*,*,#877,.T.);
#922 = CARTESIAN_POINT('',(-1.585,0.315,0.5500000000000003));
#923 = DIRECTION('',(0.,0.,1.));
#924 = DIRECTION('',(0.,-1.,0.));
#925 = AXIS2_PLACEMENT_3D('',#922,#923,#924);
#926 = PLANE('',#925);
#927 = EDGE_LOOP('',(#918,#919,#920,#921));
#928 = FACE_OUTER_BOUND('',#927,.T.);
#929 = ADVANCED_FACE('',(#928),#926,.T.);
#930 = CARTESIAN_POINT('',(-1.095,0.175,-2.5));
#931 = VERTEX_POINT('',#930);
#932 = DIRECTION('',(-0.3481553119113954,-0.3481553119113957,-0.8703882797784894));
#933 = VECTOR('',#932,1.);
#934 = LINE('',#814,#933);
#935 = EDGE_CURVE('',#815,#931,#934,.T.);
#936 = ORIENTED_EDGE('',*,*,#935,.F.);
#937 = ORIENTED_EDGE('',*,*,#822,.F.);
#938 = ORIENTED_EDGE('',*,*,#849,.T.);
#939 = DIRECTION('',(0.,1.,0.));
#940 = VECTOR('',#939,1.);
#941 = LINE('',#842,#940);
#942 = EDGE_CURVE('',#843,#931,#941,.T.);
#943 = ORIENTED_EDGE('',*,*,#942,.T.);
#944 = CARTESIAN_POINT('',(-1.095,0.175,-2.5));
#945 = DIRECTION('',(0.9284766908852596,0.,-0.37139067635410317));
#946 = DIRECTION('',(0.3481553119113954,0.3481553119113957,0.8703882797784894));
#947 = AXIS2_PLACEMENT_3D('',#944,#945,#946);
#948 = PLANE('',#947);
#949 = EDGE_LOOP('',(#936,#937,#938,#943));
#950 = FACE_OUTER_BOUND('',#949,.T.);
#951 = ADVANCED_FACE('',(#950),#948,.T.);
#952 = CARTESIAN_POINT('',(-1.445,0.175,-2.5));
#953 = VERTEX_POINT('',#952);
#954 = DIRECTION('',(-0.3481553119113954,0.3481553119113957,0.8703882797784894));
#955 = VECTOR('',#954,1.);
#956 = LINE('',#952,#955);
#957 = EDGE_CURVE('',#953,#873,#956,.T.);
#958 = ORIENTED_EDGE('',*,*,#957,.T.);
#959 = ORIENTED_EDGE('',*,*,#883,.F.);
#960 = ORIENTED_EDGE('',*,*,#935,.T.);
#961 = DIRECTION('',(-1.,0.,0.));
#962 = VECTOR('',#961,1.);
#963 = LINE('',#930,#962);
#964 = EDGE_CURVE('',#931,#953,#963,.T.);
#965 = ORIENTED_EDGE('',*,*,#964,.T.);
#966 = CARTESIAN_POINT('',(-1.445,0.175,-2.5));
#967 = DIRECTION('',(0.,0.9284766908852593,-0.37139067635410344));
#968 = DIRECTION('',(-0.3481553119113954,0.3481553119113957,0.8703882797784894));
#969 = AXIS2_PLACEMENT_3D('',#966,#967,#968);
#970 = PLANE('',#969);
#971 = EDGE_LOOP('',(#958,#959,#960,#965));
#972 = FACE_OUTER_BOUND('',#971,.T.);
#973 = ADVANCED_FACE('',(#972),#970,.T.);
#974 = ORIENTED_EDGE('',*,*,#964,.F.);
#975 = ORIENTED_EDGE('',*,*,#942,.F.);
#976 = ORIENTED_EDGE('',*,*,#860,.T.);
#977 = DIRECTION('',(0.,1.,0.));
#978 = VECTOR('',#977,1.);
#979 = LINE('',#844,#978);
#980 = EDGE_CURVE('',#845,#953,#979,.T.);
#981 = ORIENTED_EDGE('',*,*,#980,.T.);
#982 = CARTESIAN_POINT('',(-1.445,0.175,-2.5));
#983 = DIRECTION('',(0.,0.,-1.));
#984 = DIRECTION('',(1.,0.,0.));
#985 = AXIS2_PLACEMENT_3D('',#982,#983,#984);
#986 = PLANE('',#985);
#987 = EDGE_LOOP('',(#974,#975,#976,#981));
#988 = FACE_OUTER_BOUND('',#987,.T.);
#989 = ADVANCED_FACE('',(#988),#986,.T.);
#990 = ORIENTED_EDGE('',*,*,#980,.F.);
#991 = ORIENTED_EDGE('',*,*,#855,.T.);
#992 = ORIENTED_EDGE('',*,*,#902,.T.);
#993 = ORIENTED_EDGE('',*,*,#957,.F.);
#994 = CARTESIAN_POINT('',(-1.445,0.175,-2.5));
#995 = DIRECTION('',(-0.9284766908852596,0.,-0.3713906763541033));
#996 = DIRECTION('',(0.,-1.,0.));
#997 = AXIS2_PLACEMENT_3D('',#994,#995,#996);
#998 = PLANE('',#997);
#999 = EDGE_LOOP('',(#990,#991,#992,#993));
#1000 = FACE_OUTER_BOUND('',#999,.T.);
#1001 = ADVANCED_FACE('',(#1000),#998,.T.);
#1002 = CLOSED_SHELL('',(#813,#841,#869,#897,#917,#929,#951,#973,#989,#1001));
#1003 = MANIFOLD_SOLID_BREP('',#1002);
#1004 = COLOUR_RGB('',0.7529411764705882,0.7529411764705882,0.7529411764705882);
#1005 = FILL_AREA_STYLE_COLOUR('',#1004);
#1006 = FILL_AREA_STYLE('',(#1005));
#1007 = SURFACE_STYLE_FILL_AREA(#1006);
#1008 = SURFACE_SIDE_STYLE('',(#1007));
#1009 = SURFACE_STYLE_USAGE(.BOTH.,#1008);
#1010 = PRESENTATION_STYLE_ASSIGNMENT((#1009));
#1011 = STYLED_ITEM('',(#1010),#1003);
#1012 = CARTESIAN_POINT('',(-0.9550000000000001,-0.315,2.));
#1013 = VERTEX_POINT('',#1012);
#1014 = CARTESIAN_POINT('',(-0.9550000000000001,-0.315,7.4));
#1015 = VERTEX_POINT('',#1014);
#1016 = CARTESIAN_POINT('',(-1.585,-0.315,7.4));
#1017 = VERTEX_POINT('',#1016);
#1018 = CARTESIAN_POINT('',(-1.585,-0.315,2.));
#1019 = VERTEX_POINT('',#1018);
#1020 = DIRECTION('',(0.,0.,1.));
#1021 = VECTOR('',#1020,1.);
#1022 = LINE('',#1012,#1021);
#1023 = EDGE_CURVE('',#1013,#1015,#1022,.T.);
#1024 = ORIENTED_EDGE('',*,*,#1023,.T.);
#1025 = DIRECTION('',(-1.,0.,0.));
#1026 = VECTOR('',#1025,1.);
#1027 = LINE('',#1014,#1026);
#1028 = EDGE_CURVE('',#1015,#1017,#1027,.T.);
#1029 = ORIENTED_EDGE('',*,*,#1028,.T.);
#1030 = DIRECTION('',(0.,0.,1.));
#1031 = VECTOR('',#1030,1.);
#1032 = LINE('',#1018,#1031);
#1033 = EDGE_CURVE('',#1019,#1017,#1032,.T.);
#1034 = ORIENTED_EDGE('',*,*,#1033,.F.);
#1035 = DIRECTION('',(-1.,0.,0.));
#1036 = VECTOR('',#1035,1.);
#1037 = LINE('',#1012,#1036);
#1038 = EDGE_CURVE('',#1013,#1019,#1037,.T.);
#1039 = ORIENTED_EDGE('',*,*,#1038,.F.);
#1040 = CARTESIAN_POINT('',(-0.9550000000000001,-0.315,2.));
#1041 = DIRECTION('',(0.,-1.,0.));
#1042 = DIRECTION('',(0.,0.,1.));
#1043 = AXIS2_PLACEMENT_3D('',#1040,#1041,#1042);
#1044 = PLANE('',#1043);
#1045 = EDGE_LOOP('',(#1024,#1029,#1034,#1039));
#1046 = FACE_OUTER_BOUND('',#1045,.T.);
#1047 = ADVANCED_FACE('',(#1046),#1044,.T.);
#1048 = CARTESIAN_POINT('',(-0.9550000000000001,0.315,7.4));
#1049 = VERTEX_POINT('',#1048);
#1050 = CARTESIAN_POINT('',(-0.9550000000000001,0.315,2.));
#1051 = VERTEX_POINT('',#1050);
#1052 = DIRECTION('',(0.,1.,0.));
#1053 = VECTOR('',#1052,1.);
#1054 = LINE('',#1014,#1053);
#1055 = EDGE_CURVE('',#1015,#1049,#1054,.T.);
#1056 = ORIENTED_EDGE('',*,*,#1055,.F.);
#1057 = ORIENTED_EDGE('',*,*,#1023,.F.);
#1058 = DIRECTION('',(0.,1.,0.));
#1059 = VECTOR('',#1058,1.);
#1060 = LINE('',#1012,#1059);
#1061 = EDGE_CURVE('',#1013,#1051,#1060,.T.);
#1062 = ORIENTED_EDGE('',*,*,#1061,.T.);
#1063 = DIRECTION('',(0.,0.,1.));
#1064 = VECTOR('',#1063,1.);
#1065 = LINE('',#1050,#1064);
#1066 = EDGE_CURVE('',#1051,#1049,#1065,.T.);
#1067 = ORIENTED_EDGE('',*,*,#1066,.T.);
#1068 = CARTESIAN_POINT('',(-0.9550000000000001,0.315,7.4));
#1069 = DIRECTION('',(1.,0.,0.));
#1070 = DIRECTION('',(0.,-1.,0.));
#1071 = AXIS2_PLACEMENT_3D('',#1068,#1069,#1070);
#1072 = PLANE('',#1071);
#1073 = EDGE_LOOP('',(#1056,#1057,#1062,#1067));
#1074 = FACE_OUTER_BOUND('',#1073,.T.);
#1075 = ADVANCED_FACE('',(#1074),#1072,.T.);
#1076 = CARTESIAN_POINT('',(-1.585,0.315,2.));
#1077 = VERTEX_POINT('',#1076);
#1078 = DIRECTION('',(-1.,0.,0.));
#1079 = VECTOR('',#1078,1.);
#1080 = LINE('',#1050,#1079);
#1081 = EDGE_CURVE('',#1051,#1077,#1080,.T.);
#1082 = ORIENTED_EDGE('',*,*,#1081,.F.);
#1083 = ORIENTED_EDGE('',*,*,#1061,.F.);
#1084 = ORIENTED_EDGE('',*,*,#1038,.T.);
#1085 = DIRECTION('',(0.,1.,0.));
#1086 = VECTOR('',#1085,1.);
#1087 = LINE('',#1018,#1086);
#1088 = EDGE_CURVE('',#1019,#1077,#1087,.T.);
#1089 = ORIENTED_EDGE('',*,*,#1088,.T.);
#1090 = CARTESIAN_POINT('',(-1.585,0.315,2.));
#1091 = DIRECTION('',(0.,0.,-1.));
#1092 = DIRECTION('',(1.,0.,0.));
#1093 = AXIS2_PLACEMENT_3D('',#1090,#1091,#1092);
#1094 = PLANE('',#1093);
#1095 = EDGE_LOOP('',(#1082,#1083,#1084,#1089));
#1096 = FACE_OUTER_BOUND('',#1095,.T.);
#1097 = ADVANCED_FACE('',(#1096),#1094,.T.);
#1098 = CARTESIAN_POINT('',(-1.095,-0.175,8.));
#1099 = VERTEX_POINT('',#1098);
#1100 = CARTESIAN_POINT('',(-1.095,0.175,8.));
#1101 = VERTEX_POINT('',#1100);
#1102 = DIRECTION('',(-0.2215811282415214,0.22158112824152157,0.9496334067493776));
#1103 = VECTOR('',#1102,1.);
#1104 = LINE('',#1014,#1103);
#1105 = EDGE_CURVE('',#1015,#1099,#1104,.T.);
#1106 = ORIENTED_EDGE('',*,*,#1105,.F.);
#1107 = ORIENTED_EDGE('',*,*,#1055,.T.);
#1108 = DIRECTION('',(-0.2215811282415214,-0.22158112824152157,0.9496334067493776));
#1109 = VECTOR('',#1108,1.);
#1110 = LINE('',#1048,#1109);
#1111 = EDGE_CURVE('',#1049,#1101,#1110,.T.);
#1112 = ORIENTED_EDGE('',*,*,#1111,.T.);
#1113 = DIRECTION('',(0.,1.,0.));
#1114 = VECTOR('',#1113,1.);
#1115 = LINE('',#1098,#1114);
#1116 = EDGE_CURVE('',#1099,#1101,#1115,.T.);
#1117 = ORIENTED_EDGE('',*,*,#1116,.F.);
#1118 = CARTESIAN_POINT('',(-1.095,-0.175,8.));
#1119 = DIRECTION('',(0.9738412097417933,0.,0.22722961560641794));
#1120 = DIRECTION('',(0.2215811282415214,-0.22158112824152157,-0.9496334067493776));
#1121 = AXIS2_PLACEMENT_3D('',#1118,#1119,#1120);
#1122 = PLANE('',#1121);
#1123 = EDGE_LOOP('',(#1106,#1107,#1112,#1117));
#1124 = FACE_OUTER_BOUND('',#1123,.T.);
#1125 = ADVANCED_FACE('',(#1124),#1122,.T.);
#1126 = CARTESIAN_POINT('',(-1.445,-0.175,8.));
#1127 = VERTEX_POINT('',#1126);
#1128 = DIRECTION('',(-1.,0.,0.));
#1129 = VECTOR('',#1128,1.);
#1130 = LINE('',#1098,#1129);
#1131 = EDGE_CURVE('',#1099,#1127,#1130,.T.);
#1132 = ORIENTED_EDGE('',*,*,#1131,.T.);
#1133 = DIRECTION('',(-0.2215811282415214,-0.22158112824152157,-0.9496334067493776));
#1134 = VECTOR('',#1133,1.);
#1135 = LINE('',#1126,#1134);
#1136 = EDGE_CURVE('',#1127,#1017,#1135,.T.);
#1137 = ORIENTED_EDGE('',*,*,#1136,.T.);
#1138 = ORIENTED_EDGE('',*,*,#1028,.F.);
#1139 = ORIENTED_EDGE('',*,*,#1105,.T.);
#1140 = CARTESIAN_POINT('',(-1.095,-0.175,8.));
#1141 = DIRECTION('',(0.,-0.9738412097417931,0.22722961560641836));
#1142 = DIRECTION('',(-1.,0.,0.));
#1143 = AXIS2_PLACEMENT_3D('',#1140,#1141,#1142);
#1144 = PLANE('',#1143);
#1145 = EDGE_LOOP('',(#1132,#1137,#1138,#1139));
#1146 = FACE_OUTER_BOUND('',#1145,.T.);
#1147 = ADVANCED_FACE('',(#1146),#1144,.T.);
#1148 = CARTESIAN_POINT('',(-1.585,0.315,7.4));
#1149 = VERTEX_POINT('',#1148);
#1150 = DIRECTION('',(0.,0.,1.));
#1151 = VECTOR('',#1150,1.);
#1152 = LINE('',#1076,#1151);
#1153 = EDGE_CURVE('',#1077,#1149,#1152,.T.);
#1154 = ORIENTED_EDGE('',*,*,#1153,.F.);
#1155 = ORIENTED_EDGE('',*,*,#1088,.F.);
#1156 = ORIENTED_EDGE('',*,*,#1033,.T.);
#1157 = DIRECTION('',(0.,1.,0.));
#1158 = VECTOR('',#1157,1.);
#1159 = LINE('',#1016,#1158);
#1160 = EDGE_CURVE('',#1017,#1149,#1159,.T.);
#1161 = ORIENTED_EDGE('',*,*,#1160,.T.);
#1162 = CARTESIAN_POINT('',(-1.585,0.315,7.4));
#1163 = DIRECTION('',(-1.,0.,0.));
#1164 = DIRECTION('',(0.,0.,-1.));
#1165 = AXIS2_PLACEMENT_3D('',#1162,#1163,#1164);
#1166 = PLANE('',#1165);
#1167 = EDGE_LOOP('',(#1154,#1155,#1156,#1161));
#1168 = FACE_OUTER_BOUND('',#1167,.T.);
#1169 = ADVANCED_FACE('',(#1168),#1166,.T.);
#1170 = DIRECTION('',(-1.,0.,0.));
#1171 = VECTOR('',#1170,1.);
#1172 = LINE('',#1048,#1171);
#1173 = EDGE_CURVE('',#1049,#1149,#1172,.T.);
#1174 = ORIENTED_EDGE('',*,*,#1173,.F.);
#1175 = ORIENTED_EDGE('',*,*,#1066,.F.);
#1176 = ORIENTED_EDGE('',*,*,#1081,.T.);
#1177 = ORIENTED_EDGE('',*,*,#1153,.T.);
#1178 = CARTESIAN_POINT('',(-1.585,0.315,7.4));
#1179 = DIRECTION('',(0.,1.,0.));
#1180 = DIRECTION('',(1.,0.,0.));
#1181 = AXIS2_PLACEMENT_3D('',#1178,#1179,#1180);
#1182 = PLANE('',#1181);
#1183 = EDGE_LOOP('',(#1174,#1175,#1176,#1177));
#1184 = FACE_OUTER_BOUND('',#1183,.T.);
#1185 = ADVANCED_FACE('',(#1184),#1182,.T.);
#1186 = CARTESIAN_POINT('',(-1.445,0.175,8.));
#1187 = VERTEX_POINT('',#1186);
#1188 = DIRECTION('',(-1.,0.,0.));
#1189 = VECTOR('',#1188,1.);
#1190 = LINE('',#1100,#1189);
#1191 = EDGE_CURVE('',#1101,#1187,#1190,.T.);
#1192 = ORIENTED_EDGE('',*,*,#1191,.F.);
#1193 = ORIENTED_EDGE('',*,*,#1111,.F.);
#1194 = ORIENTED_EDGE('',*,*,#1173,.T.);
#1195 = DIRECTION('',(-0.2215811282415214,0.22158112824152157,-0.9496334067493776));
#1196 = VECTOR('',#1195,1.);
#1197 = LINE('',#1186,#1196);
#1198 = EDGE_CURVE('',#1187,#1149,#1197,.T.);
#1199 = ORIENTED_EDGE('',*,*,#1198,.F.);
#1200 = CARTESIAN_POINT('',(-1.445,0.175,8.));
#1201 = DIRECTION('',(0.,0.9738412097417931,0.22722961560641836));
#1202 = DIRECTION('',(1.,0.,0.));
#1203 = AXIS2_PLACEMENT_3D('',#1200,#1201,#1202);
#1204 = PLANE('',#1203);
#1205 = EDGE_LOOP('',(#1192,#1193,#1194,#1199));
#1206 = FACE_OUTER_BOUND('',#1205,.T.);
#1207 = ADVANCED_FACE('',(#1206),#1204,.T.);
#1208 = ORIENTED_EDGE('',*,*,#1198,.T.);
#1209 = ORIENTED_EDGE('',*,*,#1160,.F.);
#1210 = ORIENTED_EDGE('',*,*,#1136,.F.);
#1211 = DIRECTION('',(0.,1.,0.));
#1212 = VECTOR('',#1211,1.);
#1213 = LINE('',#1126,#1212);
#1214 = EDGE_CURVE('',#1127,#1187,#1213,.T.);
#1215 = ORIENTED_EDGE('',*,*,#1214,.T.);
#1216 = CARTESIAN_POINT('',(-1.445,0.175,8.));
#1217 = DIRECTION('',(-0.9738412097417933,0.,0.22722961560641794));
#1218 = DIRECTION('',(-0.2215811282415214,0.22158112824152157,-0.9496334067493776));
#1219 = AXIS2_PLACEMENT_3D('',#1216,#1217,#1218);
#1220 = PLANE('',#1219);
#1221 = EDGE_LOOP('',(#1208,#1209,#1210,#1215));
#1222 = FACE_OUTER_BOUND('',#1221,.T.);
#1223 = ADVANCED_FACE('',(#1222),#1220,.T.);
#1224 = ORIENTED_EDGE('',*,*,#1214,.F.);
#1225 = ORIENTED_EDGE('',*,*,#1131,.F.);
#1226 = ORIENTED_EDGE('',*,*,#1116,.T.);
#1227 = ORIENTED_EDGE('',*,*,#1191,.T.);
#1228 = CARTESIAN_POINT('',(-1.445,0.175,8.));
#1229 = DIRECTION('',(0.,0.,1.));
#1230 = DIRECTION('',(0.,-1.,0.));
#1231 = AXIS2_PLACEMENT_3D('',#1228,#1229,#1230);
#1232 = PLANE('',#1231);
#1233 = EDGE_LOOP('',(#1224,#1225,#1226,#1227));
#1234 = FACE_OUTER_BOUND('',#1233,.T.);
#1235 = ADVANCED_FACE('',(#1234),#1232,.T.);
#1236 = CLOSED_SHELL('',(#1047,#1075,#1097,#1125,#1147,#1169,#1185,#1207,#1223,#1235));
#1237 = MANIFOLD_SOLID_BREP('',#1236);
#1238 = COLOUR_RGB('',0.7529411764705882,0.7529411764705882,0.7529411764705882);
#1239 = FILL_AREA_STYLE_COLOUR('',#1238);
#1240 = FILL_AREA_STYLE('',(#1239));
#1241 = SURFACE_STYLE_FILL_AREA(#1240);
#1242 = SURFACE_SIDE_STYLE('',(#1241));
#1243 = SURFACE_STYLE_USAGE(.BOTH.,#1242);
#1244 = PRESENTATION_STYLE_ASSIGNMENT((#1243));
#1245 = STYLED_ITEM('',(#1244),#1237);
#1246 = CARTESIAN_POINT('',(0.,-1.27,0.));
#1247 = VERTEX_POINT('',#1246);
#1248 = CARTESIAN_POINT('',(0.,-1.27,2.));
#1249 = VERTEX_POINT('',#1248);
#1250 = CARTESIAN_POINT('',(0.,1.27,2.));
#1251 = VERTEX_POINT('',#1250);
#1252 = CARTESIAN_POINT('',(0.,1.27,0.));
#1253 = VERTEX_POINT('',#1252);
#1254 = DIRECTION('',(0.,0.,1.));
#1255 = VECTOR('',#1254,1.);
#1256 = LINE('',#1246,#1255);
#1257 = EDGE_CURVE('',#1247,#1249,#1256,.T.);
#1258 = ORIENTED_EDGE('',*,*,#1257,.T.);
#1259 = DIRECTION('',(0.,1.,0.));
#1260 = VECTOR('',#1259,1.);
#1261 = LINE('',#1248,#1260);
#1262 = EDGE_CURVE('',#1249,#1251,#1261,.T.);
#1263 = ORIENTED_EDGE('',*,*,#1262,.T.);
#1264 = DIRECTION('',(0.,0.,1.));
#1265 = VECTOR('',#1264,1.);
#1266 = LINE('',#1252,#1265);
#1267 = EDGE_CURVE('',#1253,#1251,#1266,.T.);
#1268 = ORIENTED_EDGE('',*,*,#1267,.F.);
#1269 = DIRECTION('',(0.,1.,0.));
#1270 = VECTOR('',#1269,1.);
#1271 = LINE('',#1246,#1270);
#1272 = EDGE_CURVE('',#1247,#1253,#1271,.T.);
#1273 = ORIENTED_EDGE('',*,*,#1272,.F.);
#1274 = CARTESIAN_POINT('',(0.,-1.27,0.));
#1275 = DIRECTION('',(-1.,0.,0.));
#1276 = DIRECTION('',(0.,0.,1.));
#1277 = AXIS2_PLACEMENT_3D('',#1274,#1275,#1276);
#1278 = PLANE('',#1277);
#1279 = EDGE_LOOP('',(#1258,#1263,#1268,#1273));
#1280 = FACE_OUTER_BOUND('',#1279,.T.);
#1281 = ADVANCED_FACE('',(#1280),#1278,.T.);
#1282 = CARTESIAN_POINT('',(2.54,-1.27,0.));
#1283 = VERTEX_POINT('',#1282);
#1284 = CARTESIAN_POINT('',(2.54,1.27,0.));
#1285 = VERTEX_POINT('',#1284);
#1286 = CARTESIAN_POINT('',(2.54,1.27,2.));
#1287 = VERTEX_POINT('',#1286);
#1288 = CARTESIAN_POINT('',(2.54,-1.27,2.));
#1289 = VERTEX_POINT('',#1288);
#1290 = DIRECTION('',(0.,1.,0.));
#1291 = VECTOR('',#1290,1.);
#1292 = LINE('',#1282,#1291);
#1293 = EDGE_CURVE('',#1283,#1285,#1292,.T.);
#1294 = ORIENTED_EDGE('',*,*,#1293,.T.);
#1295 = DIRECTION('',(0.,0.,1.));
#1296 = VECTOR('',#1295,1.);
#1297 = LINE('',#1284,#1296);
#1298 = EDGE_CURVE('',#1285,#1287,#1297,.T.);
#1299 = ORIENTED_EDGE('',*,*,#1298,.T.);
#1300 = DIRECTION('',(0.,1.,0.));
#1301 = VECTOR('',#1300,1.);
#1302 = LINE('',#1288,#1301);
#1303 = EDGE_CURVE('',#1289,#1287,#1302,.T.);
#1304 = ORIENTED_EDGE('',*,*,#1303,.F.);
#1305 = DIRECTION('',(0.,0.,1.));
#1306 = VECTOR('',#1305,1.);
#1307 = LINE('',#1282,#1306);
#1308 = EDGE_CURVE('',#1283,#1289,#1307,.T.);
#1309 = ORIENTED_EDGE('',*,*,#1308,.F.);
#1310 = CARTESIAN_POINT('',(2.54,-1.27,0.));
#1311 = DIRECTION('',(1.,0.,0.));
#1312 = DIRECTION('',(0.,1.,0.));
#1313 = AXIS2_PLACEMENT_3D('',#1310,#1311,#1312);
#1314 = PLANE('',#1313);
#1315 = EDGE_LOOP('',(#1294,#1299,#1304,#1309));
#1316 = FACE_OUTER_BOUND('',#1315,.T.);
#1317 = ADVANCED_FACE('',(#1316),#1314,.T.);
#1318 = DIRECTION('',(1.,0.,0.));
#1319 = VECTOR('',#1318,1.);
#1320 = LINE('',#1246,#1319);
#1321 = EDGE_CURVE('',#1247,#1283,#1320,.T.);
#1322 = ORIENTED_EDGE('',*,*,#1321,.T.);
#1323 = ORIENTED_EDGE('',*,*,#1308,.T.);
#1324 = DIRECTION('',(1.,0.,0.));
#1325 = VECTOR('',#1324,1.);
#1326 = LINE('',#1248,#1325);
#1327 = EDGE_CURVE('',#1249,#1289,#1326,.T.);
#1328 = ORIENTED_EDGE('',*,*,#1327,.F.);
#1329 = ORIENTED_EDGE('',*,*,#1257,.F.);
#1330 = CARTESIAN_POINT('',(0.,-1.27,0.));
#1331 = DIRECTION('',(0.,-1.,0.));
#1332 = DIRECTION('',(1.,0.,0.));
#1333 = AXIS2_PLACEMENT_3D('',#1330,#1331,#1332);
#1334 = PLANE('',#1333);
#1335 = EDGE_LOOP('',(#1322,#1323,#1328,#1329));
#1336 = FACE_OUTER_BOUND('',#1335,.T.);
#1337 = ADVANCED_FACE('',(#1336),#1334,.T.);
#1338 = ORIENTED_EDGE('',*,*,#1267,.T.);
#1339 = DIRECTION('',(1.,0.,0.));
#1340 = VECTOR('',#1339,1.);
#1341 = LINE('',#1250,#1340);
#1342 = EDGE_CURVE('',#1251,#1287,#1341,.T.);
#1343 = ORIENTED_EDGE('',*,*,#1342,.T.);
#1344 = ORIENTED_EDGE('',*,*,#1298,.F.);
#1345 = DIRECTION('',(1.,0.,0.));
#1346 = VECTOR('',#1345,1.);
#1347 = LINE('',#1252,#1346);
#1348 = EDGE_CURVE('',#1253,#1285,#1347,.T.);
#1349 = ORIENTED_EDGE('',*,*,#1348,.F.);
#1350 = CARTESIAN_POINT('',(0.,1.27,0.));
#1351 = DIRECTION('',(0.,1.,0.));
#1352 = DIRECTION('',(0.,0.,1.));
#1353 = AXIS2_PLACEMENT_3D('',#1350,#1351,#1352);
#1354 = PLANE('',#1353);
#1355 = EDGE_LOOP('',(#1338,#1343,#1344,#1349));
#1356 = FACE_OUTER_BOUND('',#1355,.T.);
#1357 = ADVANCED_FACE('',(#1356),#1354,.T.);
#1358 = ORIENTED_EDGE('',*,*,#1272,.T.);
#1359 = ORIENTED_EDGE('',*,*,#1348,.T.);
#1360 = ORIENTED_EDGE('',*,*,#1293,.F.);
#1361 = ORIENTED_EDGE('',*,*,#1321,.F.);
#1362 = CARTESIAN_POINT('',(0.,-1.27,0.));
#1363 = DIRECTION('',(0.,0.,-1.));
#1364 = DIRECTION('',(0.,1.,0.));
#1365 = AXIS2_PLACEMENT_3D('',#1362,#1363,#1364);
#1366 = PLANE('',#1365);
#1367 = EDGE_LOOP('',(#1358,#1359,#1360,#1361));
#1368 = FACE_OUTER_BOUND('',#1367,.T.);
#1369 = ADVANCED_FACE('',(#1368),#1366,.T.);
#1370 = ORIENTED_EDGE('',*,*,#1327,.T.);
#1371 = ORIENTED_EDGE('',*,*,#1303,.T.);
#1372 = ORIENTED_EDGE('',*,*,#1342,.F.);
#1373 = ORIENTED_EDGE('',*,*,#1262,.F.);
#1374 = CARTESIAN_POINT('',(0.,-1.27,2.));
#1375 = DIRECTION('',(0.,0.,1.));
#1376 = DIRECTION('',(1.,0.,0.));
#1377 = AXIS2_PLACEMENT_3D('',#1374,#1375,#1376);
#1378 = PLANE('',#1377);
#1379 = EDGE_LOOP('',(#1370,#1371,#1372,#1373));
#1380 = FACE_OUTER_BOUND('',#1379,.T.);
#1381 = ADVANCED_FACE('',(#1380),#1378,.T.);
#1382 = CLOSED_SHELL('',(#1281,#1317,#1337,#1357,#1369,#1381));
#1383 = MANIFOLD_SOLID_BREP('',#1382);
#1384 = COLOUR_RGB('',0.13333333333333333,0.13333333333333333,0.13333333333333333);
#1385 = FILL_AREA_STYLE_COLOUR('',#1384);
#1386 = FILL_AREA_STYLE('',(#1385));
#1387 = SURFACE_STYLE_FILL_AREA(#1386);
#1388 = SURFACE_SIDE_STYLE('',(#1387));
#1389 = SURFACE_STYLE_USAGE(.BOTH.,#1388);
#1390 = PRESENTATION_STYLE_ASSIGNMENT((#1389));
#1391 = STYLED_ITEM('',(#1390),#1383);
#1392 = CARTESIAN_POINT('',(1.585,-0.315,0.5500000000000003));
#1393 = VERTEX_POINT('',#1392);
#1394 = CARTESIAN_POINT('',(0.9550000000000001,-0.315,0.5500000000000003));
#1395 = VERTEX_POINT('',#1394);
#1396 = CARTESIAN_POINT('',(0.9550000000000001,-0.315,-2.15));
#1397 = VERTEX_POINT('',#1396);
#1398 = CARTESIAN_POINT('',(1.585,-0.315,-2.15));
#1399 = VERTEX_POINT('',#1398);
#1400 = DIRECTION('',(1.,0.,0.));
#1401 = VECTOR('',#1400,1.);
#1402 = LINE('',#1394,#1401);
#1403 = EDGE_CURVE('',#1395,#1393,#1402,.T.);
#1404 = ORIENTED_EDGE('',*,*,#1403,.F.);
#1405 = DIRECTION('',(0.,0.,1.));
#1406 = VECTOR('',#1405,1.);
#1407 = LINE('',#1396,#1406);
#1408 = EDGE_CURVE('',#1397,#1395,#1407,.T.);
#1409 = ORIENTED_EDGE('',*,*,#1408,.F.);
#1410 = DIRECTION('',(1.,0.,0.));
#1411 = VECTOR('',#1410,1.);
#1412 = LINE('',#1396,#1411);
#1413 = EDGE_CURVE('',#1397,#1399,#1412,.T.);
#1414 = ORIENTED_EDGE('',*,*,#1413,.T.);
#1415 = DIRECTION('',(0.,0.,1.));
#1416 = VECTOR('',#1415,1.);
#1417 = LINE('',#1398,#1416);
#1418 = EDGE_CURVE('',#1399,#1393,#1417,.T.);
#1419 = ORIENTED_EDGE('',*,*,#1418,.T.);
#1420 = CARTESIAN_POINT('',(1.585,-0.315,0.5500000000000003));
#1421 = DIRECTION('',(0.,-1.,0.));
#1422 = DIRECTION('',(-1.,0.,0.));
#1423 = AXIS2_PLACEMENT_3D('',#1420,#1421,#1422);
#1424 = PLANE('',#1423);
#1425 = EDGE_LOOP('',(#1404,#1409,#1414,#1419));
#1426 = FACE_OUTER_BOUND('',#1425,.T.);
#1427 = ADVANCED_FACE('',(#1426),#1424,.T.);
#1428 = CARTESIAN_POINT('',(1.585,0.315,-2.15));
#1429 = VERTEX_POINT('',#1428);
#1430 = CARTESIAN_POINT('',(1.585,0.315,0.5500000000000003));
#1431 = VERTEX_POINT('',#1430);
#1432 = ORIENTED_EDGE('',*,*,#1418,.F.);
#1433 = DIRECTION('',(0.,1.,0.));
#1434 = VECTOR('',#1433,1.);
#1435 = LINE('',#1398,#1434);
#1436 = EDGE_CURVE('',#1399,#1429,#1435,.T.);
#1437 = ORIENTED_EDGE('',*,*,#1436,.T.);
#1438 = DIRECTION('',(0.,0.,1.));
#1439 = VECTOR('',#1438,1.);
#1440 = LINE('',#1428,#1439);
#1441 = EDGE_CURVE('',#1429,#1431,#1440,.T.);
#1442 = ORIENTED_EDGE('',*,*,#1441,.T.);
#1443 = DIRECTION('',(0.,1.,0.));
#1444 = VECTOR('',#1443,1.);
#1445 = LINE('',#1392,#1444);
#1446 = EDGE_CURVE('',#1393,#1431,#1445,.T.);
#1447 = ORIENTED_EDGE('',*,*,#1446,.F.);
#1448 = CARTESIAN_POINT('',(1.585,-0.315,0.5500000000000003));
#1449 = DIRECTION('',(1.,0.,0.));
#1450 = DIRECTION('',(0.,0.,-1.));
#1451 = AXIS2_PLACEMENT_3D('',#1448,#1449,#1450);
#1452 = PLANE('',#1451);
#1453 = EDGE_LOOP('',(#1432,#1437,#1442,#1447));
#1454 = FACE_OUTER_BOUND('',#1453,.T.);
#1455 = ADVANCED_FACE('',(#1454),#1452,.T.);
#1456 = CARTESIAN_POINT('',(1.445,-0.175,-2.5));
#1457 = VERTEX_POINT('',#1456);
#1458 = CARTESIAN_POINT('',(1.095,-0.175,-2.5));
#1459 = VERTEX_POINT('',#1458);
#1460 = DIRECTION('',(0.3481553119113954,-0.3481553119113957,0.8703882797784894));
#1461 = VECTOR('',#1460,1.);
#1462 = LINE('',#1456,#1461);
#1463 = EDGE_CURVE('',#1457,#1399,#1462,.T.);
#1464 = ORIENTED_EDGE('',*,*,#1463,.T.);
#1465 = ORIENTED_EDGE('',*,*,#1413,.F.);
#1466 = DIRECTION('',(0.3481553119113954,0.3481553119113957,-0.8703882797784894));
#1467 = VECTOR('',#1466,1.);
#1468 = LINE('',#1396,#1467);
#1469 = EDGE_CURVE('',#1397,#1459,#1468,.T.);
#1470 = ORIENTED_EDGE('',*,*,#1469,.T.);
#1471 = DIRECTION('',(1.,0.,0.));
#1472 = VECTOR('',#1471,1.);
#1473 = LINE('',#1458,#1472);
#1474 = EDGE_CURVE('',#1459,#1457,#1473,.T.);
#1475 = ORIENTED_EDGE('',*,*,#1474,.T.);
#1476 = CARTESIAN_POINT('',(1.445,-0.175,-2.5));
#1477 = DIRECTION('',(0.,-0.9284766908852593,-0.37139067635410344));
#1478 = DIRECTION('',(0.3481553119113954,-0.3481553119113957,0.8703882797784894));
#1479 = AXIS2_PLACEMENT_3D('',#1476,#1477,#1478);
#1480 = PLANE('',#1479);
#1481 = EDGE_LOOP('',(#1464,#1465,#1470,#1475));
#1482 = FACE_OUTER_BOUND('',#1481,.T.);
#1483 = ADVANCED_FACE('',(#1482),#1480,.T.);
#1484 = CARTESIAN_POINT('',(0.9550000000000001,0.315,0.5500000000000003));
#1485 = VERTEX_POINT('',#1484);
#1486 = CARTESIAN_POINT('',(0.9550000000000001,0.315,-2.15));
#1487 = VERTEX_POINT('',#1486);
#1488 = DIRECTION('',(1.,0.,0.));
#1489 = VECTOR('',#1488,1.);
#1490 = LINE('',#1484,#1489);
#1491 = EDGE_CURVE('',#1485,#1431,#1490,.T.);
#1492 = ORIENTED_EDGE('',*,*,#1491,.T.);
#1493 = ORIENTED_EDGE('',*,*,#1441,.F.);
#1494 = DIRECTION('',(1.,0.,0.));
#1495 = VECTOR('',#1494,1.);
#1496 = LINE('',#1486,#1495);
#1497 = EDGE_CURVE('',#1487,#1429,#1496,.T.);
#1498 = ORIENTED_EDGE('',*,*,#1497,.F.);
#1499 = DIRECTION('',(0.,0.,1.));
#1500 = VECTOR('',#1499,1.);
#1501 = LINE('',#1486,#1500);
#1502 = EDGE_CURVE('',#1487,#1485,#1501,.T.);
#1503 = ORIENTED_EDGE('',*,*,#1502,.T.);
#1504 = CARTESIAN_POINT('',(0.9550000000000001,0.315,0.5500000000000003));
#1505 = DIRECTION('',(0.,1.,0.));
#1506 = DIRECTION('',(1.,0.,0.));
#1507 = AXIS2_PLACEMENT_3D('',#1504,#1505,#1506);
#1508 = PLANE('',#1507);
#1509 = EDGE_LOOP('',(#1492,#1493,#1498,#1503));
#1510 = FACE_OUTER_BOUND('',#1509,.T.);
#1511 = ADVANCED_FACE('',(#1510),#1508,.T.);
#1512 = ORIENTED_EDGE('',*,*,#1502,.F.);
#1513 = DIRECTION('',(0.,1.,0.));
#1514 = VECTOR('',#1513,1.);
#1515 = LINE('',#1396,#1514);
#1516 = EDGE_CURVE('',#1397,#1487,#1515,.T.);
#1517 = ORIENTED_EDGE('',*,*,#1516,.F.);
#1518 = ORIENTED_EDGE('',*,*,#1408,.T.);
#1519 = DIRECTION('',(0.,1.,0.));
#1520 = VECTOR('',#1519,1.);
#1521 = LINE('',#1394,#1520);
#1522 = EDGE_CURVE('',#1395,#1485,#1521,.T.);
#1523 = ORIENTED_EDGE('',*,*,#1522,.T.);
#1524 = CARTESIAN_POINT('',(0.9550000000000001,0.315,0.5500000000000003));
#1525 = DIRECTION('',(-1.,0.,0.));
#1526 = DIRECTION('',(0.,0.,-1.));
#1527 = AXIS2_PLACEMENT_3D('',#1524,#1525,#1526);
#1528 = PLANE('',#1527);
#1529 = EDGE_LOOP('',(#1512,#1517,#1518,#1523));
#1530 = FACE_OUTER_BOUND('',#1529,.T.);
#1531 = ADVANCED_FACE('',(#1530),#1528,.T.);
#1532 = ORIENTED_EDGE('',*,*,#1522,.F.);
#1533 = ORIENTED_EDGE('',*,*,#1403,.T.);
#1534 = ORIENTED_EDGE('',*,*,#1446,.T.);
#1535 = ORIENTED_EDGE('',*,*,#1491,.F.);
#1536 = CARTESIAN_POINT('',(0.9550000000000001,0.315,0.5500000000000003));
#1537 = DIRECTION('',(0.,0.,1.));
#1538 = DIRECTION('',(0.,-1.,0.));
#1539 = AXIS2_PLACEMENT_3D('',#1536,#1537,#1538);
#1540 = PLANE('',#1539);
#1541 = EDGE_LOOP('',(#1532,#1533,#1534,#1535));
#1542 = FACE_OUTER_BOUND('',#1541,.T.);
#1543 = ADVANCED_FACE('',(#1542),#1540,.T.);
#1544 = CARTESIAN_POINT('',(1.445,0.175,-2.5));
#1545 = VERTEX_POINT('',#1544);
#1546 = DIRECTION('',(0.3481553119113954,0.3481553119113957,0.8703882797784894));
#1547 = VECTOR('',#1546,1.);
#1548 = LINE('',#1544,#1547);
#1549 = EDGE_CURVE('',#1545,#1429,#1548,.T.);
#1550 = ORIENTED_EDGE('',*,*,#1549,.T.);
#1551 = ORIENTED_EDGE('',*,*,#1436,.F.);
#1552 = ORIENTED_EDGE('',*,*,#1463,.F.);
#1553 = DIRECTION('',(0.,1.,0.));
#1554 = VECTOR('',#1553,1.);
#1555 = LINE('',#1456,#1554);
#1556 = EDGE_CURVE('',#1457,#1545,#1555,.T.);
#1557 = ORIENTED_EDGE('',*,*,#1556,.T.);
#1558 = CARTESIAN_POINT('',(1.445,0.175,-2.5));
#1559 = DIRECTION('',(0.9284766908852596,0.,-0.37139067635410317));
#1560 = DIRECTION('',(0.3481553119113954,0.3481553119113957,0.8703882797784894));
#1561 = AXIS2_PLACEMENT_3D('',#1558,#1559,#1560);
#1562 = PLANE('',#1561);
#1563 = EDGE_LOOP('',(#1550,#1551,#1552,#1557));
#1564 = FACE_OUTER_BOUND('',#1563,.T.);
#1565 = ADVANCED_FACE('',(#1564),#1562,.T.);
#1566 = CARTESIAN_POINT('',(1.095,0.175,-2.5));
#1567 = VERTEX_POINT('',#1566);
#1568 = DIRECTION('',(0.3481553119113954,-0.3481553119113957,-0.8703882797784894));
#1569 = VECTOR('',#1568,1.);
#1570 = LINE('',#1486,#1569);
#1571 = EDGE_CURVE('',#1487,#1567,#1570,.T.);
#1572 = ORIENTED_EDGE('',*,*,#1571,.F.);
#1573 = ORIENTED_EDGE('',*,*,#1497,.T.);
#1574 = ORIENTED_EDGE('',*,*,#1549,.F.);
#1575 = DIRECTION('',(1.,0.,0.));
#1576 = VECTOR('',#1575,1.);
#1577 = LINE('',#1566,#1576);
#1578 = EDGE_CURVE('',#1567,#1545,#1577,.T.);
#1579 = ORIENTED_EDGE('',*,*,#1578,.F.);
#1580 = CARTESIAN_POINT('',(1.095,0.175,-2.5));
#1581 = DIRECTION('',(0.,0.9284766908852593,-0.37139067635410344));
#1582 = DIRECTION('',(-0.3481553119113954,0.3481553119113957,0.8703882797784894));
#1583 = AXIS2_PLACEMENT_3D('',#1580,#1581,#1582);
#1584 = PLANE('',#1583);
#1585 = EDGE_LOOP('',(#1572,#1573,#1574,#1579));
#1586 = FACE_OUTER_BOUND('',#1585,.T.);
#1587 = ADVANCED_FACE('',(#1586),#1584,.T.);
#1588 = ORIENTED_EDGE('',*,*,#1578,.T.);
#1589 = ORIENTED_EDGE('',*,*,#1556,.F.);
#1590 = ORIENTED_EDGE('',*,*,#1474,.F.);
#1591 = DIRECTION('',(0.,1.,0.));
#1592 = VECTOR('',#1591,1.);
#1593 = LINE('',#1458,#1592);
#1594 = EDGE_CURVE('',#1459,#1567,#1593,.T.);
#1595 = ORIENTED_EDGE('',*,*,#1594,.T.);
#1596 = CARTESIAN_POINT('',(1.095,0.175,-2.5));
#1597 = DIRECTION('',(0.,0.,-1.));
#1598 = DIRECTION('',(1.,0.,0.));
#1599 = AXIS2_PLACEMENT_3D('',#1596,#1597,#1598);
#1600 = PLANE('',#1599);
#1601 = EDGE_LOOP('',(#1588,#1589,#1590,#1595));
#1602 = FACE_OUTER_BOUND('',#1601,.T.);
#1603 = ADVANCED_FACE('',(#1602),#1600,.T.);
#1604 = ORIENTED_EDGE('',*,*,#1594,.F.);
#1605 = ORIENTED_EDGE('',*,*,#1469,.F.);
#1606 = ORIENTED_EDGE('',*,*,#1516,.T.);
#1607 = ORIENTED_EDGE('',*,*,#1571,.T.);
#1608 = CARTESIAN_POINT('',(1.095,0.175,-2.5));
#1609 = DIRECTION('',(-0.9284766908852596,0.,-0.3713906763541033));
#1610 = DIRECTION('',(0.,-1.,0.));
#1611 = AXIS2_PLACEMENT_3D('',#1608,#1609,#1610);
#1612 = PLANE('',#1611);
#1613 = EDGE_LOOP('',(#1604,#1605,#1606,#1607));
#1614 = FACE_OUTER_BOUND('',#1613,.T.);
#1615 = ADVANCED_FACE('',(#1614),#1612,.T.);
#1616 = CLOSED_SHELL('',(#1427,#1455,#1483,#1511,#1531,#1543,#1565,#1587,#1603,#1615));
#1617 = MANIFOLD_SOLID_BREP('',#1616);
#1618 = COLOUR_RGB('',0.7529411764705882,0.7529411764705882,0.7529411764705882);
#1619 = FILL_AREA_STYLE_COLOUR('',#1618);
#1620 = FILL_AREA_STYLE('',(#1619));
#1621 = SURFACE_STYLE_FILL_AREA(#1620);
#1622 = SURFACE_SIDE_STYLE('',(#1621));
#1623 = SURFACE_STYLE_USAGE(.BOTH.,#1622);
#1624 = PRESENTATION_STYLE_ASSIGNMENT((#1623));
#1625 = STYLED_ITEM('',(#1624),#1617);
#1626 = CARTESIAN_POINT('',(0.9550000000000001,0.315,7.4));
#1627 = VERTEX_POINT('',#1626);
#1628 = CARTESIAN_POINT('',(1.585,0.315,7.4));
#1629 = VERTEX_POINT('',#1628);
#1630 = CARTESIAN_POINT('',(1.585,0.315,2.));
#1631 = VERTEX_POINT('',#1630);
#1632 = CARTESIAN_POINT('',(0.9550000000000001,0.315,2.));
#1633 = VERTEX_POINT('',#1632);
#1634 = DIRECTION('',(1.,0.,0.));
#1635 = VECTOR('',#1634,1.);
#1636 = LINE('',#1626,#1635);
#1637 = EDGE_CURVE('',#1627,#1629,#1636,.T.);
#1638 = ORIENTED_EDGE('',*,*,#1637,.T.);
#1639 = DIRECTION('',(0.,0.,1.));
#1640 = VECTOR('',#1639,1.);
#1641 = LINE('',#1630,#1640);
#1642 = EDGE_CURVE('',#1631,#1629,#1641,.T.);
#1643 = ORIENTED_EDGE('',*,*,#1642,.F.);
#1644 = DIRECTION('',(1.,0.,0.));
#1645 = VECTOR('',#1644,1.);
#1646 = LINE('',#1632,#1645);
#1647 = EDGE_CURVE('',#1633,#1631,#1646,.T.);
#1648 = ORIENTED_EDGE('',*,*,#1647,.F.);
#1649 = DIRECTION('',(0.,0.,1.));
#1650 = VECTOR('',#1649,1.);
#1651 = LINE('',#1632,#1650);
#1652 = EDGE_CURVE('',#1633,#1627,#1651,.T.);
#1653 = ORIENTED_EDGE('',*,*,#1652,.T.);
#1654 = CARTESIAN_POINT('',(0.9550000000000001,0.315,7.4));
#1655 = DIRECTION('',(0.,1.,0.));
#1656 = DIRECTION('',(1.,0.,0.));
#1657 = AXIS2_PLACEMENT_3D('',#1654,#1655,#1656);
#1658 = PLANE('',#1657);
#1659 = EDGE_LOOP('',(#1638,#1643,#1648,#1653));
#1660 = FACE_OUTER_BOUND('',#1659,.T.);
#1661 = ADVANCED_FACE('',(#1660),#1658,.T.);
#1662 = CARTESIAN_POINT('',(0.9550000000000001,-0.315,2.));
#1663 = VERTEX_POINT('',#1662);
#1664 = CARTESIAN_POINT('',(0.9550000000000001,-0.315,7.4));
#1665 = VERTEX_POINT('',#1664);
#1666 = ORIENTED_EDGE('',*,*,#1652,.F.);
#1667 = DIRECTION('',(0.,1.,0.));
#1668 = VECTOR('',#1667,1.);
#1669 = LINE('',#1662,#1668);
#1670 = EDGE_CURVE('',#1663,#1633,#1669,.T.);
#1671 = ORIENTED_EDGE('',*,*,#1670,.F.);
#1672 = DIRECTION('',(0.,0.,1.));
#1673 = VECTOR('',#1672,1.);
#1674 = LINE('',#1662,#1673);
#1675 = EDGE_CURVE('',#1663,#1665,#1674,.T.);
#1676 = ORIENTED_EDGE('',*,*,#1675,.T.);
#1677 = DIRECTION('',(0.,1.,0.));
#1678 = VECTOR('',#1677,1.);
#1679 = LINE('',#1664,#1678);
#1680 = EDGE_CURVE('',#1665,#1627,#1679,.T.);
#1681 = ORIENTED_EDGE('',*,*,#1680,.T.);
#1682 = CARTESIAN_POINT('',(0.9550000000000001,0.315,7.4));
#1683 = DIRECTION('',(-1.,0.,0.));
#1684 = DIRECTION('',(0.,0.,-1.));
#1685 = AXIS2_PLACEMENT_3D('',#1682,#1683,#1684);
#1686 = PLANE('',#1685);
#1687 = EDGE_LOOP('',(#1666,#1671,#1676,#1681));
#1688 = FACE_OUTER_BOUND('',#1687,.T.);
#1689 = ADVANCED_FACE('',(#1688),#1686,.T.);
#1690 = CARTESIAN_POINT('',(1.445,-0.175,8.));
#1691 = VERTEX_POINT('',#1690);
#1692 = CARTESIAN_POINT('',(1.095,-0.175,8.));
#1693 = VERTEX_POINT('',#1692);
#1694 = CARTESIAN_POINT('',(1.585,-0.315,7.4));
#1695 = VERTEX_POINT('',#1694);
#1696 = DIRECTION('',(1.,0.,0.));
#1697 = VECTOR('',#1696,1.);
#1698 = LINE('',#1692,#1697);
#1699 = EDGE_CURVE('',#1693,#1691,#1698,.T.);
#1700 = ORIENTED_EDGE('',*,*,#1699,.F.);
#1701 = DIRECTION('',(0.2215811282415214,0.22158112824152157,0.9496334067493776));
#1702 = VECTOR('',#1701,1.);
#1703 = LINE('',#1664,#1702);
#1704 = EDGE_CURVE('',#1665,#1693,#1703,.T.);
#1705 = ORIENTED_EDGE('',*,*,#1704,.F.);
#1706 = DIRECTION('',(1.,0.,0.));
#1707 = VECTOR('',#1706,1.);
#1708 = LINE('',#1664,#1707);
#1709 = EDGE_CURVE('',#1665,#1695,#1708,.T.);
#1710 = ORIENTED_EDGE('',*,*,#1709,.T.);
#1711 = DIRECTION('',(0.2215811282415214,-0.22158112824152157,-0.9496334067493776));
#1712 = VECTOR('',#1711,1.);
#1713 = LINE('',#1690,#1712);
#1714 = EDGE_CURVE('',#1691,#1695,#1713,.T.);
#1715 = ORIENTED_EDGE('',*,*,#1714,.F.);
#1716 = CARTESIAN_POINT('',(1.445,-0.175,8.));
#1717 = DIRECTION('',(0.,-0.9738412097417931,0.22722961560641836));
#1718 = DIRECTION('',(-1.,0.,0.));
#1719 = AXIS2_PLACEMENT_3D('',#1716,#1717,#1718);
#1720 = PLANE('',#1719);
#1721 = EDGE_LOOP('',(#1700,#1705,#1710,#1715));
#1722 = FACE_OUTER_BOUND('',#1721,.T.);
#1723 = ADVANCED_FACE('',(#1722),#1720,.T.);
#1724 = CARTESIAN_POINT('',(1.585,-0.315,2.));
#1725 = VERTEX_POINT('',#1724);
#1726 = DIRECTION('',(0.,1.,0.));
#1727 = VECTOR('',#1726,1.);
#1728 = LINE('',#1724,#1727);
#1729 = EDGE_CURVE('',#1725,#1631,#1728,.T.);
#1730 = ORIENTED_EDGE('',*,*,#1729,.T.);
#1731 = ORIENTED_EDGE('',*,*,#1642,.T.);
#1732 = DIRECTION('',(0.,1.,0.));
#1733 = VECTOR('',#1732,1.);
#1734 = LINE('',#1694,#1733);
#1735 = EDGE_CURVE('',#1695,#1629,#1734,.T.);
#1736 = ORIENTED_EDGE('',*,*,#1735,.F.);
#1737 = DIRECTION('',(0.,0.,1.));
#1738 = VECTOR('',#1737,1.);
#1739 = LINE('',#1724,#1738);
#1740 = EDGE_CURVE('',#1725,#1695,#1739,.T.);
#1741 = ORIENTED_EDGE('',*,*,#1740,.F.);
#1742 = CARTESIAN_POINT('',(1.585,-0.315,2.));
#1743 = DIRECTION('',(1.,0.,0.));
#1744 = DIRECTION('',(0.,1.,0.));
#1745 = AXIS2_PLACEMENT_3D('',#1742,#1743,#1744);
#1746 = PLANE('',#1745);
#1747 = EDGE_LOOP('',(#1730,#1731,#1736,#1741));
#1748 = FACE_OUTER_BOUND('',#1747,.T.);
#1749 = ADVANCED_FACE('',(#1748),#1746,.T.);
#1750 = ORIENTED_EDGE('',*,*,#1740,.T.);
#1751 = ORIENTED_EDGE('',*,*,#1709,.F.);
#1752 = ORIENTED_EDGE('',*,*,#1675,.F.);
#1753 = DIRECTION('',(1.,0.,0.));
#1754 = VECTOR('',#1753,1.);
#1755 = LINE('',#1662,#1754);
#1756 = EDGE_CURVE('',#1663,#1725,#1755,.T.);
#1757 = ORIENTED_EDGE('',*,*,#1756,.T.);
#1758 = CARTESIAN_POINT('',(1.585,-0.315,2.));
#1759 = DIRECTION('',(0.,-1.,0.));
#1760 = DIRECTION('',(0.,0.,1.));
#1761 = AXIS2_PLACEMENT_3D('',#1758,#1759,#1760);
#1762 = PLANE('',#1761);
#1763 = EDGE_LOOP('',(#1750,#1751,#1752,#1757));
#1764 = FACE_OUTER_BOUND('',#1763,.T.);
#1765 = ADVANCED_FACE('',(#1764),#1762,.T.);
#1766 = ORIENTED_EDGE('',*,*,#1756,.F.);
#1767 = ORIENTED_EDGE('',*,*,#1670,.T.);
#1768 = ORIENTED_EDGE('',*,*,#1647,.T.);
#1769 = ORIENTED_EDGE('',*,*,#1729,.F.);
#1770 = CARTESIAN_POINT('',(1.585,-0.315,2.));
#1771 = DIRECTION('',(0.,0.,-1.));
#1772 = DIRECTION('',(-1.,0.,0.));
#1773 = AXIS2_PLACEMENT_3D('',#1770,#1771,#1772);
#1774 = PLANE('',#1773);
#1775 = EDGE_LOOP('',(#1766,#1767,#1768,#1769));
#1776 = FACE_OUTER_BOUND('',#1775,.T.);
#1777 = ADVANCED_FACE('',(#1776),#1774,.T.);
#1778 = CARTESIAN_POINT('',(1.095,0.175,8.));
#1779 = VERTEX_POINT('',#1778);
#1780 = DIRECTION('',(0.2215811282415214,-0.22158112824152157,0.9496334067493776));
#1781 = VECTOR('',#1780,1.);
#1782 = LINE('',#1626,#1781);
#1783 = EDGE_CURVE('',#1627,#1779,#1782,.T.);
#1784 = ORIENTED_EDGE('',*,*,#1783,.F.);
#1785 = ORIENTED_EDGE('',*,*,#1680,.F.);
#1786 = ORIENTED_EDGE('',*,*,#1704,.T.);
#1787 = DIRECTION('',(0.,1.,0.));
#1788 = VECTOR('',#1787,1.);
#1789 = LINE('',#1692,#1788);
#1790 = EDGE_CURVE('',#1693,#1779,#1789,.T.);
#1791 = ORIENTED_EDGE('',*,*,#1790,.T.);
#1792 = CARTESIAN_POINT('',(1.095,0.175,8.));
#1793 = DIRECTION('',(-0.9738412097417933,0.,0.22722961560641794));
#1794 = DIRECTION('',(-0.2215811282415214,0.22158112824152157,-0.9496334067493776));
#1795 = AXIS2_PLACEMENT_3D('',#1792,#1793,#1794);
#1796 = PLANE('',#1795);
#1797 = EDGE_LOOP('',(#1784,#1785,#1786,#1791));
#1798 = FACE_OUTER_BOUND('',#1797,.T.);
#1799 = ADVANCED_FACE('',(#1798),#1796,.T.);
#1800 = CARTESIAN_POINT('',(1.445,0.175,8.));
#1801 = VERTEX_POINT('',#1800);
#1802 = DIRECTION('',(0.2215811282415214,0.22158112824152157,-0.9496334067493776));
#1803 = VECTOR('',#1802,1.);
#1804 = LINE('',#1800,#1803);
#1805 = EDGE_CURVE('',#1801,#1629,#1804,.T.);
#1806 = ORIENTED_EDGE('',*,*,#1805,.T.);
#1807 = ORIENTED_EDGE('',*,*,#1637,.F.);
#1808 = ORIENTED_EDGE('',*,*,#1783,.T.);
#1809 = DIRECTION('',(1.,0.,0.));
#1810 = VECTOR('',#1809,1.);
#1811 = LINE('',#1778,#1810);
#1812 = EDGE_CURVE('',#1779,#1801,#1811,.T.);
#1813 = ORIENTED_EDGE('',*,*,#1812,.T.);
#1814 = CARTESIAN_POINT('',(1.445,0.175,8.));
#1815 = DIRECTION('',(0.,0.9738412097417931,0.2272296156064184));
#1816 = DIRECTION('',(0.2215811282415214,0.22158112824152157,-0.9496334067493776));
#1817 = AXIS2_PLACEMENT_3D('',#1814,#1815,#1816);
#1818 = PLANE('',#1817);
#1819 = EDGE_LOOP('',(#1806,#1807,#1808,#1813));
#1820 = FACE_OUTER_BOUND('',#1819,.T.);
#1821 = ADVANCED_FACE('',(#1820),#1818,.T.);
#1822 = ORIENTED_EDGE('',*,*,#1812,.F.);
#1823 = ORIENTED_EDGE('',*,*,#1790,.F.);
#1824 = ORIENTED_EDGE('',*,*,#1699,.T.);
#1825 = DIRECTION('',(0.,1.,0.));
#1826 = VECTOR('',#1825,1.);
#1827 = LINE('',#1690,#1826);
#1828 = EDGE_CURVE('',#1691,#1801,#1827,.T.);
#1829 = ORIENTED_EDGE('',*,*,#1828,.T.);
#1830 = CARTESIAN_POINT('',(1.445,0.175,8.));
#1831 = DIRECTION('',(0.,0.,1.));
#1832 = DIRECTION('',(-1.,0.,0.));
#1833 = AXIS2_PLACEMENT_3D('',#1830,#1831,#1832);
#1834 = PLANE('',#1833);
#1835 = EDGE_LOOP('',(#1822,#1823,#1824,#1829));
#1836 = FACE_OUTER_BOUND('',#1835,.T.);
#1837 = ADVANCED_FACE('',(#1836),#1834,.T.);
#1838 = ORIENTED_EDGE('',*,*,#1828,.F.);
#1839 = ORIENTED_EDGE('',*,*,#1714,.T.);
#1840 = ORIENTED_EDGE('',*,*,#1735,.T.);
#1841 = ORIENTED_EDGE('',*,*,#1805,.F.);
#1842 = CARTESIAN_POINT('',(1.445,0.175,8.));
#1843 = DIRECTION('',(0.9738412097417933,0.,0.2272296156064181));
#1844 = DIRECTION('',(0.,-1.,0.));
#1845 = AXIS2_PLACEMENT_3D('',#1842,#1843,#1844);
#1846 = PLANE('',#1845);
#1847 = EDGE_LOOP('',(#1838,#1839,#1840,#1841));
#1848 = FACE_OUTER_BOUND('',#1847,.T.);
#1849 = ADVANCED_FACE('',(#1848),#1846,.T.);
#1850 = CLOSED_SHELL('',(#1661,#1689,#1723,#1749,#1765,#1777,#1799,#1821,#1837,#1849));
#1851 = MANIFOLD_SOLID_BREP('',#1850);
#1852 = COLOUR_RGB('',0.7529411764705882,0.7529411764705882,0.7529411764705882);
#1853 = FILL_AREA_STYLE_COLOUR('',#1852);
#1854 = FILL_AREA_STYLE('',(#1853));
#1855 = SURFACE_STYLE_FILL_AREA(#1854);
#1856 = SURFACE_SIDE_STYLE('',(#1855));
#1857 = SURFACE_STYLE_USAGE(.BOTH.,#1856);
#1858 = PRESENTATION_STYLE_ASSIGNMENT((#1857));
#1859 = STYLED_ITEM('',(#1858),#1851);
#1860 = CARTESIAN_POINT('',(2.54,-1.27,0.));
#1861 = VERTEX_POINT('',#1860);
#1862 = CARTESIAN_POINT('',(2.54,-1.27,2.));
#1863 = VERTEX_POINT('',#1862);
#1864 = CARTESIAN_POINT('',(2.54,1.27,2.));
#1865 = VERTEX_POINT('',#1864);
#1866 = CARTESIAN_POINT('',(2.54,1.27,0.));
#1867 = VERTEX_POINT('',#1866);
#1868 = DIRECTION('',(0.,0.,1.));
#1869 = VECTOR('',#1868,1.);
#1870 = LINE('',#1860,#1869);
#1871 = EDGE_CURVE('',#1861,#1863,#1870,.T.);
#1872 = ORIENTED_EDGE('',*,*,#1871,.T.);
#1873 = DIRECTION('',(0.,1.,0.));
#1874 = VECTOR('',#1873,1.);
#1875 = LINE('',#1862,#1874);
#1876 = EDGE_CURVE('',#1863,#1865,#1875,.T.);
#1877 = ORIENTED_EDGE('',*,*,#1876,.T.);
#1878 = DIRECTION('',(0.,0.,1.));
#1879 = VECTOR('',#1878,1.);
#1880 = LINE('',#1866,#1879);
#1881 = EDGE_CURVE('',#1867,#1865,#1880,.T.);
#1882 = ORIENTED_EDGE('',*,*,#1881,.F.);
#1883 = DIRECTION('',(0.,1.,0.));
#1884 = VECTOR('',#1883,1.);
#1885 = LINE('',#1860,#1884);
#1886 = EDGE_CURVE('',#1861,#1867,#1885,.T.);
#1887 = ORIENTED_EDGE('',*,*,#1886,.F.);
#1888 = CARTESIAN_POINT('',(2.54,-1.27,0.));
#1889 = DIRECTION('',(-1.,0.,0.));
#1890 = DIRECTION('',(0.,0.,1.));
#1891 = AXIS2_PLACEMENT_3D('',#1888,#1889,#1890);
#1892 = PLANE('',#1891);
#1893 = EDGE_LOOP('',(#1872,#1877,#1882,#1887));
#1894 = FACE_OUTER_BOUND('',#1893,.T.);
#1895 = ADVANCED_FACE('',(#1894),#1892,.T.);
#1896 = CARTESIAN_POINT('',(5.08,-1.27,0.));
#1897 = VERTEX_POINT('',#1896);
#1898 = CARTESIAN_POINT('',(5.08,1.27,0.));
#1899 = VERTEX_POINT('',#1898);
#1900 = CARTESIAN_POINT('',(5.08,1.27,2.));
#1901 = VERTEX_POINT('',#1900);
#1902 = CARTESIAN_POINT('',(5.08,-1.27,2.));
#1903 = VERTEX_POINT('',#1902);
#1904 = DIRECTION('',(0.,1.,0.));
#1905 = VECTOR('',#1904,1.);
#1906 = LINE('',#1896,#1905);
#1907 = EDGE_CURVE('',#1897,#1899,#1906,.T.);
#1908 = ORIENTED_EDGE('',*,*,#1907,.T.);
#1909 = DIRECTION('',(0.,0.,1.));
#1910 = VECTOR('',#1909,1.);
#1911 = LINE('',#1898,#1910);
#1912 = EDGE_CURVE('',#1899,#1901,#1911,.T.);
#1913 = ORIENTED_EDGE('',*,*,#1912,.T.);
#1914 = DIRECTION('',(0.,1.,0.));
#1915 = VECTOR('',#1914,1.);
#1916 = LINE('',#1902,#1915);
#1917 = EDGE_CURVE('',#1903,#1901,#1916,.T.);
#1918 = ORIENTED_EDGE('',*,*,#1917,.F.);
#1919 = DIRECTION('',(0.,0.,1.));
#1920 = VECTOR('',#1919,1.);
#1921 = LINE('',#1896,#1920);
#1922 = EDGE_CURVE('',#1897,#1903,#1921,.T.);
#1923 = ORIENTED_EDGE('',*,*,#1922,.F.);
#1924 = CARTESIAN_POINT('',(5.08,-1.27,0.));
#1925 = DIRECTION('',(1.,0.,0.));
#1926 = DIRECTION('',(0.,1.,0.));
#1927 = AXIS2_PLACEMENT_3D('',#1924,#1925,#1926);
#1928 = PLANE('',#1927);
#1929 = EDGE_LOOP('',(#1908,#1913,#1918,#1923));
#1930 = FACE_OUTER_BOUND('',#1929,.T.);
#1931 = ADVANCED_FACE('',(#1930),#1928,.T.);
#1932 = DIRECTION('',(1.,0.,0.));
#1933 = VECTOR('',#1932,1.);
#1934 = LINE('',#1860,#1933);
#1935 = EDGE_CURVE('',#1861,#1897,#1934,.T.);
#1936 = ORIENTED_EDGE('',*,*,#1935,.T.);
#1937 = ORIENTED_EDGE('',*,*,#1922,.T.);
#1938 = DIRECTION('',(1.,0.,0.));
#1939 = VECTOR('',#1938,1.);
#1940 = LINE('',#1862,#1939);
#1941 = EDGE_CURVE('',#1863,#1903,#1940,.T.);
#1942 = ORIENTED_EDGE('',*,*,#1941,.F.);
#1943 = ORIENTED_EDGE('',*,*,#1871,.F.);
#1944 = CARTESIAN_POINT('',(2.54,-1.27,0.));
#1945 = DIRECTION('',(0.,-1.,0.));
#1946 = DIRECTION('',(1.,0.,0.));
#1947 = AXIS2_PLACEMENT_3D('',#1944,#1945,#1946);
#1948 = PLANE('',#1947);
#1949 = EDGE_LOOP('',(#1936,#1937,#1942,#1943));
#1950 = FACE_OUTER_BOUND('',#1949,.T.);
#1951 = ADVANCED_FACE('',(#1950),#1948,.T.);
#1952 = ORIENTED_EDGE('',*,*,#1881,.T.);
#1953 = DIRECTION('',(1.,0.,0.));
#1954 = VECTOR('',#1953,1.);
#1955 = LINE('',#1864,#1954);
#1956 = EDGE_CURVE('',#1865,#1901,#1955,.T.);
#1957 = ORIENTED_EDGE('',*,*,#1956,.T.);
#1958 = ORIENTED_EDGE('',*,*,#1912,.F.);
#1959 = DIRECTION('',(1.,0.,0.));
#1960 = VECTOR('',#1959,1.);
#1961 = LINE('',#1866,#1960);
#1962 = EDGE_CURVE('',#1867,#1899,#1961,.T.);
#1963 = ORIENTED_EDGE('',*,*,#1962,.F.);
#1964 = CARTESIAN_POINT('',(2.54,1.27,0.));
#1965 = DIRECTION('',(0.,1.,0.));
#1966 = DIRECTION('',(0.,0.,1.));
#1967 = AXIS2_PLACEMENT_3D('',#1964,#1965,#1966);
#1968 = PLANE('',#1967);
#1969 = EDGE_LOOP('',(#1952,#1957,#1958,#1963));
#1970 = FACE_OUTER_BOUND('',#1969,.T.);
#1971 = ADVANCED_FACE('',(#1970),#1968,.T.);
#1972 = ORIENTED_EDGE('',*,*,#1886,.T.);
#1973 = ORIENTED_EDGE('',*,*,#1962,.T.);
#1974 = ORIENTED_EDGE('',*,*,#1907,.F.);
#1975 = ORIENTED_EDGE('',*,*,#1935,.F.);
#1976 = CARTESIAN_POINT('',(2.54,-1.27,0.));
#1977 = DIRECTION('',(0.,0.,-1.));
#1978 = DIRECTION('',(0.,1.,0.));
#1979 = AXIS2_PLACEMENT_3D('',#1976,#1977,#1978);
#1980 = PLANE('',#1979);
#1981 = EDGE_LOOP('',(#1972,#1973,#1974,#1975));
#1982 = FACE_OUTER_BOUND('',#1981,.T.);
#1983 = ADVANCED_FACE('',(#1982),#1980,.T.);
#1984 = ORIENTED_EDGE('',*,*,#1941,.T.);
#1985 = ORIENTED_EDGE('',*,*,#1917,.T.);
#1986 = ORIENTED_EDGE('',*,*,#1956,.F.);
#1987 = ORIENTED_EDGE('',*,*,#1876,.F.);
#1988 = CARTESIAN_POINT('',(2.54,-1.27,2.));
#1989 = DIRECTION('',(0.,0.,1.));
#1990 = DIRECTION('',(1.,0.,0.));
#1991 = AXIS2_PLACEMENT_3D('',#1988,#1989,#1990);
#1992 = PLANE('',#1991);
#1993 = EDGE_LOOP('',(#1984,#1985,#1986,#1987));
#1994 = FACE_OUTER_BOUND('',#1993,.T.);
#1995 = ADVANCED_FACE('',(#1994),#1992,.T.);
#1996 = CLOSED_SHELL('',(#1895,#1931,#1951,#1971,#1983,#1995));
#1997 = MANIFOLD_SOLID_BREP('',#1996);
#1998 = COLOUR_RGB('',0.13333333333333333,0.13333333333333333,0.13333333333333333);
#1999 = FILL_AREA_STYLE_COLOUR('',#1998);
#2000 = FILL_AREA_STYLE('',(#1999));
#2001 = SURFACE_STYLE_FILL_AREA(#2000);
#2002 = SURFACE_SIDE_STYLE('',(#2001));
#2003 = SURFACE_STYLE_USAGE(.BOTH.,#2002);
#2004 = PRESENTATION_STYLE_ASSIGNMENT((#2003));
#2005 = STYLED_ITEM('',(#2004),#1997);
#2006 = CARTESIAN_POINT('',(4.125,-0.315,0.5500000000000003));
#2007 = VERTEX_POINT('',#2006);
#2008 = CARTESIAN_POINT('',(4.125,0.315,0.5500000000000003));
#2009 = VERTEX_POINT('',#2008);
#2010 = CARTESIAN_POINT('',(3.495,0.315,0.5500000000000003));
#2011 = VERTEX_POINT('',#2010);
#2012 = CARTESIAN_POINT('',(3.495,-0.315,0.5500000000000003));
#2013 = VERTEX_POINT('',#2012);
#2014 = DIRECTION('',(0.,1.,0.));
#2015 = VECTOR('',#2014,1.);
#2016 = LINE('',#2006,#2015);
#2017 = EDGE_CURVE('',#2007,#2009,#2016,.T.);
#2018 = ORIENTED_EDGE('',*,*,#2017,.T.);
#2019 = DIRECTION('',(1.,0.,0.));
#2020 = VECTOR('',#2019,1.);
#2021 = LINE('',#2010,#2020);
#2022 = EDGE_CURVE('',#2011,#2009,#2021,.T.);
#2023 = ORIENTED_EDGE('',*,*,#2022,.F.);
#2024 = DIRECTION('',(0.,1.,0.));
#2025 = VECTOR('',#2024,1.);
#2026 = LINE('',#2012,#2025);
#2027 = EDGE_CURVE('',#2013,#2011,#2026,.T.);
#2028 = ORIENTED_EDGE('',*,*,#2027,.F.);
#2029 = DIRECTION('',(1.,0.,0.));
#2030 = VECTOR('',#2029,1.);
#2031 = LINE('',#2012,#2030);
#2032 = EDGE_CURVE('',#2013,#2007,#2031,.T.);
#2033 = ORIENTED_EDGE('',*,*,#2032,.T.);
#2034 = CARTESIAN_POINT('',(4.125,-0.315,0.5500000000000003));
#2035 = DIRECTION('',(0.,0.,1.));
#2036 = DIRECTION('',(0.,1.,0.));
#2037 = AXIS2_PLACEMENT_3D('',#2034,#2035,#2036);
#2038 = PLANE('',#2037);
#2039 = EDGE_LOOP('',(#2018,#2023,#2028,#2033));
#2040 = FACE_OUTER_BOUND('',#2039,.T.);
#2041 = ADVANCED_FACE('',(#2040),#2038,.T.);
#2042 = CARTESIAN_POINT('',(3.495,0.315,-2.15));
#2043 = VERTEX_POINT('',#2042);
#2044 = CARTESIAN_POINT('',(4.125,0.315,-2.15));
#2045 = VERTEX_POINT('',#2044);
#2046 = DIRECTION('',(0.,0.,1.));
#2047 = VECTOR('',#2046,1.);
#2048 = LINE('',#2042,#2047);
#2049 = EDGE_CURVE('',#2043,#2011,#2048,.T.);
#2050 = ORIENTED_EDGE('',*,*,#2049,.T.);
#2051 = ORIENTED_EDGE('',*,*,#2022,.T.);
#2052 = DIRECTION('',(0.,0.,1.));
#2053 = VECTOR('',#2052,1.);
#2054 = LINE('',#2044,#2053);
#2055 = EDGE_CURVE('',#2045,#2009,#2054,.T.);
#2056 = ORIENTED_EDGE('',*,*,#2055,.F.);
#2057 = DIRECTION('',(1.,0.,0.));
#2058 = VECTOR('',#2057,1.);
#2059 = LINE('',#2042,#2058);
#2060 = EDGE_CURVE('',#2043,#2045,#2059,.T.);
#2061 = ORIENTED_EDGE('',*,*,#2060,.F.);
#2062 = CARTESIAN_POINT('',(3.495,0.315,-2.15));
#2063 = DIRECTION('',(0.,1.,0.));
#2064 = DIRECTION('',(0.,0.,1.));
#2065 = AXIS2_PLACEMENT_3D('',#2062,#2063,#2064);
#2066 = PLANE('',#2065);
#2067 = EDGE_LOOP('',(#2050,#2051,#2056,#2061));
#2068 = FACE_OUTER_BOUND('',#2067,.T.);
#2069 = ADVANCED_FACE('',(#2068),#2066,.T.);
#2070 = CARTESIAN_POINT('',(3.495,-0.315,-2.15));
#2071 = VERTEX_POINT('',#2070);
#2072 = DIRECTION('',(0.,1.,0.));
#2073 = VECTOR('',#2072,1.);
#2074 = LINE('',#2070,#2073);
#2075 = EDGE_CURVE('',#2071,#2043,#2074,.T.);
#2076 = ORIENTED_EDGE('',*,*,#2075,.F.);
#2077 = DIRECTION('',(0.,0.,1.));
#2078 = VECTOR('',#2077,1.);
#2079 = LINE('',#2070,#2078);
#2080 = EDGE_CURVE('',#2071,#2013,#2079,.T.);
#2081 = ORIENTED_EDGE('',*,*,#2080,.T.);
#2082 = ORIENTED_EDGE('',*,*,#2027,.T.);
#2083 = ORIENTED_EDGE('',*,*,#2049,.F.);
#2084 = CARTESIAN_POINT('',(3.495,0.315,-2.15));
#2085 = DIRECTION('',(-1.,0.,0.));
#2086 = DIRECTION('',(0.,-1.,0.));
#2087 = AXIS2_PLACEMENT_3D('',#2084,#2085,#2086);
#2088 = PLANE('',#2087);
#2089 = EDGE_LOOP('',(#2076,#2081,#2082,#2083));
#2090 = FACE_OUTER_BOUND('',#2089,.T.);
#2091 = ADVANCED_FACE('',(#2090),#2088,.T.);
#2092 = CARTESIAN_POINT('',(4.125,-0.315,-2.15));
#2093 = VERTEX_POINT('',#2092);
#2094 = DIRECTION('',(0.,1.,0.));
#2095 = VECTOR('',#2094,1.);
#2096 = LINE('',#2092,#2095);
#2097 = EDGE_CURVE('',#2093,#2045,#2096,.T.);
#2098 = ORIENTED_EDGE('',*,*,#2097,.T.);
#2099 = ORIENTED_EDGE('',*,*,#2055,.T.);
#2100 = ORIENTED_EDGE('',*,*,#2017,.F.);
#2101 = DIRECTION('',(0.,0.,1.));
#2102 = VECTOR('',#2101,1.);
#2103 = LINE('',#2092,#2102);
#2104 = EDGE_CURVE('',#2093,#2007,#2103,.T.);
#2105 = ORIENTED_EDGE('',*,*,#2104,.F.);
#2106 = CARTESIAN_POINT('',(4.125,-0.315,-2.15));
#2107 = DIRECTION('',(1.,0.,0.));
#2108 = DIRECTION('',(0.,1.,0.));
#2109 = AXIS2_PLACEMENT_3D('',#2106,#2107,#2108);
#2110 = PLANE('',#2109);
#2111 = EDGE_LOOP('',(#2098,#2099,#2100,#2105));
#2112 = FACE_OUTER_BOUND('',#2111,.T.);
#2113 = ADVANCED_FACE('',(#2112),#2110,.T.);
#2114 = ORIENTED_EDGE('',*,*,#2104,.T.);
#2115 = ORIENTED_EDGE('',*,*,#2032,.F.);
#2116 = ORIENTED_EDGE('',*,*,#2080,.F.);
#2117 = DIRECTION('',(1.,0.,0.));
#2118 = VECTOR('',#2117,1.);
#2119 = LINE('',#2070,#2118);
#2120 = EDGE_CURVE('',#2071,#2093,#2119,.T.);
#2121 = ORIENTED_EDGE('',*,*,#2120,.T.);
#2122 = CARTESIAN_POINT('',(4.125,-0.315,-2.15));
#2123 = DIRECTION('',(0.,-1.,0.));
#2124 = DIRECTION('',(0.,0.,1.));
#2125 = AXIS2_PLACEMENT_3D('',#2122,#2123,#2124);
#2126 = PLANE('',#2125);
#2127 = EDGE_LOOP('',(#2114,#2115,#2116,#2121));
#2128 = FACE_OUTER_BOUND('',#2127,.T.);
#2129 = ADVANCED_FACE('',(#2128),#2126,.T.);
#2130 = CARTESIAN_POINT('',(3.6350000000000002,0.175,-2.5));
#2131 = VERTEX_POINT('',#2130);
#2132 = CARTESIAN_POINT('',(3.985,0.175,-2.5));
#2133 = VERTEX_POINT('',#2132);
#2134 = DIRECTION('',(0.34815531191139587,-0.3481553119113956,-0.8703882797784892));
#2135 = VECTOR('',#2134,1.);
#2136 = LINE('',#2042,#2135);
#2137 = EDGE_CURVE('',#2043,#2131,#2136,.T.);
#2138 = ORIENTED_EDGE('',*,*,#2137,.F.);
#2139 = ORIENTED_EDGE('',*,*,#2060,.T.);
#2140 = DIRECTION('',(0.34815531191139587,0.3481553119113956,0.8703882797784892));
#2141 = VECTOR('',#2140,1.);
#2142 = LINE('',#2132,#2141);
#2143 = EDGE_CURVE('',#2133,#2045,#2142,.T.);
#2144 = ORIENTED_EDGE('',*,*,#2143,.F.);
#2145 = DIRECTION('',(1.,0.,0.));
#2146 = VECTOR('',#2145,1.);
#2147 = LINE('',#2130,#2146);
#2148 = EDGE_CURVE('',#2131,#2133,#2147,.T.);
#2149 = ORIENTED_EDGE('',*,*,#2148,.F.);
#2150 = CARTESIAN_POINT('',(3.6350000000000002,0.175,-2.5));
#2151 = DIRECTION('',(0.,0.9284766908852594,-0.3713906763541036));
#2152 = DIRECTION('',(-0.34815531191139587,0.3481553119113956,0.8703882797784892));
#2153 = AXIS2_PLACEMENT_3D('',#2150,#2151,#2152);
#2154 = PLANE('',#2153);
#2155 = EDGE_LOOP('',(#2138,#2139,#2144,#2149));
#2156 = FACE_OUTER_BOUND('',#2155,.T.);
#2157 = ADVANCED_FACE('',(#2156),#2154,.T.);
#2158 = CARTESIAN_POINT('',(3.6350000000000002,-0.175,-2.5));
#2159 = VERTEX_POINT('',#2158);
#2160 = DIRECTION('',(0.,1.,0.));
#2161 = VECTOR('',#2160,1.);
#2162 = LINE('',#2158,#2161);
#2163 = EDGE_CURVE('',#2159,#2131,#2162,.T.);
#2164 = ORIENTED_EDGE('',*,*,#2163,.F.);
#2165 = DIRECTION('',(0.34815531191139587,0.3481553119113956,-0.8703882797784892));
#2166 = VECTOR('',#2165,1.);
#2167 = LINE('',#2070,#2166);
#2168 = EDGE_CURVE('',#2071,#2159,#2167,.T.);
#2169 = ORIENTED_EDGE('',*,*,#2168,.F.);
#2170 = ORIENTED_EDGE('',*,*,#2075,.T.);
#2171 = ORIENTED_EDGE('',*,*,#2137,.T.);
#2172 = CARTESIAN_POINT('',(3.6350000000000002,0.175,-2.5));
#2173 = DIRECTION('',(-0.9284766908852592,0.,-0.37139067635410367));
#2174 = DIRECTION('',(0.,-1.,0.));
#2175 = AXIS2_PLACEMENT_3D('',#2172,#2173,#2174);
#2176 = PLANE('',#2175);
#2177 = EDGE_LOOP('',(#2164,#2169,#2170,#2171));
#2178 = FACE_OUTER_BOUND('',#2177,.T.);
#2179 = ADVANCED_FACE('',(#2178),#2176,.T.);
#2180 = CARTESIAN_POINT('',(3.985,-0.175,-2.5));
#2181 = VERTEX_POINT('',#2180);
#2182 = DIRECTION('',(1.,0.,0.));
#2183 = VECTOR('',#2182,1.);
#2184 = LINE('',#2158,#2183);
#2185 = EDGE_CURVE('',#2159,#2181,#2184,.T.);
#2186 = ORIENTED_EDGE('',*,*,#2185,.F.);
#2187 = ORIENTED_EDGE('',*,*,#2163,.T.);
#2188 = ORIENTED_EDGE('',*,*,#2148,.T.);
#2189 = DIRECTION('',(0.,1.,0.));
#2190 = VECTOR('',#2189,1.);
#2191 = LINE('',#2180,#2190);
#2192 = EDGE_CURVE('',#2181,#2133,#2191,.T.);
#2193 = ORIENTED_EDGE('',*,*,#2192,.F.);
#2194 = CARTESIAN_POINT('',(3.985,-0.175,-2.5));
#2195 = DIRECTION('',(0.,0.,-1.));
#2196 = DIRECTION('',(-1.,0.,0.));
#2197 = AXIS2_PLACEMENT_3D('',#2194,#2195,#2196);
#2198 = PLANE('',#2197);
#2199 = EDGE_LOOP('',(#2186,#2187,#2188,#2193));
#2200 = FACE_OUTER_BOUND('',#2199,.T.);
#2201 = ADVANCED_FACE('',(#2200),#2198,.T.);
#2202 = ORIENTED_EDGE('',*,*,#2192,.T.);
#2203 = ORIENTED_EDGE('',*,*,#2143,.T.);
#2204 = ORIENTED_EDGE('',*,*,#2097,.F.);
#2205 = DIRECTION('',(0.34815531191139587,-0.3481553119113956,0.8703882797784892));
#2206 = VECTOR('',#2205,1.);
#2207 = LINE('',#2180,#2206);
#2208 = EDGE_CURVE('',#2181,#2093,#2207,.T.);
#2209 = ORIENTED_EDGE('',*,*,#2208,.F.);
#2210 = CARTESIAN_POINT('',(3.985,-0.175,-2.5));
#2211 = DIRECTION('',(0.9284766908852592,0.,-0.37139067635410367));
#2212 = DIRECTION('',(0.,1.,0.));
#2213 = AXIS2_PLACEMENT_3D('',#2210,#2211,#2212);
#2214 = PLANE('',#2213);
#2215 = EDGE_LOOP('',(#2202,#2203,#2204,#2209));
#2216 = FACE_OUTER_BOUND('',#2215,.T.);
#2217 = ADVANCED_FACE('',(#2216),#2214,.T.);
#2218 = ORIENTED_EDGE('',*,*,#2208,.T.);
#2219 = ORIENTED_EDGE('',*,*,#2120,.F.);
#2220 = ORIENTED_EDGE('',*,*,#2168,.T.);
#2221 = ORIENTED_EDGE('',*,*,#2185,.T.);
#2222 = CARTESIAN_POINT('',(3.985,-0.175,-2.5));
#2223 = DIRECTION('',(0.,-0.9284766908852594,-0.3713906763541036));
#2224 = DIRECTION('',(0.34815531191139587,-0.3481553119113956,0.8703882797784892));
#2225 = AXIS2_PLACEMENT_3D('',#2222,#2223,#2224);
#2226 = PLANE('',#2225);
#2227 = EDGE_LOOP('',(#2218,#2219,#2220,#2221));
#2228 = FACE_OUTER_BOUND('',#2227,.T.);
#2229 = ADVANCED_FACE('',(#2228),#2226,.T.);
#2230 = CLOSED_SHELL('',(#2041,#2069,#2091,#2113,#2129,#2157,#2179,#2201,#2217,#2229));
#2231 = MANIFOLD_SOLID_BREP('',#2230);
#2232 = COLOUR_RGB('',0.7529411764705882,0.7529411764705882,0.7529411764705882);
#2233 = FILL_AREA_STYLE_COLOUR('',#2232);
#2234 = FILL_AREA_STYLE('',(#2233));
#2235 = SURFACE_STYLE_FILL_AREA(#2234);
#2236 = SURFACE_SIDE_STYLE('',(#2235));
#2237 = SURFACE_STYLE_USAGE(.BOTH.,#2236);
#2238 = PRESENTATION_STYLE_ASSIGNMENT((#2237));
#2239 = STYLED_ITEM('',(#2238),#2231);
#2240 = CARTESIAN_POINT('',(4.125,-0.315,7.4));
#2241 = VERTEX_POINT('',#2240);
#2242 = CARTESIAN_POINT('',(3.495,-0.315,7.4));
#2243 = VERTEX_POINT('',#2242);
#2244 = CARTESIAN_POINT('',(3.495,-0.315,2.));
#2245 = VERTEX_POINT('',#2244);
#2246 = CARTESIAN_POINT('',(4.125,-0.315,2.));
#2247 = VERTEX_POINT('',#2246);
#2248 = DIRECTION('',(1.,0.,0.));
#2249 = VECTOR('',#2248,1.);
#2250 = LINE('',#2242,#2249);
#2251 = EDGE_CURVE('',#2243,#2241,#2250,.T.);
#2252 = ORIENTED_EDGE('',*,*,#2251,.F.);
#2253 = DIRECTION('',(0.,0.,1.));
#2254 = VECTOR('',#2253,1.);
#2255 = LINE('',#2244,#2254);
#2256 = EDGE_CURVE('',#2245,#2243,#2255,.T.);
#2257 = ORIENTED_EDGE('',*,*,#2256,.F.);
#2258 = DIRECTION('',(1.,0.,0.));
#2259 = VECTOR('',#2258,1.);
#2260 = LINE('',#2244,#2259);
#2261 = EDGE_CURVE('',#2245,#2247,#2260,.T.);
#2262 = ORIENTED_EDGE('',*,*,#2261,.T.);
#2263 = DIRECTION('',(0.,0.,1.));
#2264 = VECTOR('',#2263,1.);
#2265 = LINE('',#2246,#2264);
#2266 = EDGE_CURVE('',#2247,#2241,#2265,.T.);
#2267 = ORIENTED_EDGE('',*,*,#2266,.T.);
#2268 = CARTESIAN_POINT('',(4.125,-0.315,7.4));
#2269 = DIRECTION('',(0.,-1.,0.));
#2270 = DIRECTION('',(-1.,0.,0.));
#2271 = AXIS2_PLACEMENT_3D('',#2268,#2269,#2270);
#2272 = PLANE('',#2271);
#2273 = EDGE_LOOP('',(#2252,#2257,#2262,#2267));
#2274 = FACE_OUTER_BOUND('',#2273,.T.);
#2275 = ADVANCED_FACE('',(#2274),#2272,.T.);
#2276 = CARTESIAN_POINT('',(3.495,0.315,2.));
#2277 = VERTEX_POINT('',#2276);
#2278 = CARTESIAN_POINT('',(3.495,0.315,7.4));
#2279 = VERTEX_POINT('',#2278);
#2280 = DIRECTION('',(0.,1.,0.));
#2281 = VECTOR('',#2280,1.);
#2282 = LINE('',#2244,#2281);
#2283 = EDGE_CURVE('',#2245,#2277,#2282,.T.);
#2284 = ORIENTED_EDGE('',*,*,#2283,.F.);
#2285 = ORIENTED_EDGE('',*,*,#2256,.T.);
#2286 = DIRECTION('',(0.,1.,0.));
#2287 = VECTOR('',#2286,1.);
#2288 = LINE('',#2242,#2287);
#2289 = EDGE_CURVE('',#2243,#2279,#2288,.T.);
#2290 = ORIENTED_EDGE('',*,*,#2289,.T.);
#2291 = DIRECTION('',(0.,0.,1.));
#2292 = VECTOR('',#2291,1.);
#2293 = LINE('',#2276,#2292);
#2294 = EDGE_CURVE('',#2277,#2279,#2293,.T.);
#2295 = ORIENTED_EDGE('',*,*,#2294,.F.);
#2296 = CARTESIAN_POINT('',(3.495,0.315,2.));
#2297 = DIRECTION('',(-1.,0.,0.));
#2298 = DIRECTION('',(0.,-1.,0.));
#2299 = AXIS2_PLACEMENT_3D('',#2296,#2297,#2298);
#2300 = PLANE('',#2299);
#2301 = EDGE_LOOP('',(#2284,#2285,#2290,#2295));
#2302 = FACE_OUTER_BOUND('',#2301,.T.);
#2303 = ADVANCED_FACE('',(#2302),#2300,.T.);
#2304 = CARTESIAN_POINT('',(4.125,0.315,2.));
#2305 = VERTEX_POINT('',#2304);
#2306 = DIRECTION('',(1.,0.,0.));
#2307 = VECTOR('',#2306,1.);
#2308 = LINE('',#2276,#2307);
#2309 = EDGE_CURVE('',#2277,#2305,#2308,.T.);
#2310 = ORIENTED_EDGE('',*,*,#2309,.T.);
#2311 = DIRECTION('',(0.,1.,0.));
#2312 = VECTOR('',#2311,1.);
#2313 = LINE('',#2246,#2312);
#2314 = EDGE_CURVE('',#2247,#2305,#2313,.T.);
#2315 = ORIENTED_EDGE('',*,*,#2314,.F.);
#2316 = ORIENTED_EDGE('',*,*,#2261,.F.);
#2317 = ORIENTED_EDGE('',*,*,#2283,.T.);
#2318 = CARTESIAN_POINT('',(3.495,0.315,2.));
#2319 = DIRECTION('',(0.,0.,-1.));
#2320 = DIRECTION('',(1.,0.,0.));
#2321 = AXIS2_PLACEMENT_3D('',#2318,#2319,#2320);
#2322 = PLANE('',#2321);
#2323 = EDGE_LOOP('',(#2310,#2315,#2316,#2317));
#2324 = FACE_OUTER_BOUND('',#2323,.T.);
#2325 = ADVANCED_FACE('',(#2324),#2322,.T.);
#2326 = CARTESIAN_POINT('',(3.985,-0.175,8.));
#2327 = VERTEX_POINT('',#2326);
#2328 = CARTESIAN_POINT('',(3.6350000000000002,-0.175,8.));
#2329 = VERTEX_POINT('',#2328);
#2330 = DIRECTION('',(1.,0.,0.));
#2331 = VECTOR('',#2330,1.);
#2332 = LINE('',#2328,#2331);
#2333 = EDGE_CURVE('',#2329,#2327,#2332,.T.);
#2334 = ORIENTED_EDGE('',*,*,#2333,.F.);
#2335 = DIRECTION('',(0.22158112824152176,0.22158112824152157,0.9496334067493776));
#2336 = VECTOR('',#2335,1.);
#2337 = LINE('',#2242,#2336);
#2338 = EDGE_CURVE('',#2243,#2329,#2337,.T.);
#2339 = ORIENTED_EDGE('',*,*,#2338,.F.);
#2340 = ORIENTED_EDGE('',*,*,#2251,.T.);
#2341 = DIRECTION('',(0.22158112824152176,-0.22158112824152157,-0.9496334067493776));
#2342 = VECTOR('',#2341,1.);
#2343 = LINE('',#2326,#2342);
#2344 = EDGE_CURVE('',#2327,#2241,#2343,.T.);
#2345 = ORIENTED_EDGE('',*,*,#2344,.F.);
#2346 = CARTESIAN_POINT('',(3.985,-0.175,8.));
#2347 = DIRECTION('',(0.,-0.9738412097417931,0.2272296156064186));
#2348 = DIRECTION('',(-1.,0.,0.));
#2349 = AXIS2_PLACEMENT_3D('',#2346,#2347,#2348);
#2350 = PLANE('',#2349);
#2351 = EDGE_LOOP('',(#2334,#2339,#2340,#2345));
#2352 = FACE_OUTER_BOUND('',#2351,.T.);
#2353 = ADVANCED_FACE('',(#2352),#2350,.T.);
#2354 = CARTESIAN_POINT('',(4.125,0.315,7.4));
#2355 = VERTEX_POINT('',#2354);
#2356 = DIRECTION('',(0.,0.,1.));
#2357 = VECTOR('',#2356,1.);
#2358 = LINE('',#2304,#2357);
#2359 = EDGE_CURVE('',#2305,#2355,#2358,.T.);
#2360 = ORIENTED_EDGE('',*,*,#2359,.F.);
#2361 = ORIENTED_EDGE('',*,*,#2309,.F.);
#2362 = ORIENTED_EDGE('',*,*,#2294,.T.);
#2363 = DIRECTION('',(1.,0.,0.));
#2364 = VECTOR('',#2363,1.);
#2365 = LINE('',#2278,#2364);
#2366 = EDGE_CURVE('',#2279,#2355,#2365,.T.);
#2367 = ORIENTED_EDGE('',*,*,#2366,.T.);
#2368 = CARTESIAN_POINT('',(4.125,0.315,7.4));
#2369 = DIRECTION('',(0.,1.,0.));
#2370 = DIRECTION('',(0.,0.,-1.));
#2371 = AXIS2_PLACEMENT_3D('',#2368,#2369,#2370);
#2372 = PLANE('',#2371);
#2373 = EDGE_LOOP('',(#2360,#2361,#2362,#2367));
#2374 = FACE_OUTER_BOUND('',#2373,.T.);
#2375 = ADVANCED_FACE('',(#2374),#2372,.T.);
#2376 = CARTESIAN_POINT('',(3.985,0.175,8.));
#2377 = VERTEX_POINT('',#2376);
#2378 = DIRECTION('',(0.22158112824152176,0.22158112824152157,-0.9496334067493776));
#2379 = VECTOR('',#2378,1.);
#2380 = LINE('',#2376,#2379);
#2381 = EDGE_CURVE('',#2377,#2355,#2380,.T.);
#2382 = ORIENTED_EDGE('',*,*,#2381,.F.);
#2383 = DIRECTION('',(0.,1.,0.));
#2384 = VECTOR('',#2383,1.);
#2385 = LINE('',#2326,#2384);
#2386 = EDGE_CURVE('',#2327,#2377,#2385,.T.);
#2387 = ORIENTED_EDGE('',*,*,#2386,.F.);
#2388 = ORIENTED_EDGE('',*,*,#2344,.T.);
#2389 = DIRECTION('',(0.,1.,0.));
#2390 = VECTOR('',#2389,1.);
#2391 = LINE('',#2240,#2390);
#2392 = EDGE_CURVE('',#2241,#2355,#2391,.T.);
#2393 = ORIENTED_EDGE('',*,*,#2392,.T.);
#2394 = CARTESIAN_POINT('',(4.125,0.315,7.4));
#2395 = DIRECTION('',(0.9738412097417933,0.,0.2272296156064183));
#2396 = DIRECTION('',(-0.22158112824152176,-0.22158112824152157,0.9496334067493776));
#2397 = AXIS2_PLACEMENT_3D('',#2394,#2395,#2396);
#2398 = PLANE('',#2397);
#2399 = EDGE_LOOP('',(#2382,#2387,#2388,#2393));
#2400 = FACE_OUTER_BOUND('',#2399,.T.);
#2401 = ADVANCED_FACE('',(#2400),#2398,.T.);
#2402 = ORIENTED_EDGE('',*,*,#2392,.F.);
#2403 = ORIENTED_EDGE('',*,*,#2266,.F.);
#2404 = ORIENTED_EDGE('',*,*,#2314,.T.);
#2405 = ORIENTED_EDGE('',*,*,#2359,.T.);
#2406 = CARTESIAN_POINT('',(4.125,0.315,7.4));
#2407 = DIRECTION('',(1.,0.,0.));
#2408 = DIRECTION('',(0.,-1.,0.));
#2409 = AXIS2_PLACEMENT_3D('',#2406,#2407,#2408);
#2410 = PLANE('',#2409);
#2411 = EDGE_LOOP('',(#2402,#2403,#2404,#2405));
#2412 = FACE_OUTER_BOUND('',#2411,.T.);
#2413 = ADVANCED_FACE('',(#2412),#2410,.T.);
#2414 = CARTESIAN_POINT('',(3.6350000000000002,0.175,8.));
#2415 = VERTEX_POINT('',#2414);
#2416 = DIRECTION('',(0.,1.,0.));
#2417 = VECTOR('',#2416,1.);
#2418 = LINE('',#2328,#2417);
#2419 = EDGE_CURVE('',#2329,#2415,#2418,.T.);
#2420 = ORIENTED_EDGE('',*,*,#2419,.F.);
#2421 = ORIENTED_EDGE('',*,*,#2333,.T.);
#2422 = ORIENTED_EDGE('',*,*,#2386,.T.);
#2423 = DIRECTION('',(1.,0.,0.));
#2424 = VECTOR('',#2423,1.);
#2425 = LINE('',#2414,#2424);
#2426 = EDGE_CURVE('',#2415,#2377,#2425,.T.);
#2427 = ORIENTED_EDGE('',*,*,#2426,.F.);
#2428 = CARTESIAN_POINT('',(3.6350000000000002,0.175,8.));
#2429 = DIRECTION('',(0.,0.,1.));
#2430 = DIRECTION('',(0.,-1.,0.));
#2431 = AXIS2_PLACEMENT_3D('',#2428,#2429,#2430);
#2432 = PLANE('',#2431);
#2433 = EDGE_LOOP('',(#2420,#2421,#2422,#2427));
#2434 = FACE_OUTER_BOUND('',#2433,.T.);
#2435 = ADVANCED_FACE('',(#2434),#2432,.T.);
#2436 = ORIENTED_EDGE('',*,*,#2426,.T.);
#2437 = ORIENTED_EDGE('',*,*,#2381,.T.);
#2438 = ORIENTED_EDGE('',*,*,#2366,.F.);
#2439 = DIRECTION('',(0.22158112824152176,-0.22158112824152157,0.9496334067493776));
#2440 = VECTOR('',#2439,1.);
#2441 = LINE('',#2278,#2440);
#2442 = EDGE_CURVE('',#2279,#2415,#2441,.T.);
#2443 = ORIENTED_EDGE('',*,*,#2442,.T.);
#2444 = CARTESIAN_POINT('',(3.6350000000000002,0.175,8.));
#2445 = DIRECTION('',(0.,0.9738412097417931,0.2272296156064186));
#2446 = DIRECTION('',(1.,0.,0.));
#2447 = AXIS2_PLACEMENT_3D('',#2444,#2445,#2446);
#2448 = PLANE('',#2447);
#2449 = EDGE_LOOP('',(#2436,#2437,#2438,#2443));
#2450 = FACE_OUTER_BOUND('',#2449,.T.);
#2451 = ADVANCED_FACE('',(#2450),#2448,.T.);
#2452 = ORIENTED_EDGE('',*,*,#2442,.F.);
#2453 = ORIENTED_EDGE('',*,*,#2289,.F.);
#2454 = ORIENTED_EDGE('',*,*,#2338,.T.);
#2455 = ORIENTED_EDGE('',*,*,#2419,.T.);
#2456 = CARTESIAN_POINT('',(3.6350000000000002,0.175,8.));
#2457 = DIRECTION('',(-0.9738412097417933,0.,0.2272296156064183));
#2458 = DIRECTION('',(-0.22158112824152176,0.22158112824152157,-0.9496334067493776));
#2459 = AXIS2_PLACEMENT_3D('',#2456,#2457,#2458);
#2460 = PLANE('',#2459);
#2461 = EDGE_LOOP('',(#2452,#2453,#2454,#2455));
#2462 = FACE_OUTER_BOUND('',#2461,.T.);
#2463 = ADVANCED_FACE('',(#2462),#2460,.T.);
#2464 = CLOSED_SHELL('',(#2275,#2303,#2325,#2353,#2375,#2401,#2413,#2435,#2451,#2463));
#2465 = MANIFOLD_SOLID_BREP('',#2464);
#2466 = COLOUR_RGB('',0.7529411764705882,0.7529411764705882,0.7529411764705882);
#2467 = FILL_AREA_STYLE_COLOUR('',#2466);
#2468 = FILL_AREA_STYLE('',(#2467));
#2469 = SURFACE_STYLE_FILL_AREA(#2468);
#2470 = SURFACE_SIDE_STYLE('',(#2469));
#2471 = SURFACE_STYLE_USAGE(.BOTH.,#2470);
#2472 = PRESENTATION_STYLE_ASSIGNMENT((#2471));
#2473 = STYLED_ITEM('',(#2472),#2465);
#2474 = ADVANCED_BREP_SHAPE_REPRESENTATION('',(#17,#155,#389,#623,#769,#1003,#1237,#1383,#1617,#1851,#1997,#2231,#2465),#13);
#2475 = SHAPE_DEFINITION_REPRESENTATION(#8,#2474);
#2476 = MECHANICAL_DESIGN_GEOMETRIC_PRESENTATION_REPRESENTATION('',(#163,#397,#631,#777,#1011,#1245,#1391,#1625,#1859,#2005,#2239,#2473),#13);
ENDSEC;
END-ISO-10303-21;