ISO-10303-21;
HEADER;
FILE_DESCRIPTION(('shape.step'),'2;1');
FILE_NAME('shape.step','2026-10-04',('tscircuit'),('tscircuit'),'generator','','');
FILE_SCHEMA(('AUTOMOTIVE_DESIGN { 1 0 10303 214 1 1 1 1 }'));
ENDSEC;
DATA;
#1 = APPLICATION_CONTEXT('core data for automotive mechanical design processes');
#2 = APPLICATION_PROTOCOL_DEFINITION('international standard','automotive_design',2000,#1);
#3 = PRODUCT_CONTEXT('',#1,'mechanical');
#4 = PRODUCT('shape','shape','',(#3));
#5 = PRODUCT_DEFINITION_CONTEXT('part definition',#1,'design');
#6 = PRODUCT_DEFINITION_FORMATION('','',#4);
#7 = PRODUCT_DEFINITION('design','',#6,#5);
#8 = PRODUCT_DEFINITION_SHAPE('','',#7);
#9 = (
LENGTH_UNIT()
NAMED_UNIT(*)
SI_UNIT(.MILLI.,.METRE.)
);
#10 = (
NAMED_UNIT(*)
PLANE_ANGLE_UNIT()
SI_UNIT($,.RADIAN.)
);
#11 = (
NAMED_UNIT(*)
SI_UNIT($,.STERADIAN.)
SOLID_ANGLE_UNIT()
);
#12 = UNCERTAINTY_MEASURE_WITH_UNIT(LENGTH_MEASURE(1.E-07),#9,'distance_accuracy_value','confusion accuracy');
#13 = (
GEOMETRIC_REPRESENTATION_CONTEXT(3)
GLOBAL_UNCERTAINTY_ASSIGNED_CONTEXT((#12))
GLOBAL_UNIT_ASSIGNED_CONTEXT((#9,#10,#11))
REPRESENTATION_CONTEXT('Context #1','3D
Context with
TORTURE://UNITS')
);
#14 = CARTESIAN_POINT('',(0.,0.,0.));
#15 = DIRECTION('',(0.,0.,1.));
#16 = DIRECTION('',(1.,0.,0.));
#17 = AXIS2_PLACEMENT_3D('',#14,#15,#16);
#18 = CARTESIAN_POINT('',(-3.81,-1.27,0.));
#19 = VERTEX_POINT('',#18);
#20 = CARTESIAN_POINT('',(-3.81,-1.27,2.));
#21 = VERTEX_POINT('',#20);
#22 = CARTESIAN_POINT('',(-3.81,1.27,2.));
#23 = VERTEX_POINT('',#22);
#24 = CARTESIAN_POINT('',(-3.81,1.27,0.));
#25 = VERTEX_POINT('',#24);
#26 = DIRECTION('',(0.,0.,1.));
#27 = VECTOR('',#26,1.);
#28 = LINE('',#18,#27);
#29 = EDGE_CURVE('',#19,#21,#28,.T.);
#30 = ORIENTED_EDGE('',*,*,#29,.T.);
#31 = DIRECTION('',(0.,1.,0.));
#32 = VECTOR('',#31,1.);
#33 = LINE('',#20,#32);
#34 = EDGE_CURVE('',#21,#23,#33,.T.);
#35 = ORIENTED_EDGE('',*,*,#34,.T.);
#36 = DIRECTION('',(0.,0.,1.));
#37 = VECTOR('',#36,1.);
#38 = LINE('',#24,#37);
#39 = EDGE_CURVE('',#25,#23,#38,.T.);
#40 = ORIENTED_EDGE('',*,*,#39,.F.);
#41 = DIRECTION('',(0.,1.,0.));
#42 = VECTOR('',#41,1.);
#43 = LINE('',#18,#42);
#44 = EDGE_CURVE('',#19,#25,#43,.T.);
#45 = ORIENTED_EDGE('',*,*,#44,.F.);
#46 = CARTESIAN_POINT('',(-3.81,-1.27,0.));
#47 = DIRECTION('',(-1.,0.,0.));
#48 = DIRECTION('',(0.,0.,1.));
#49 = AXIS2_PLACEMENT_3D('',#46,#47,#48);
#50 = PLANE('',#49);
#51 = EDGE_LOOP('',(#30,#35,#40,#45));
#52 = FACE_OUTER_BOUND('',#51,.T.);
#53 = ADVANCED_FACE('',(#52),#50,.T.);
#54 = CARTESIAN_POINT('',(-1.27,-1.27,0.));
#55 = VERTEX_POINT('',#54);
#56 = CARTESIAN_POINT('',(-1.27,1.27,0.));
#57 = VERTEX_POINT('',#56);
#58 = CARTESIAN_POINT('',(-1.27,1.27,2.));
#59 = VERTEX_POINT('',#58);
#60 = CARTESIAN_POINT('',(-1.27,-1.27,2.));
#61 = VERTEX_POINT('',#60);
#62 = DIRECTION('',(0.,1.,0.));
#63 = VECTOR('',#62,1.);
#64 = LINE('',#54,#63);
#65 = EDGE_CURVE('',#55,#57,#64,.T.);
#66 = ORIENTED_EDGE('',*,*,#65,.T.);
#67 = DIRECTION('',(0.,0.,1.));
#68 = VECTOR('',#67,1.);
#69 = LINE('',#56,#68);
#70 = EDGE_CURVE('',#57,#59,#69,.T.);
#71 = ORIENTED_EDGE('',*,*,#70,.T.);
#72 = DIRECTION('',(0.,1.,0.));
#73 = VECTOR('',#72,1.);
#74 = LINE('',#60,#73);
#75 = EDGE_CURVE('',#61,#59,#74,.T.);
#76 = ORIENTED_EDGE('',*,*,#75,.F.);
#77 = DIRECTION('',(0.,0.,1.));
#78 = VECTOR('',#77,1.);
#79 = LINE('',#54,#78);
#80 = EDGE_CURVE('',#55,#61,#79,.T.);
#81 = ORIENTED_EDGE('',*,*,#80,.F.);
#82 = CARTESIAN_POINT('',(-1.27,-1.27,0.));
#83 = DIRECTION('',(1.,0.,0.));
#84 = DIRECTION('',(0.,1.,0.));
#85 = AXIS2_PLACEMENT_3D('',#82,#83,#84);
#86 = PLANE('',#85);
#87 = EDGE_LOOP('',(#66,#71,#76,#81));
#88 = FACE_OUTER_BOUND('',#87,.T.);
#89 = ADVANCED_FACE('',(#88),#86,.T.);
#90 = DIRECTION('',(-1.,0.,0.));
#91 = VECTOR('',#90,1.);
#92 = LINE('',#54,#91);
#93 = EDGE_CURVE('',#55,#19,#92,.T.);
#94 = ORIENTED_EDGE('',*,*,#93,.F.);
#95 = ORIENTED_EDGE('',*,*,#80,.T.);
#96 = DIRECTION('',(-1.,0.,0.));
#97 = VECTOR('',#96,1.);
#98 = LINE('',#60,#97);
#99 = EDGE_CURVE('',#61,#21,#98,.T.);
#100 = ORIENTED_EDGE('',*,*,#99,.T.);
#101 = ORIENTED_EDGE('',*,*,#29,.F.);
#102 = CARTESIAN_POINT('',(-3.81,-1.27,0.));
#103 = DIRECTION('',(0.,-1.,0.));
#104 = DIRECTION('',(1.,0.,0.));
#105 = AXIS2_PLACEMENT_3D('',#102,#103,#104);
#106 = PLANE('',#105);
#107 = EDGE_LOOP('',(#94,#95,#100,#101));
#108 = FACE_OUTER_BOUND('',#107,.T.);
#109 = ADVANCED_FACE('',(#108),#106,.T.);
#110 = ORIENTED_EDGE('',*,*,#39,.T.);
#111 = DIRECTION('',(-1.,0.,0.));
#112 = VECTOR('',#111,1.);
#113 = LINE('',#58,#112);
#114 = EDGE_CURVE('',#59,#23,#113,.T.);
#115 = ORIENTED_EDGE('',*,*,#114,.F.);
#116 = ORIENTED_EDGE('',*,*,#70,.F.);
#117 = DIRECTION('',(-1.,0.,0.));
#118 = VECTOR('',#117,1.);
#119 = LINE('',#56,#118);
#120 = EDGE_CURVE('',#57,#25,#119,.T.);
#121 = ORIENTED_EDGE('',*,*,#120,.T.);
#122 = CARTESIAN_POINT('',(-3.81,1.27,0.));
#123 = DIRECTION('',(0.,1.,0.));
#124 = DIRECTION('',(0.,0.,1.));
#125 = AXIS2_PLACEMENT_3D('',#122,#123,#124);
#126 = PLANE('',#125);
#127 = EDGE_LOOP('',(#110,#115,#116,#121));
#128 = FACE_OUTER_BOUND('',#127,.T.);
#129 = ADVANCED_FACE('',(#128),#126,.T.);
#130 = ORIENTED_EDGE('',*,*,#44,.T.);
#131 = ORIENTED_EDGE('',*,*,#120,.F.);
#132 = ORIENTED_EDGE('',*,*,#65,.F.);
#133 = ORIENTED_EDGE('',*,*,#93,.T.);
#134 = CARTESIAN_POINT('',(-3.81,-1.27,0.));
#135 = DIRECTION('',(0.,0.,-1.));
#136 = DIRECTION('',(0.,1.,0.));
#137 = AXIS2_PLACEMENT_3D('',#134,#135,#136);
#138 = PLANE('',#137);
#139 = EDGE_LOOP('',(#130,#131,#132,#133));
#140 = FACE_OUTER_BOUND('',#139,.T.);
#141 = ADVANCED_FACE('',(#140),#138,.T.);
#142 = ORIENTED_EDGE('',*,*,#99,.F.);
#143 = ORIENTED_EDGE('',*,*,#75,.T.);
#144 = ORIENTED_EDGE('',*,*,#114,.T.);
#145 = ORIENTED_EDGE('',*,*,#34,.F.);
#146 = CARTESIAN_POINT('',(-3.81,-1.27,2.));
#147 = DIRECTION('',(0.,0.,1.));
#148 = DIRECTION('',(1.,0.,0.));
#149 = AXIS2_PLACEMENT_3D('',#146,#147,#148);
#150 = PLANE('',#149);
#151 = EDGE_LOOP('',(#142,#143,#144,#145));
#152 = FACE_OUTER_BOUND('',#151,.T.);
#153 = ADVANCED_FACE('',(#152),#150,.T.);
#154 = CLOSED_SHELL('',(#53,#89,#109,#129,#141,#153));
#155 = MANIFOLD_SOLID_BREP('',#154);
#156 = COLOUR_RGB('',0.13333333333333333,0.13333333333333333,0.13333333333333333);
#157 = FILL_AREA_STYLE_COLOUR('',#156);
#158 = FILL_AREA_STYLE('',(#157));
#159 = SURFACE_STYLE_FILL_AREA(#158);
#160 = SURFACE_SIDE_STYLE('',(#159));
#161 = SURFACE_STYLE_USAGE(.BOTH.,#160);
#162 = PRESENTATION_STYLE_ASSIGNMENT((#161));
#163 = STYLED_ITEM('',(#162),#155);
#164 = CARTESIAN_POINT('',(-2.225,-0.315,0.5500000000000003));
#165 = VERTEX_POINT('',#164);
#166 = CARTESIAN_POINT('',(-2.225,0.315,0.5500000000000003));
#167 = VERTEX_POINT('',#166);
#168 = CARTESIAN_POINT('',(-2.855,0.315,0.5500000000000003));
#169 = VERTEX_POINT('',#168);
#170 = CARTESIAN_POINT('',(-2.855,-0.315,0.5500000000000003));
#171 = VERTEX_POINT('',#170);
#172 = DIRECTION('',(0.,1.,0.));
#173 = VECTOR('',#172,1.);
#174 = LINE('',#164,#173);
#175 = EDGE_CURVE('',#165,#167,#174,.T.);
#176 = ORIENTED_EDGE('',*,*,#175,.T.);
#177 = DIRECTION('',(-1.,0.,0.));
#178 = VECTOR('',#177,1.);
#179 = LINE('',#166,#178);
#180 = EDGE_CURVE('',#167,#169,#179,.T.);
#181 = ORIENTED_EDGE('',*,*,#180,.T.);
#182 = DIRECTION('',(0.,1.,0.));
#183 = VECTOR('',#182,1.);
#184 = LINE('',#170,#183);
#185 = EDGE_CURVE('',#171,#169,#184,.T.);
#186 = ORIENTED_EDGE('',*,*,#185,.F.);
#187 = DIRECTION('',(-1.,0.,0.));
#188 = VECTOR('',#187,1.);
#189 = LINE('',#164,#188);
#190 = EDGE_CURVE('',#165,#171,#189,.T.);
#191 = ORIENTED_EDGE('',*,*,#190,.F.);
#192 = CARTESIAN_POINT('',(-2.225,-0.315,0.5500000000000003));
#193 = DIRECTION('',(0.,0.,1.));
#194 = DIRECTION('',(0.,1.,0.));
#195 = AXIS2_PLACEMENT_3D('',#192,#193,#194);
#196 = PLANE('',#195);
#197 = EDGE_LOOP('',(#176,#181,#186,#191));
#198 = FACE_OUTER_BOUND('',#197,.T.);
#199 = ADVANCED_FACE('',(#198),#196,.T.);
#200 = CARTESIAN_POINT('',(-2.855,0.315,-2.15));
#201 = VERTEX_POINT('',#200);
#202 = CARTESIAN_POINT('',(-2.225,0.315,-2.15));
#203 = VERTEX_POINT('',#202);
#204 = DIRECTION('',(0.,0.,1.));
#205 = VECTOR('',#204,1.);
#206 = LINE('',#200,#205);
#207 = EDGE_CURVE('',#201,#169,#206,.T.);
#208 = ORIENTED_EDGE('',*,*,#207,.T.);
#209 = ORIENTED_EDGE('',*,*,#180,.F.);
#210 = DIRECTION('',(0.,0.,1.));
#211 = VECTOR('',#210,1.);
#212 = LINE('',#202,#211);
#213 = EDGE_CURVE('',#203,#167,#212,.T.);
#214 = ORIENTED_EDGE('',*,*,#213,.F.);
#215 = DIRECTION('',(-1.,0.,0.));
#216 = VECTOR('',#215,1.);
#217 = LINE('',#202,#216);
#218 = EDGE_CURVE('',#203,#201,#217,.T.);
#219 = ORIENTED_EDGE('',*,*,#218,.T.);
#220 = CARTESIAN_POINT('',(-2.855,0.315,-2.15));
#221 = DIRECTION('',(0.,1.,0.));
#222 = DIRECTION('',(0.,0.,1.));
#223 = AXIS2_PLACEMENT_3D('',#220,#221,#222);
#224 = PLANE('',#223);
#225 = EDGE_LOOP('',(#208,#209,#214,#219));
#226 = FACE_OUTER_BOUND('',#225,.T.);
#227 = ADVANCED_FACE('',(#226),#224,.T.);
#228 = CARTESIAN_POINT('',(-2.855,-0.315,-2.15));
#229 = VERTEX_POINT('',#228);
#230 = DIRECTION('',(0.,1.,0.));
#231 = VECTOR('',#230,1.);
#232 = LINE('',#228,#231);
#233 = EDGE_CURVE('',#229,#201,#232,.T.);
#234 = ORIENTED_EDGE('',*,*,#233,.F.);
#235 = DIRECTION('',(0.,0.,1.));
#236 = VECTOR('',#235,1.);
#237 = LINE('',#228,#236);
#238 = EDGE_CURVE('',#229,#171,#237,.T.);
#239 = ORIENTED_EDGE('',*,*,#238,.T.);
#240 = ORIENTED_EDGE('',*,*,#185,.T.);
#241 = ORIENTED_EDGE('',*,*,#207,.F.);
#242 = CARTESIAN_POINT('',(-2.855,0.315,-2.15));
#243 = DIRECTION('',(-1.,0.,0.));
#244 = DIRECTION('',(0.,-1.,0.));
#245 = AXIS2_PLACEMENT_3D('',#242,#243,#244);
#246 = PLANE('',#245);
#247 = EDGE_LOOP('',(#234,#239,#240,#241));
#248 = FACE_OUTER_BOUND('',#247,.T.);
#249 = ADVANCED_FACE('',(#248),#246,.T.);
#250 = CARTESIAN_POINT('',(-2.225,-0.315,-2.15));
#251 = VERTEX_POINT('',#250);
#252 = DIRECTION('',(0.,1.,0.));
#253 = VECTOR('',#252,1.);
#254 = LINE('',#250,#253);
#255 = EDGE_CURVE('',#251,#203,#254,.T.);
#256 = ORIENTED_EDGE('',*,*,#255,.T.);
#257 = ORIENTED_EDGE('',*,*,#213,.T.);
#258 = ORIENTED_EDGE('',*,*,#175,.F.);
#259 = DIRECTION('',(0.,0.,1.));
#260 = VECTOR('',#259,1.);
#261 = LINE('',#250,#260);
#262 = EDGE_CURVE('',#251,#165,#261,.T.);
#263 = ORIENTED_EDGE('',*,*,#262,.F.);
#264 = CARTESIAN_POINT('',(-2.225,-0.315,-2.15));
#265 = DIRECTION('',(1.,0.,0.));
#266 = DIRECTION('',(0.,1.,0.));
#267 = AXIS2_PLACEMENT_3D('',#264,#265,#266);
#268 = PLANE('',#267);
#269 = EDGE_LOOP('',(#256,#257,#258,#263));
#270 = FACE_OUTER_BOUND('',#269,.T.);
#271 = ADVANCED_FACE('',(#270),#268,.T.);
#272 = ORIENTED_EDGE('',*,*,#262,.T.);
#273 = ORIENTED_EDGE('',*,*,#190,.T.);
#274 = ORIENTED_EDGE('',*,*,#238,.F.);
#275 = DIRECTION('',(-1.,0.,0.));
#276 = VECTOR('',#275,1.);
#277 = LINE('',#250,#276);
#278 = EDGE_CURVE('',#251,#229,#277,.T.);
#279 = ORIENTED_EDGE('',*,*,#278,.F.);
#280 = CARTESIAN_POINT('',(-2.225,-0.315,-2.15));
#281 = DIRECTION('',(0.,-1.,0.));
#282 = DIRECTION('',(0.,0.,1.));
#283 = AXIS2_PLACEMENT_3D('',#280,#281,#282);
#284 = PLANE('',#283);
#285 = EDGE_LOOP('',(#272,#273,#274,#279));
#286 = FACE_OUTER_BOUND('',#285,.T.);
#287 = ADVANCED_FACE('',(#286),#284,.T.);
#288 = CARTESIAN_POINT('',(-2.715,0.175,-2.5));
#289 = VERTEX_POINT('',#288);
#290 = CARTESIAN_POINT('',(-2.365,0.175,-2.5));
#291 = VERTEX_POINT('',#290);
#292 = DIRECTION('',(-0.34815531191139587,0.3481553119113956,0.8703882797784892));
#293 = VECTOR('',#292,1.);
#294 = LINE('',#288,#293);
#295 = EDGE_CURVE('',#289,#201,#294,.T.);
#296 = ORIENTED_EDGE('',*,*,#295,.T.);
#297 = ORIENTED_EDGE('',*,*,#218,.F.);
#298 = DIRECTION('',(-0.34815531191139587,-0.3481553119113956,-0.8703882797784892));
#299 = VECTOR('',#298,1.);
#300 = LINE('',#202,#299);
#301 = EDGE_CURVE('',#203,#291,#300,.T.);
#302 = ORIENTED_EDGE('',*,*,#301,.T.);
#303 = DIRECTION('',(-1.,0.,0.));
#304 = VECTOR('',#303,1.);
#305 = LINE('',#290,#304);
#306 = EDGE_CURVE('',#291,#289,#305,.T.);
#307 = ORIENTED_EDGE('',*,*,#306,.T.);
#308 = CARTESIAN_POINT('',(-2.715,0.175,-2.5));
#309 = DIRECTION('',(0.,0.9284766908852596,-0.3713906763541032));
#310 = DIRECTION('',(-0.34815531191139587,0.3481553119113956,0.8703882797784892));
#311 = AXIS2_PLACEMENT_3D('',#308,#309,#310);
#312 = PLANE('',#311);
#313 = EDGE_LOOP('',(#296,#297,#302,#307));
#314 = FACE_OUTER_BOUND('',#313,.T.);
#315 = ADVANCED_FACE('',(#314),#312,.T.);
#316 = CARTESIAN_POINT('',(-2.715,-0.175,-2.5));
#317 = VERTEX_POINT('',#316);
#318 = DIRECTION('',(0.,1.,0.));
#319 = VECTOR('',#318,1.);
#320 = LINE('',#316,#319);
#321 = EDGE_CURVE('',#317,#289,#320,.T.);
#322 = ORIENTED_EDGE('',*,*,#321,.F.);
#323 = DIRECTION('',(-0.34815531191139587,-0.3481553119113956,0.8703882797784892));
#324 = VECTOR('',#323,1.);
#325 = LINE('',#316,#324);
#326 = EDGE_CURVE('',#317,#229,#325,.T.);
#327 = ORIENTED_EDGE('',*,*,#326,.T.);
#328 = ORIENTED_EDGE('',*,*,#233,.T.);
#329 = ORIENTED_EDGE('',*,*,#295,.F.);
#330 = CARTESIAN_POINT('',(-2.715,0.175,-2.5));
#331 = DIRECTION('',(-0.9284766908852592,0.,-0.37139067635410367));
#332 = DIRECTION('',(0.,-1.,0.));
#333 = AXIS2_PLACEMENT_3D('',#330,#331,#332);
#334 = PLANE('',#333);
#335 = EDGE_LOOP('',(#322,#327,#328,#329));
#336 = FACE_OUTER_BOUND('',#335,.T.);
#337 = ADVANCED_FACE('',(#336),#334,.T.);
#338 = CARTESIAN_POINT('',(-2.365,-0.175,-2.5));
#339 = VERTEX_POINT('',#338);
#340 = DIRECTION('',(-1.,0.,0.));
#341 = VECTOR('',#340,1.);
#342 = LINE('',#338,#341);
#343 = EDGE_CURVE('',#339,#317,#342,.T.);
#344 = ORIENTED_EDGE('',*,*,#343,.T.);
#345 = ORIENTED_EDGE('',*,*,#321,.T.);
#346 = ORIENTED_EDGE('',*,*,#306,.F.);
#347 = DIRECTION('',(0.,1.,0.));
#348 = VECTOR('',#347,1.);
#349 = LINE('',#338,#348);
#350 = EDGE_CURVE('',#339,#291,#349,.T.);
#351 = ORIENTED_EDGE('',*,*,#350,.F.);
#352 = CARTESIAN_POINT('',(-2.365,-0.175,-2.5));
#353 = DIRECTION('',(0.,0.,-1.));
#354 = DIRECTION('',(-1.,0.,0.));
#355 = AXIS2_PLACEMENT_3D('',#352,#353,#354);
#356 = PLANE('',#355);
#357 = EDGE_LOOP('',(#344,#345,#346,#351));
#358 = FACE_OUTER_BOUND('',#357,.T.);
#359 = ADVANCED_FACE('',(#358),#356,.T.);
#360 = ORIENTED_EDGE('',*,*,#350,.T.);
#361 = ORIENTED_EDGE('',*,*,#301,.F.);
#362 = ORIENTED_EDGE('',*,*,#255,.F.);
#363 = DIRECTION('',(-0.34815531191139587,0.3481553119113956,-0.8703882797784892));
#364 = VECTOR('',#363,1.);
#365 = LINE('',#250,#364);
#366 = EDGE_CURVE('',#251,#339,#365,.T.);
#367 = ORIENTED_EDGE('',*,*,#366,.T.);
#368 = CARTESIAN_POINT('',(-2.365,-0.175,-2.5));
#369 = DIRECTION('',(0.9284766908852592,0.,-0.37139067635410367));
#370 = DIRECTION('',(0.,1.,0.));
#371 = AXIS2_PLACEMENT_3D('',#368,#369,#370);
#372 = PLANE('',#371);
#373 = EDGE_LOOP('',(#360,#361,#362,#367));
#374 = FACE_OUTER_BOUND('',#373,.T.);
#375 = ADVANCED_FACE('',(#374),#372,.T.);
#376 = ORIENTED_EDGE('',*,*,#366,.F.);
#377 = ORIENTED_EDGE('',*,*,#278,.T.);
#378 = ORIENTED_EDGE('',*,*,#326,.F.);
#379 = ORIENTED_EDGE('',*,*,#343,.F.);
#380 = CARTESIAN_POINT('',(-2.365,-0.175,-2.5));
#381 = DIRECTION('',(0.,-0.9284766908852596,-0.3713906763541032));
#382 = DIRECTION('',(0.34815531191139587,-0.3481553119113956,0.8703882797784892));
#383 = AXIS2_PLACEMENT_3D('',#380,#381,#382);
#384 = PLANE('',#383);
#385 = EDGE_LOOP('',(#376,#377,#378,#379));
#386 = FACE_OUTER_BOUND('',#385,.T.);
#387 = ADVANCED_FACE('',(#386),#384,.T.);
#388 = CLOSED_SHELL('',(#199,#227,#249,#271,#287,#315,#337,#359,#375,#387));
#389 = MANIFOLD_SOLID_BREP('',#388);
#390 = COLOUR_RGB('',0.7529411764705882,0.7529411764705882,0.7529411764705882);
#391 = FILL_AREA_STYLE_COLOUR('',#390);
#392 = FILL_AREA_STYLE('',(#391));
#393 = SURFACE_STYLE_FILL_AREA(#392);
#394 = SURFACE_SIDE_STYLE('',(#393));
#395 = SURFACE_STYLE_USAGE(.BOTH.,#394);
#396 = PRESENTATION_STYLE_ASSIGNMENT((#395));
#397 = STYLED_ITEM('',(#396),#389);
#398 = CARTESIAN_POINT('',(-2.855,0.315,2.));
#399 = VERTEX_POINT('',#398);
#400 = CARTESIAN_POINT('',(-2.855,-0.315,2.));
#401 = VERTEX_POINT('',#400);
#402 = CARTESIAN_POINT('',(-2.855,-0.315,7.4));
#403 = VERTEX_POINT('',#402);
#404 = CARTESIAN_POINT('',(-2.855,0.315,7.4));
#405 = VERTEX_POINT('',#404);
#406 = DIRECTION('',(0.,1.,0.));
#407 = VECTOR('',#406,1.);
#408 = LINE('',#400,#407);
#409 = EDGE_CURVE('',#401,#399,#408,.T.);
#410 = ORIENTED_EDGE('',*,*,#409,.F.);
#411 = DIRECTION('',(0.,0.,1.));
#412 = VECTOR('',#411,1.);
#413 = LINE('',#400,#412);
#414 = EDGE_CURVE('',#401,#403,#413,.T.);
#415 = ORIENTED_EDGE('',*,*,#414,.T.);
#416 = DIRECTION('',(0.,1.,0.));
#417 = VECTOR('',#416,1.);
#418 = LINE('',#402,#417);
#419 = EDGE_CURVE('',#403,#405,#418,.T.);
#420 = ORIENTED_EDGE('',*,*,#419,.T.);
#421 = DIRECTION('',(0.,0.,1.));
#422 = VECTOR('',#421,1.);
#423 = LINE('',#398,#422);
#424 = EDGE_CURVE('',#399,#405,#423,.T.);
#425 = ORIENTED_EDGE('',*,*,#424,.F.);
#426 = CARTESIAN_POINT('',(-2.855,0.315,2.));
#427 = DIRECTION('',(-1.,0.,0.));
#428 = DIRECTION('',(0.,-1.,0.));
#429 = AXIS2_PLACEMENT_3D('',#426,#427,#428);
#430 = PLANE('',#429);
#431 = EDGE_LOOP('',(#410,#415,#420,#425));
#432 = FACE_OUTER_BOUND('',#431,.T.);
#433 = ADVANCED_FACE('',(#432),#430,.T.);
#434 = CARTESIAN_POINT('',(-2.225,0.315,7.4));
#435 = VERTEX_POINT('',#434);
#436 = CARTESIAN_POINT('',(-2.225,0.315,2.));
#437 = VERTEX_POINT('',#436);
#438 = DIRECTION('',(0.,0.,1.));
#439 = VECTOR('',#438,1.);
#440 = LINE('',#436,#439);
#441 = EDGE_CURVE('',#437,#435,#440,.T.);
#442 = ORIENTED_EDGE('',*,*,#441,.F.);
#443 = DIRECTION('',(-1.,0.,0.));
#444 = VECTOR('',#443,1.);
#445 = LINE('',#436,#444);
#446 = EDGE_CURVE('',#437,#399,#445,.T.);
#447 = ORIENTED_EDGE('',*,*,#446,.T.);
#448 = ORIENTED_EDGE('',*,*,#424,.T.);
#449 = DIRECTION('',(-1.,0.,0.));
#450 = VECTOR('',#449,1.);
#451 = LINE('',#434,#450);
#452 = EDGE_CURVE('',#435,#405,#451,.T.);
#453 = ORIENTED_EDGE('',*,*,#452,.F.);
#454 = CARTESIAN_POINT('',(-2.225,0.315,7.4));
#455 = DIRECTION('',(0.,1.,0.));
#456 = DIRECTION('',(0.,0.,-1.));
#457 = AXIS2_PLACEMENT_3D('',#454,#455,#456);
#458 = PLANE('',#457);
#459 = EDGE_LOOP('',(#442,#447,#448,#453));
#460 = FACE_OUTER_BOUND('',#459,.T.);
#461 = ADVANCED_FACE('',(#460),#458,.T.);
#462 = CARTESIAN_POINT('',(-2.715,0.175,8.));
#463 = VERTEX_POINT('',#462);
#464 = CARTESIAN_POINT('',(-2.715,-0.175,8.));
#465 = VERTEX_POINT('',#464);
#466 = DIRECTION('',(-0.22158112824152176,0.22158112824152157,-0.9496334067493776));
#467 = VECTOR('',#466,1.);
#468 = LINE('',#462,#467);
#469 = EDGE_CURVE('',#463,#405,#468,.T.);
#470 = ORIENTED_EDGE('',*,*,#469,.T.);
#471 = ORIENTED_EDGE('',*,*,#419,.F.);
#472 = DIRECTION('',(-0.22158112824152176,-0.22158112824152157,-0.9496334067493776));
#473 = VECTOR('',#472,1.);
#474 = LINE('',#464,#473);
#475 = EDGE_CURVE('',#465,#403,#474,.T.);
#476 = ORIENTED_EDGE('',*,*,#475,.F.);
#477 = DIRECTION('',(0.,1.,0.));
#478 = VECTOR('',#477,1.);
#479 = LINE('',#464,#478);
#480 = EDGE_CURVE('',#465,#463,#479,.T.);
#481 = ORIENTED_EDGE('',*,*,#480,.T.);
#482 = CARTESIAN_POINT('',(-2.715,0.175,8.));
#483 = DIRECTION('',(-0.9738412097417933,0.,0.2272296156064183));
#484 = DIRECTION('',(-0.22158112824152176,0.22158112824152157,-0.9496334067493776));
#485 = AXIS2_PLACEMENT_3D('',#482,#483,#484);
#486 = PLANE('',#485);
#487 = EDGE_LOOP('',(#470,#471,#476,#481));
#488 = FACE_OUTER_BOUND('',#487,.T.);
#489 = ADVANCED_FACE('',(#488),#486,.T.);
#490 = CARTESIAN_POINT('',(-2.225,-0.315,2.));
#491 = VERTEX_POINT('',#490);
#492 = CARTESIAN_POINT('',(-2.225,-0.315,7.4));
#493 = VERTEX_POINT('',#492);
#494 = DIRECTION('',(0.,1.,0.));
#495 = VECTOR('',#494,1.);
#496 = LINE('',#490,#495);
#497 = EDGE_CURVE('',#491,#437,#496,.T.);
#498 = ORIENTED_EDGE('',*,*,#497,.T.);
#499 = ORIENTED_EDGE('',*,*,#441,.T.);
#500 = DIRECTION('',(0.,1.,0.));
#501 = VECTOR('',#500,1.);
#502 = LINE('',#492,#501);
#503 = EDGE_CURVE('',#493,#435,#502,.T.);
#504 = ORIENTED_EDGE('',*,*,#503,.F.);
#505 = DIRECTION('',(0.,0.,1.));
#506 = VECTOR('',#505,1.);
#507 = LINE('',#490,#506);
#508 = EDGE_CURVE('',#491,#493,#507,.T.);
#509 = ORIENTED_EDGE('',*,*,#508,.F.);
#510 = CARTESIAN_POINT('',(-2.225,-0.315,2.));
#511 = DIRECTION('',(1.,0.,0.));
#512 = DIRECTION('',(0.,1.,0.));
#513 = AXIS2_PLACEMENT_3D('',#510,#511,#512);
#514 = PLANE('',#513);
#515 = EDGE_LOOP('',(#498,#499,#504,#509));
#516 = FACE_OUTER_BOUND('',#515,.T.);
#517 = ADVANCED_FACE('',(#516),#514,.T.);
#518 = ORIENTED_EDGE('',*,*,#508,.T.);
#519 = DIRECTION('',(-1.,0.,0.));
#520 = VECTOR('',#519,1.);
#521 = LINE('',#492,#520);
#522 = EDGE_CURVE('',#493,#403,#521,.T.);
#523 = ORIENTED_EDGE('',*,*,#522,.T.);
#524 = ORIENTED_EDGE('',*,*,#414,.F.);
#525 = DIRECTION('',(-1.,0.,0.));
#526 = VECTOR('',#525,1.);
#527 = LINE('',#490,#526);
#528 = EDGE_CURVE('',#491,#401,#527,.T.);
#529 = ORIENTED_EDGE('',*,*,#528,.F.);
#530 = CARTESIAN_POINT('',(-2.225,-0.315,2.));
#531 = DIRECTION('',(0.,-1.,0.));
#532 = DIRECTION('',(0.,0.,1.));
#533 = AXIS2_PLACEMENT_3D('',#530,#531,#532);
#534 = PLANE('',#533);
#535 = EDGE_LOOP('',(#518,#523,#524,#529));
#536 = FACE_OUTER_BOUND('',#535,.T.);
#537 = ADVANCED_FACE('',(#536),#534,.T.);
#538 = ORIENTED_EDGE('',*,*,#528,.T.);
#539 = ORIENTED_EDGE('',*,*,#409,.T.);
#540 = ORIENTED_EDGE('',*,*,#446,.F.);
#541 = ORIENTED_EDGE('',*,*,#497,.F.);
#542 = CARTESIAN_POINT('',(-2.225,-0.315,2.));
#543 = DIRECTION('',(0.,0.,-1.));
#544 = DIRECTION('',(-1.,0.,0.));
#545 = AXIS2_PLACEMENT_3D('',#542,#543,#544);
#546 = PLANE('',#545);
#547 = EDGE_LOOP('',(#538,#539,#540,#541));
#548 = FACE_OUTER_BOUND('',#547,.T.);
#549 = ADVANCED_FACE('',(#548),#546,.T.);
#550 = CARTESIAN_POINT('',(-2.365,0.175,8.));
#551 = VERTEX_POINT('',#550);
#552 = DIRECTION('',(-0.22158112824152176,-0.22158112824152157,0.9496334067493776));
#553 = VECTOR('',#552,1.);
#554 = LINE('',#434,#553);
#555 = EDGE_CURVE('',#435,#551,#554,.T.);
#556 = ORIENTED_EDGE('',*,*,#555,.F.);
#557 = ORIENTED_EDGE('',*,*,#452,.T.);
#558 = ORIENTED_EDGE('',*,*,#469,.F.);
#559 = DIRECTION('',(-1.,0.,0.));
#560 = VECTOR('',#559,1.);
#561 = LINE('',#550,#560);
#562 = EDGE_CURVE('',#551,#463,#561,.T.);
#563 = ORIENTED_EDGE('',*,*,#562,.F.);
#564 = CARTESIAN_POINT('',(-2.365,0.175,8.));
#565 = DIRECTION('',(0.,0.9738412097417933,0.2272296156064183));
#566 = DIRECTION('',(0.22158112824152176,0.22158112824152157,-0.9496334067493776));
#567 = AXIS2_PLACEMENT_3D('',#564,#565,#566);
#568 = PLANE('',#567);
#569 = EDGE_LOOP('',(#556,#557,#558,#563));
#570 = FACE_OUTER_BOUND('',#569,.T.);
#571 = ADVANCED_FACE('',(#570),#568,.T.);
#572 = CARTESIAN_POINT('',(-2.365,-0.175,8.));
#573 = VERTEX_POINT('',#572);
#574 = DIRECTION('',(-0.22158112824152176,0.22158112824152157,0.9496334067493776));
#575 = VECTOR('',#574,1.);
#576 = LINE('',#492,#575);
#577 = EDGE_CURVE('',#493,#573,#576,.T.);
#578 = ORIENTED_EDGE('',*,*,#577,.F.);
#579 = ORIENTED_EDGE('',*,*,#503,.T.);
#580 = ORIENTED_EDGE('',*,*,#555,.T.);
#581 = DIRECTION('',(0.,1.,0.));
#582 = VECTOR('',#581,1.);
#583 = LINE('',#572,#582);
#584 = EDGE_CURVE('',#573,#551,#583,.T.);
#585 = ORIENTED_EDGE('',*,*,#584,.F.);
#586 = CARTESIAN_POINT('',(-2.365,-0.175,8.));
#587 = DIRECTION('',(0.9738412097417933,0.,0.2272296156064183));
#588 = DIRECTION('',(0.22158112824152176,-0.22158112824152157,-0.9496334067493776));
#589 = AXIS2_PLACEMENT_3D('',#586,#587,#588);
#590 = PLANE('',#589);
#591 = EDGE_LOOP('',(#578,#579,#580,#585));
#592 = FACE_OUTER_BOUND('',#591,.T.);
#593 = ADVANCED_FACE('',(#592),#590,.T.);
#594 = ORIENTED_EDGE('',*,*,#584,.T.);
#595 = ORIENTED_EDGE('',*,*,#562,.T.);
#596 = ORIENTED_EDGE('',*,*,#480,.F.);
#597 = DIRECTION('',(-1.,0.,0.));
#598 = VECTOR('',#597,1.);
#599 = LINE('',#572,#598);
#600 = EDGE_CURVE('',#573,#465,#599,.T.);
#601 = ORIENTED_EDGE('',*,*,#600,.F.);
#602 = CARTESIAN_POINT('',(-2.365,-0.175,8.));
#603 = DIRECTION('',(0.,0.,1.));
#604 = DIRECTION('',(0.,1.,0.));
#605 = AXIS2_PLACEMENT_3D('',#602,#603,#604);
#606 = PLANE('',#605);
#607 = EDGE_LOOP('',(#594,#595,#596,#601));
#608 = FACE_OUTER_BOUND('',#607,.T.);
#609 = ADVANCED_FACE('',(#608),#606,.T.);
#610 = ORIENTED_EDGE('',*,*,#600,.T.);
#611 = ORIENTED_EDGE('',*,*,#475,.T.);
#612 = ORIENTED_EDGE('',*,*,#522,.F.);
#613 = ORIENTED_EDGE('',*,*,#577,.T.);
#614 = CARTESIAN_POINT('',(-2.365,-0.175,8.));
#615 = DIRECTION('',(0.,-0.9738412097417933,0.2272296156064183));
#616 = DIRECTION('',(-1.,0.,0.));
#617 = AXIS2_PLACEMENT_3D('',#614,#615,#616);
#618 = PLANE('',#617);
#619 = EDGE_LOOP('',(#610,#611,#612,#613));
#620 = FACE_OUTER_BOUND('',#619,.T.);
#621 = ADVANCED_FACE('',(#620),#618,.T.);
#622 = CLOSED_SHELL('',(#433,#461,#489,#517,#537,#549,#571,#593,#609,#621));
#623 = MANIFOLD_SOLID_BREP('',#622);
#624 = COLOUR_RGB('',0.7529411764705882,0.7529411764705882,0.7529411764705882);
#625 = FILL_AREA_STYLE_COLOUR('',#624);
#626 = FILL_AREA_STYLE('',(#625));
#627 = SURFACE_STYLE_FILL_AREA(#626);
#628 = SURFACE_SIDE_STYLE('',(#627));
#629 = SURFACE_STYLE_USAGE(.BOTH.,#628);
#630 = PRESENTATION_STYLE_ASSIGNMENT((#629));
#631 = STYLED_ITEM('',(#630),#623);
#632 = CARTESIAN_POINT('',(-1.27,-1.27,0.));
#633 = VERTEX_POINT('',#632);
#634 = CARTESIAN_POINT('',(-1.27,-1.27,2.));
#635 = VERTEX_POINT('',#634);
#636 = CARTESIAN_POINT('',(-1.27,1.27,2.));
#637 = VERTEX_POINT('',#636);
#638 = CARTESIAN_POINT('',(-1.27,1.27,0.));
#639 = VERTEX_POINT('',#638);
#640 = DIRECTION('',(0.,0.,1.));
#641 = VECTOR('',#640,1.);
#642 = LINE('',#632,#641);
#643 = EDGE_CURVE('',#633,#635,#642,.T.);
#644 = ORIENTED_EDGE('',*,*,#643,.T.);
#645 = DIRECTION('',(0.,1.,0.));
#646 = VECTOR('',#645,1.);
#647 = LINE('',#634,#646);
#648 = EDGE_CURVE('',#635,#637,#647,.T.);
#649 = ORIENTED_EDGE('',*,*,#648,.T.);
#650 = DIRECTION('',(0.,0.,1.));
#651 = VECTOR('',#650,1.);
#652 = LINE('',#638,#651);
#653 = EDGE_CURVE('',#639,#637,#652,.T.);
#654 = ORIENTED_EDGE('',*,*,#653,.F.);
#655 = DIRECTION('',(0.,1.,0.));
#656 = VECTOR('',#655,1.);
#657 = LINE('',#632,#656);
#658 = EDGE_CURVE('',#633,#639,#657,.T.);
#659 = ORIENTED_EDGE('',*,*,#658,.F.);
#660 = CARTESIAN_POINT('',(-1.27,-1.27,0.));
#661 = DIRECTION('',(-1.,0.,0.));
#662 = DIRECTION('',(0.,0.,1.));
#663 = AXIS2_PLACEMENT_3D('',#660,#661,#662);
#664 = PLANE('',#663);
#665 = EDGE_LOOP('',(#644,#649,#654,#659));
#666 = FACE_OUTER_BOUND('',#665,.T.);
#667 = ADVANCED_FACE('',(#666),#664,.T.);
#668 = CARTESIAN_POINT('',(1.27,-1.27,0.));
#669 = VERTEX_POINT('',#668);
#670 = CARTESIAN_POINT('',(1.27,1.27,0.));
#671 = VERTEX_POINT('',#670);
#672 = CARTESIAN_POINT('',(1.27,1.27,2.));
#673 = VERTEX_POINT('',#672);
#674 = CARTESIAN_POINT('',(1.27,-1.27,2.));
#675 = VERTEX_POINT('',#674);
#676 = DIRECTION('',(0.,1.,0.));
#677 = VECTOR('',#676,1.);
#678 = LINE('',#668,#677);
#679 = EDGE_CURVE('',#669,#671,#678,.T.);
#680 = ORIENTED_EDGE('',*,*,#679,.T.);
#681 = DIRECTION('',(0.,0.,1.));
#682 = VECTOR('',#681,1.);
#683 = LINE('',#670,#682);
#684 = EDGE_CURVE('',#671,#673,#683,.T.);
#685 = ORIENTED_EDGE('',*,*,#684,.T.);
#686 = DIRECTION('',(0.,1.,0.));
#687 = VECTOR('',#686,1.);
#688 = LINE('',#674,#687);
#689 = EDGE_CURVE('',#675,#673,#688,.T.);
#690 = ORIENTED_EDGE('',*,*,#689,.F.);
#691 = DIRECTION('',(0.,0.,1.));
#692 = VECTOR('',#691,1.);
#693 = LINE('',#668,#692);
#694 = EDGE_CURVE('',#669,#675,#693,.T.);
#695 = ORIENTED_EDGE('',*,*,#694,.F.);
#696 = CARTESIAN_POINT('',(1.27,-1.27,0.));
#697 = DIRECTION('',(1.,0.,0.));
#698 = DIRECTION('',(0.,1.,0.));
#699 = AXIS2_PLACEMENT_3D('',#696,#697,#698);
#700 = PLANE('',#699);
#701 = EDGE_LOOP('',(#680,#685,#690,#695));
#702 = FACE_OUTER_BOUND('',#701,.T.);
#703 = ADVANCED_FACE('',(#702),#700,.T.);
#704 = DIRECTION('',(1.,0.,0.));
#705 = VECTOR('',#704,1.);
#706 = LINE('',#632,#705);
#707 = EDGE_CURVE('',#633,#669,#706,.T.);
#708 = ORIENTED_EDGE('',*,*,#707,.T.);
#709 = ORIENTED_EDGE('',*,*,#694,.T.);
#710 = DIRECTION('',(1.,0.,0.));
#711 = VECTOR('',#710,1.);
#712 = LINE('',#634,#711);
#713 = EDGE_CURVE('',#635,#675,#712,.T.);
#714 = ORIENTED_EDGE('',*,*,#713,.F.);
#715 = ORIENTED_EDGE('',*,*,#643,.F.);
#716 = CARTESIAN_POINT('',(-1.27,-1.27,0.));
#717 = DIRECTION('',(0.,-1.,0.));
#718 = DIRECTION('',(1.,0.,0.));
#719 = AXIS2_PLACEMENT_3D('',#716,#717,#718);
#720 = PLANE('',#719);
#721 = EDGE_LOOP('',(#708,#709,#714,#715));
#722 = FACE_OUTER_BOUND('',#721,.T.);
#723 = ADVANCED_FACE('',(#722),#720,.T.);
#724 = ORIENTED_EDGE('',*,*,#653,.T.);
#725 = DIRECTION('',(1.,0.,0.));
#726 = VECTOR('',#725,1.);
#727 = LINE('',#636,#726);
#728 = EDGE_CURVE('',#637,#673,#727,.T.);
#729 = ORIENTED_EDGE('',*,*,#728,.T.);
#730 = ORIENTED_EDGE('',*,*,#684,.F.);
#731 = DIRECTION('',(1.,0.,0.));
#732 = VECTOR('',#731,1.);
#733 = LINE('',#638,#732);
#734 = EDGE_CURVE('',#639,#671,#733,.T.);
#735 = ORIENTED_EDGE('',*,*,#734,.F.);
#736 = CARTESIAN_POINT('',(-1.27,1.27,0.));
#737 = DIRECTION('',(0.,1.,0.));
#738 = DIRECTION('',(0.,0.,1.));
#739 = AXIS2_PLACEMENT_3D('',#736,#737,#738);
#740 = PLANE('',#739);
#741 = EDGE_LOOP('',(#724,#729,#730,#735));
#742 = FACE_OUTER_BOUND('',#741,.T.);
#743 = ADVANCED_FACE('',(#742),#740,.T.);
#744 = ORIENTED_EDGE('',*,*,#658,.T.);
#745 = ORIENTED_EDGE('',*,*,#734,.T.);
#746 = ORIENTED_EDGE('',*,*,#679,.F.);
#747 = ORIENTED_EDGE('',*,*,#707,.F.);
#748 = CARTESIAN_POINT('',(-1.27,-1.27,0.));
#749 = DIRECTION('',(0.,0.,-1.));
#750 = DIRECTION('',(0.,1.,0.));
#751 = AXIS2_PLACEMENT_3D('',#748,#749,#750);
#752 = PLANE('',#751);
#753 = EDGE_LOOP('',(#744,#745,#746,#747));
#754 = FACE_OUTER_BOUND('',#753,.T.);
#755 = ADVANCED_FACE('',(#754),#752,.T.);
#756 = ORIENTED_EDGE('',*,*,#713,.T.);
#757 = ORIENTED_EDGE('',*,*,#689,.T.);
#758 = ORIENTED_EDGE('',*,*,#728,.F.);
#759 = ORIENTED_EDGE('',*,*,#648,.F.);
#760 = CARTESIAN_POINT('',(-1.27,-1.27,2.));
#761 = DIRECTION('',(0.,0.,1.));
#762 = DIRECTION('',(1.,0.,0.));
#763 = AXIS2_PLACEMENT_3D('',#760,#761,#762);
#764 = PLANE('',#763);
#765 = EDGE_LOOP('',(#756,#757,#758,#759));
#766 = FACE_OUTER_BOUND('',#765,.T.);
#767 = ADVANCED_FACE('',(#766),#764,.T.);
#768 = CLOSED_SHELL('',(#667,#703,#723,#743,#755,#767));
#769 = MANIFOLD_SOLID_BREP('',#768);
#770 = COLOUR_RGB('',0.13333333333333333,0.13333333333333333,0.13333333333333333);
#771 = FILL_AREA_STYLE_COLOUR('',#770);
#772 = FILL_AREA_STYLE('',(#771));
#773 = SURFACE_STYLE_FILL_AREA(#772);
#774 = SURFACE_SIDE_STYLE('',(#773));
#775 = SURFACE_STYLE_USAGE(.BOTH.,#774);
#776 = PRESENTATION_STYLE_ASSIGNMENT((#775));
#777 = STYLED_ITEM('',(#776),#769);
#778 = CARTESIAN_POINT('',(0.315,-0.315,0.5500000000000003));
#779 = VERTEX_POINT('',#778);
#780 = CARTESIAN_POINT('',(0.315,0.315,0.5500000000000003));
#781 = VERTEX_POINT('',#780);
#782 = CARTESIAN_POINT('',(-0.315,0.315,0.5500000000000003));
#783 = VERTEX_POINT('',#782);
#784 = CARTESIAN_POINT('',(-0.315,-0.315,0.5500000000000003));
#785 = VERTEX_POINT('',#784);
#786 = DIRECTION('',(0.,1.,0.));
#787 = VECTOR('',#786,1.);
#788 = LINE('',#778,#787);
#789 = EDGE_CURVE('',#779,#781,#788,.T.);
#790 = ORIENTED_EDGE('',*,*,#789,.T.);
#791 = DIRECTION('',(1.,0.,0.));
#792 = VECTOR('',#791,1.);
#793 = LINE('',#782,#792);
#794 = EDGE_CURVE('',#783,#781,#793,.T.);
#795 = ORIENTED_EDGE('',*,*,#794,.F.);
#796 = DIRECTION('',(0.,1.,0.));
#797 = VECTOR('',#796,1.);
#798 = LINE('',#784,#797);
#799 = EDGE_CURVE('',#785,#783,#798,.T.);
#800 = ORIENTED_EDGE('',*,*,#799,.F.);
#801 = DIRECTION('',(1.,0.,0.));
#802 = VECTOR('',#801,1.);
#803 = LINE('',#784,#802);
#804 = EDGE_CURVE('',#785,#779,#803,.T.);
#805 = ORIENTED_EDGE('',*,*,#804,.T.);
#806 = CARTESIAN_POINT('',(0.315,-0.315,0.5500000000000003));
#807 = DIRECTION('',(0.,0.,1.));
#808 = DIRECTION('',(0.,1.,0.));
#809 = AXIS2_PLACEMENT_3D('',#806,#807,#808);
#810 = PLANE('',#809);
#811 = EDGE_LOOP('',(#790,#795,#800,#805));
#812 = FACE_OUTER_BOUND('',#811,.T.);
#813 = ADVANCED_FACE('',(#812),#810,.T.);
#814 = CARTESIAN_POINT('',(-0.315,0.315,-2.15));
#815 = VERTEX_POINT('',#814);
#816 = CARTESIAN_POINT('',(0.315,0.315,-2.15));
#817 = VERTEX_POINT('',#816);
#818 = DIRECTION('',(0.,0.,1.));
#819 = VECTOR('',#818,1.);
#820 = LINE('',#814,#819);
#821 = EDGE_CURVE('',#815,#783,#820,.T.);
#822 = ORIENTED_EDGE('',*,*,#821,.T.);
#823 = ORIENTED_EDGE('',*,*,#794,.T.);
#824 = DIRECTION('',(0.,0.,1.));
#825 = VECTOR('',#824,1.);
#826 = LINE('',#816,#825);
#827 = EDGE_CURVE('',#817,#781,#826,.T.);
#828 = ORIENTED_EDGE('',*,*,#827,.F.);
#829 = DIRECTION('',(1.,0.,0.));
#830 = VECTOR('',#829,1.);
#831 = LINE('',#814,#830);
#832 = EDGE_CURVE('',#815,#817,#831,.T.);
#833 = ORIENTED_EDGE('',*,*,#832,.F.);
#834 = CARTESIAN_POINT('',(-0.315,0.315,-2.15));
#835 = DIRECTION('',(0.,1.,0.));
#836 = DIRECTION('',(0.,0.,1.));
#837 = AXIS2_PLACEMENT_3D('',#834,#835,#836);
#838 = PLANE('',#837);
#839 = EDGE_LOOP('',(#822,#823,#828,#833));
#840 = FACE_OUTER_BOUND('',#839,.T.);
#841 = ADVANCED_FACE('',(#840),#838,.T.);
#842 = CARTESIAN_POINT('',(-0.315,-0.315,-2.15));
#843 = VERTEX_POINT('',#842);
#844 = DIRECTION('',(0.,1.,0.));
#845 = VECTOR('',#844,1.);
#846 = LINE('',#842,#845);
#847 = EDGE_CURVE('',#843,#815,#846,.T.);
#848 = ORIENTED_EDGE('',*,*,#847,.F.);
#849 = DIRECTION('',(0.,0.,1.));
#850 = VECTOR('',#849,1.);
#851 = LINE('',#842,#850);
#852 = EDGE_CURVE('',#843,#785,#851,.T.);
#853 = ORIENTED_EDGE('',*,*,#852,.T.);
#854 = ORIENTED_EDGE('',*,*,#799,.T.);
#855 = ORIENTED_EDGE('',*,*,#821,.F.);
#856 = CARTESIAN_POINT('',(-0.315,0.315,-2.15));
#857 = DIRECTION('',(-1.,0.,0.));
#858 = DIRECTION('',(0.,-1.,0.));
#859 = AXIS2_PLACEMENT_3D('',#856,#857,#858);
#860 = PLANE('',#859);
#861 = EDGE_LOOP('',(#848,#853,#854,#855));
#862 = FACE_OUTER_BOUND('',#861,.T.);
#863 = ADVANCED_FACE('',(#862),#860,.T.);
#864 = CARTESIAN_POINT('',(0.315,-0.315,-2.15));
#865 = VERTEX_POINT('',#864);
#866 = DIRECTION('',(0.,1.,0.));
#867 = VECTOR('',#866,1.);
#868 = LINE('',#864,#867);
#869 = EDGE_CURVE('',#865,#817,#868,.T.);
#870 = ORIENTED_EDGE('',*,*,#869,.T.);
#871 = ORIENTED_EDGE('',*,*,#827,.T.);
#872 = ORIENTED_EDGE('',*,*,#789,.F.);
#873 = DIRECTION('',(0.,0.,1.));
#874 = VECTOR('',#873,1.);
#875 = LINE('',#864,#874);
#876 = EDGE_CURVE('',#865,#779,#875,.T.);
#877 = ORIENTED_EDGE('',*,*,#876,.F.);
#878 = CARTESIAN_POINT('',(0.315,-0.315,-2.15));
#879 = DIRECTION('',(1.,0.,0.));
#880 = DIRECTION('',(0.,1.,0.));
#881 = AXIS2_PLACEMENT_3D('',#878,#879,#880);
#882 = PLANE('',#881);
#883 = EDGE_LOOP('',(#870,#871,#872,#877));
#884 = FACE_OUTER_BOUND('',#883,.T.);
#885 = ADVANCED_FACE('',(#884),#882,.T.);
#886 = ORIENTED_EDGE('',*,*,#876,.T.);
#887 = ORIENTED_EDGE('',*,*,#804,.F.);
#888 = ORIENTED_EDGE('',*,*,#852,.F.);
#889 = DIRECTION('',(1.,0.,0.));
#890 = VECTOR('',#889,1.);
#891 = LINE('',#842,#890);
#892 = EDGE_CURVE('',#843,#865,#891,.T.);
#893 = ORIENTED_EDGE('',*,*,#892,.T.);
#894 = CARTESIAN_POINT('',(0.315,-0.315,-2.15));
#895 = DIRECTION('',(0.,-1.,0.));
#896 = DIRECTION('',(0.,0.,1.));
#897 = AXIS2_PLACEMENT_3D('',#894,#895,#896);
#898 = PLANE('',#897);
#899 = EDGE_LOOP('',(#886,#887,#888,#893));
#900 = FACE_OUTER_BOUND('',#899,.T.);
#901 = ADVANCED_FACE('',(#900),#898,.T.);
#902 = CARTESIAN_POINT('',(-0.175,0.175,-2.5));
#903 = VERTEX_POINT('',#902);
#904 = CARTESIAN_POINT('',(0.175,0.175,-2.5));
#905 = VERTEX_POINT('',#904);
#906 = DIRECTION('',(-0.3481553119113956,0.3481553119113956,0.8703882797784892));
#907 = VECTOR('',#906,1.);
#908 = LINE('',#902,#907);
#909 = EDGE_CURVE('',#903,#815,#908,.T.);
#910 = ORIENTED_EDGE('',*,*,#909,.T.);
#911 = ORIENTED_EDGE('',*,*,#832,.T.);
#912 = DIRECTION('',(0.3481553119113956,0.3481553119113956,0.8703882797784892));
#913 = VECTOR('',#912,1.);
#914 = LINE('',#904,#913);
#915 = EDGE_CURVE('',#905,#817,#914,.T.);
#916 = ORIENTED_EDGE('',*,*,#915,.F.);
#917 = DIRECTION('',(1.,0.,0.));
#918 = VECTOR('',#917,1.);
#919 = LINE('',#902,#918);
#920 = EDGE_CURVE('',#903,#905,#919,.T.);
#921 = ORIENTED_EDGE('',*,*,#920,.F.);
#922 = CARTESIAN_POINT('',(-0.175,0.175,-2.5));
#923 = DIRECTION('',(0.,0.9284766908852591,-0.37139067635410367));
#924 = DIRECTION('',(-0.3481553119113956,0.3481553119113956,0.8703882797784892));
#925 = AXIS2_PLACEMENT_3D('',#922,#923,#924);
#926 = PLANE('',#925);
#927 = EDGE_LOOP('',(#910,#911,#916,#921));
#928 = FACE_OUTER_BOUND('',#927,.T.);
#929 = ADVANCED_FACE('',(#928),#926,.T.);
#930 = CARTESIAN_POINT('',(-0.175,-0.175,-2.5));
#931 = VERTEX_POINT('',#930);
#932 = DIRECTION('',(0.,1.,0.));
#933 = VECTOR('',#932,1.);
#934 = LINE('',#930,#933);
#935 = EDGE_CURVE('',#931,#903,#934,.T.);
#936 = ORIENTED_EDGE('',*,*,#935,.F.);
#937 = DIRECTION('',(-0.3481553119113956,-0.3481553119113956,0.8703882797784892));
#938 = VECTOR('',#937,1.);
#939 = LINE('',#930,#938);
#940 = EDGE_CURVE('',#931,#843,#939,.T.);
#941 = ORIENTED_EDGE('',*,*,#940,.T.);
#942 = ORIENTED_EDGE('',*,*,#847,.T.);
#943 = ORIENTED_EDGE('',*,*,#909,.F.);
#944 = CARTESIAN_POINT('',(-0.175,0.175,-2.5));
#945 = DIRECTION('',(-0.9284766908852593,0.,-0.37139067635410344));
#946 = DIRECTION('',(0.,-1.,0.));
#947 = AXIS2_PLACEMENT_3D('',#944,#945,#946);
#948 = PLANE('',#947);
#949 = EDGE_LOOP('',(#936,#941,#942,#943));
#950 = FACE_OUTER_BOUND('',#949,.T.);
#951 = ADVANCED_FACE('',(#950),#948,.T.);
#952 = CARTESIAN_POINT('',(0.175,-0.175,-2.5));
#953 = VERTEX_POINT('',#952);
#954 = DIRECTION('',(1.,0.,0.));
#955 = VECTOR('',#954,1.);
#956 = LINE('',#930,#955);
#957 = EDGE_CURVE('',#931,#953,#956,.T.);
#958 = ORIENTED_EDGE('',*,*,#957,.F.);
#959 = ORIENTED_EDGE('',*,*,#935,.T.);
#960 = ORIENTED_EDGE('',*,*,#920,.T.);
#961 = DIRECTION('',(0.,1.,0.));
#962 = VECTOR('',#961,1.);
#963 = LINE('',#952,#962);
#964 = EDGE_CURVE('',#953,#905,#963,.T.);
#965 = ORIENTED_EDGE('',*,*,#964,.F.);
#966 = CARTESIAN_POINT('',(0.175,-0.175,-2.5));
#967 = DIRECTION('',(0.,0.,-1.));
#968 = DIRECTION('',(-1.,0.,0.));
#969 = AXIS2_PLACEMENT_3D('',#966,#967,#968);
#970 = PLANE('',#969);
#971 = EDGE_LOOP('',(#958,#959,#960,#965));
#972 = FACE_OUTER_BOUND('',#971,.T.);
#973 = ADVANCED_FACE('',(#972),#970,.T.);
#974 = ORIENTED_EDGE('',*,*,#964,.T.);
#975 = ORIENTED_EDGE('',*,*,#915,.T.);
#976 = ORIENTED_EDGE('',*,*,#869,.F.);
#977 = DIRECTION('',(0.3481553119113956,-0.3481553119113956,0.8703882797784892));
#978 = VECTOR('',#977,1.);
#979 = LINE('',#952,#978);
#980 = EDGE_CURVE('',#953,#865,#979,.T.);
#981 = ORIENTED_EDGE('',*,*,#980,.F.);
#982 = CARTESIAN_POINT('',(0.175,-0.175,-2.5));
#983 = DIRECTION('',(0.9284766908852593,0.,-0.37139067635410344));
#984 = DIRECTION('',(0.,1.,0.));
#985 = AXIS2_PLACEMENT_3D('',#982,#983,#984);
#986 = PLANE('',#985);
#987 = EDGE_LOOP('',(#974,#975,#976,#981));
#988 = FACE_OUTER_BOUND('',#987,.T.);
#989 = ADVANCED_FACE('',(#988),#986,.T.);
#990 = ORIENTED_EDGE('',*,*,#980,.T.);
#991 = ORIENTED_EDGE('',*,*,#892,.F.);
#992 = ORIENTED_EDGE('',*,*,#940,.F.);
#993 = ORIENTED_EDGE('',*,*,#957,.T.);
#994 = CARTESIAN_POINT('',(0.175,-0.175,-2.5));
#995 = DIRECTION('',(0.,-0.9284766908852591,-0.37139067635410367));
#996 = DIRECTION('',(0.3481553119113956,-0.3481553119113956,0.8703882797784892));
#997 = AXIS2_PLACEMENT_3D('',#994,#995,#996);
#998 = PLANE('',#997);
#999 = EDGE_LOOP('',(#990,#991,#992,#993));
#1000 = FACE_OUTER_BOUND('',#999,.T.);
#1001 = ADVANCED_FACE('',(#1000),#998,.T.);
#1002 = CLOSED_SHELL('',(#813,#841,#863,#885,#901,#929,#951,#973,#989,#1001));
#1003 = MANIFOLD_SOLID_BREP('',#1002);
#1004 = COLOUR_RGB('',0.7529411764705882,0.7529411764705882,0.7529411764705882);
#1005 = FILL_AREA_STYLE_COLOUR('',#1004);
#1006 = FILL_AREA_STYLE('',(#1005));
#1007 = SURFACE_STYLE_FILL_AREA(#1006);
#1008 = SURFACE_SIDE_STYLE('',(#1007));
#1009 = SURFACE_STYLE_USAGE(.BOTH.,#1008);
#1010 = PRESENTATION_STYLE_ASSIGNMENT((#1009));
#1011 = STYLED_ITEM('',(#1010),#1003);
#1012 = CARTESIAN_POINT('',(-0.315,0.315,2.));
#1013 = VERTEX_POINT('',#1012);
#1014 = CARTESIAN_POINT('',(-0.315,-0.315,2.));
#1015 = VERTEX_POINT('',#1014);
#1016 = CARTESIAN_POINT('',(-0.315,-0.315,7.4));
#1017 = VERTEX_POINT('',#1016);
#1018 = CARTESIAN_POINT('',(-0.315,0.315,7.4));
#1019 = VERTEX_POINT('',#1018);
#1020 = DIRECTION('',(0.,1.,0.));
#1021 = VECTOR('',#1020,1.);
#1022 = LINE('',#1014,#1021);
#1023 = EDGE_CURVE('',#1015,#1013,#1022,.T.);
#1024 = ORIENTED_EDGE('',*,*,#1023,.F.);
#1025 = DIRECTION('',(0.,0.,1.));
#1026 = VECTOR('',#1025,1.);
#1027 = LINE('',#1014,#1026);
#1028 = EDGE_CURVE('',#1015,#1017,#1027,.T.);
#1029 = ORIENTED_EDGE('',*,*,#1028,.T.);
#1030 = DIRECTION('',(0.,1.,0.));
#1031 = VECTOR('',#1030,1.);
#1032 = LINE('',#1016,#1031);
#1033 = EDGE_CURVE('',#1017,#1019,#1032,.T.);
#1034 = ORIENTED_EDGE('',*,*,#1033,.T.);
#1035 = DIRECTION('',(0.,0.,1.));
#1036 = VECTOR('',#1035,1.);
#1037 = LINE('',#1012,#1036);
#1038 = EDGE_CURVE('',#1013,#1019,#1037,.T.);
#1039 = ORIENTED_EDGE('',*,*,#1038,.F.);
#1040 = CARTESIAN_POINT('',(-0.315,0.315,2.));
#1041 = DIRECTION('',(-1.,0.,0.));
#1042 = DIRECTION('',(0.,-1.,0.));
#1043 = AXIS2_PLACEMENT_3D('',#1040,#1041,#1042);
#1044 = PLANE('',#1043);
#1045 = EDGE_LOOP('',(#1024,#1029,#1034,#1039));
#1046 = FACE_OUTER_BOUND('',#1045,.T.);
#1047 = ADVANCED_FACE('',(#1046),#1044,.T.);
#1048 = CARTESIAN_POINT('',(0.315,0.315,7.4));
#1049 = VERTEX_POINT('',#1048);
#1050 = CARTESIAN_POINT('',(0.315,0.315,2.));
#1051 = VERTEX_POINT('',#1050);
#1052 = DIRECTION('',(0.,0.,1.));
#1053 = VECTOR('',#1052,1.);
#1054 = LINE('',#1050,#1053);
#1055 = EDGE_CURVE('',#1051,#1049,#1054,.T.);
#1056 = ORIENTED_EDGE('',*,*,#1055,.F.);
#1057 = DIRECTION('',(1.,0.,0.));
#1058 = VECTOR('',#1057,1.);
#1059 = LINE('',#1012,#1058);
#1060 = EDGE_CURVE('',#1013,#1051,#1059,.T.);
#1061 = ORIENTED_EDGE('',*,*,#1060,.F.);
#1062 = ORIENTED_EDGE('',*,*,#1038,.T.);
#1063 = DIRECTION('',(1.,0.,0.));
#1064 = VECTOR('',#1063,1.);
#1065 = LINE('',#1018,#1064);
#1066 = EDGE_CURVE('',#1019,#1049,#1065,.T.);
#1067 = ORIENTED_EDGE('',*,*,#1066,.T.);
#1068 = CARTESIAN_POINT('',(0.315,0.315,7.4));
#1069 = DIRECTION('',(0.,1.,0.));
#1070 = DIRECTION('',(0.,0.,-1.));
#1071 = AXIS2_PLACEMENT_3D('',#1068,#1069,#1070);
#1072 = PLANE('',#1071);
#1073 = EDGE_LOOP('',(#1056,#1061,#1062,#1067));
#1074 = FACE_OUTER_BOUND('',#1073,.T.);
#1075 = ADVANCED_FACE('',(#1074),#1072,.T.);
#1076 = CARTESIAN_POINT('',(-0.175,0.175,8.));
#1077 = VERTEX_POINT('',#1076);
#1078 = CARTESIAN_POINT('',(-0.175,-0.175,8.));
#1079 = VERTEX_POINT('',#1078);
#1080 = DIRECTION('',(-0.22158112824152157,0.22158112824152157,-0.9496334067493776));
#1081 = VECTOR('',#1080,1.);
#1082 = LINE('',#1076,#1081);
#1083 = EDGE_CURVE('',#1077,#1019,#1082,.T.);
#1084 = ORIENTED_EDGE('',*,*,#1083,.T.);
#1085 = ORIENTED_EDGE('',*,*,#1033,.F.);
#1086 = DIRECTION('',(-0.22158112824152157,-0.22158112824152157,-0.9496334067493776));
#1087 = VECTOR('',#1086,1.);
#1088 = LINE('',#1078,#1087);
#1089 = EDGE_CURVE('',#1079,#1017,#1088,.T.);
#1090 = ORIENTED_EDGE('',*,*,#1089,.F.);
#1091 = DIRECTION('',(0.,1.,0.));
#1092 = VECTOR('',#1091,1.);
#1093 = LINE('',#1078,#1092);
#1094 = EDGE_CURVE('',#1079,#1077,#1093,.T.);
#1095 = ORIENTED_EDGE('',*,*,#1094,.T.);
#1096 = CARTESIAN_POINT('',(-0.175,0.175,8.));
#1097 = DIRECTION('',(-0.9738412097417933,0.,0.2272296156064181));
#1098 = DIRECTION('',(-0.22158112824152157,0.22158112824152157,-0.9496334067493776));
#1099 = AXIS2_PLACEMENT_3D('',#1096,#1097,#1098);
#1100 = PLANE('',#1099);
#1101 = EDGE_LOOP('',(#1084,#1085,#1090,#1095));
#1102 = FACE_OUTER_BOUND('',#1101,.T.);
#1103 = ADVANCED_FACE('',(#1102),#1100,.T.);
#1104 = CARTESIAN_POINT('',(0.315,-0.315,2.));
#1105 = VERTEX_POINT('',#1104);
#1106 = CARTESIAN_POINT('',(0.315,-0.315,7.4));
#1107 = VERTEX_POINT('',#1106);
#1108 = DIRECTION('',(0.,1.,0.));
#1109 = VECTOR('',#1108,1.);
#1110 = LINE('',#1104,#1109);
#1111 = EDGE_CURVE('',#1105,#1051,#1110,.T.);
#1112 = ORIENTED_EDGE('',*,*,#1111,.T.);
#1113 = ORIENTED_EDGE('',*,*,#1055,.T.);
#1114 = DIRECTION('',(0.,1.,0.));
#1115 = VECTOR('',#1114,1.);
#1116 = LINE('',#1106,#1115);
#1117 = EDGE_CURVE('',#1107,#1049,#1116,.T.);
#1118 = ORIENTED_EDGE('',*,*,#1117,.F.);
#1119 = DIRECTION('',(0.,0.,1.));
#1120 = VECTOR('',#1119,1.);
#1121 = LINE('',#1104,#1120);
#1122 = EDGE_CURVE('',#1105,#1107,#1121,.T.);
#1123 = ORIENTED_EDGE('',*,*,#1122,.F.);
#1124 = CARTESIAN_POINT('',(0.315,-0.315,2.));
#1125 = DIRECTION('',(1.,0.,0.));
#1126 = DIRECTION('',(0.,1.,0.));
#1127 = AXIS2_PLACEMENT_3D('',#1124,#1125,#1126);
#1128 = PLANE('',#1127);
#1129 = EDGE_LOOP('',(#1112,#1113,#1118,#1123));
#1130 = FACE_OUTER_BOUND('',#1129,.T.);
#1131 = ADVANCED_FACE('',(#1130),#1128,.T.);
#1132 = ORIENTED_EDGE('',*,*,#1122,.T.);
#1133 = DIRECTION('',(1.,0.,0.));
#1134 = VECTOR('',#1133,1.);
#1135 = LINE('',#1016,#1134);
#1136 = EDGE_CURVE('',#1017,#1107,#1135,.T.);
#1137 = ORIENTED_EDGE('',*,*,#1136,.F.);
#1138 = ORIENTED_EDGE('',*,*,#1028,.F.);
#1139 = DIRECTION('',(1.,0.,0.));
#1140 = VECTOR('',#1139,1.);
#1141 = LINE('',#1014,#1140);
#1142 = EDGE_CURVE('',#1015,#1105,#1141,.T.);
#1143 = ORIENTED_EDGE('',*,*,#1142,.T.);
#1144 = CARTESIAN_POINT('',(0.315,-0.315,2.));
#1145 = DIRECTION('',(0.,-1.,0.));
#1146 = DIRECTION('',(0.,0.,1.));
#1147 = AXIS2_PLACEMENT_3D('',#1144,#1145,#1146);
#1148 = PLANE('',#1147);
#1149 = EDGE_LOOP('',(#1132,#1137,#1138,#1143));
#1150 = FACE_OUTER_BOUND('',#1149,.T.);
#1151 = ADVANCED_FACE('',(#1150),#1148,.T.);
#1152 = ORIENTED_EDGE('',*,*,#1142,.F.);
#1153 = ORIENTED_EDGE('',*,*,#1023,.T.);
#1154 = ORIENTED_EDGE('',*,*,#1060,.T.);
#1155 = ORIENTED_EDGE('',*,*,#1111,.F.);
#1156 = CARTESIAN_POINT('',(0.315,-0.315,2.));
#1157 = DIRECTION('',(0.,0.,-1.));
#1158 = DIRECTION('',(-1.,0.,0.));
#1159 = AXIS2_PLACEMENT_3D('',#1156,#1157,#1158);
#1160 = PLANE('',#1159);
#1161 = EDGE_LOOP('',(#1152,#1153,#1154,#1155));
#1162 = FACE_OUTER_BOUND('',#1161,.T.);
#1163 = ADVANCED_FACE('',(#1162),#1160,.T.);
#1164 = CARTESIAN_POINT('',(0.175,0.175,8.));
#1165 = VERTEX_POINT('',#1164);
#1166 = DIRECTION('',(0.22158112824152157,0.22158112824152157,-0.9496334067493776));
#1167 = VECTOR('',#1166,1.);
#1168 = LINE('',#1164,#1167);
#1169 = EDGE_CURVE('',#1165,#1049,#1168,.T.);
#1170 = ORIENTED_EDGE('',*,*,#1169,.T.);
#1171 = ORIENTED_EDGE('',*,*,#1066,.F.);
#1172 = ORIENTED_EDGE('',*,*,#1083,.F.);
#1173 = DIRECTION('',(1.,0.,0.));
#1174 = VECTOR('',#1173,1.);
#1175 = LINE('',#1076,#1174);
#1176 = EDGE_CURVE('',#1077,#1165,#1175,.T.);
#1177 = ORIENTED_EDGE('',*,*,#1176,.T.);
#1178 = CARTESIAN_POINT('',(0.175,0.175,8.));
#1179 = DIRECTION('',(0.,0.9738412097417931,0.2272296156064186));
#1180 = DIRECTION('',(0.22158112824152157,0.22158112824152157,-0.9496334067493776));
#1181 = AXIS2_PLACEMENT_3D('',#1178,#1179,#1180);
#1182 = PLANE('',#1181);
#1183 = EDGE_LOOP('',(#1170,#1171,#1172,#1177));
#1184 = FACE_OUTER_BOUND('',#1183,.T.);
#1185 = ADVANCED_FACE('',(#1184),#1182,.T.);
#1186 = CARTESIAN_POINT('',(0.175,-0.175,8.));
#1187 = VERTEX_POINT('',#1186);
#1188 = DIRECTION('',(0.22158112824152157,-0.22158112824152157,-0.9496334067493776));
#1189 = VECTOR('',#1188,1.);
#1190 = LINE('',#1186,#1189);
#1191 = EDGE_CURVE('',#1187,#1107,#1190,.T.);
#1192 = ORIENTED_EDGE('',*,*,#1191,.T.);
#1193 = ORIENTED_EDGE('',*,*,#1117,.T.);
#1194 = ORIENTED_EDGE('',*,*,#1169,.F.);
#1195 = DIRECTION('',(0.,1.,0.));
#1196 = VECTOR('',#1195,1.);
#1197 = LINE('',#1186,#1196);
#1198 = EDGE_CURVE('',#1187,#1165,#1197,.T.);
#1199 = ORIENTED_EDGE('',*,*,#1198,.F.);
#1200 = CARTESIAN_POINT('',(0.175,-0.175,8.));
#1201 = DIRECTION('',(0.9738412097417933,0.,0.2272296156064181));
#1202 = DIRECTION('',(0.22158112824152157,-0.22158112824152157,-0.9496334067493776));
#1203 = AXIS2_PLACEMENT_3D('',#1200,#1201,#1202);
#1204 = PLANE('',#1203);
#1205 = EDGE_LOOP('',(#1192,#1193,#1194,#1199));
#1206 = FACE_OUTER_BOUND('',#1205,.T.);
#1207 = ADVANCED_FACE('',(#1206),#1204,.T.);
#1208 = ORIENTED_EDGE('',*,*,#1198,.T.);
#1209 = ORIENTED_EDGE('',*,*,#1176,.F.);
#1210 = ORIENTED_EDGE('',*,*,#1094,.F.);
#1211 = DIRECTION('',(1.,0.,0.));
#1212 = VECTOR('',#1211,1.);
#1213 = LINE('',#1078,#1212);
#1214 = EDGE_CURVE('',#1079,#1187,#1213,.T.);
#1215 = ORIENTED_EDGE('',*,*,#1214,.T.);
#1216 = CARTESIAN_POINT('',(0.175,-0.175,8.));
#1217 = DIRECTION('',(0.,0.,1.));
#1218 = DIRECTION('',(0.,1.,0.));
#1219 = AXIS2_PLACEMENT_3D('',#1216,#1217,#1218);
#1220 = PLANE('',#1219);
#1221 = EDGE_LOOP('',(#1208,#1209,#1210,#1215));
#1222 = FACE_OUTER_BOUND('',#1221,.T.);
#1223 = ADVANCED_FACE('',(#1222),#1220,.T.);
#1224 = ORIENTED_EDGE('',*,*,#1214,.F.);
#1225 = ORIENTED_EDGE('',*,*,#1089,.T.);
#1226 = ORIENTED_EDGE('',*,*,#1136,.T.);
#1227 = ORIENTED_EDGE('',*,*,#1191,.F.);
#1228 = CARTESIAN_POINT('',(0.175,-0.175,8.));
#1229 = DIRECTION('',(0.,-0.9738412097417931,0.2272296156064186));
#1230 = DIRECTION('',(-1.,0.,0.));
#1231 = AXIS2_PLACEMENT_3D('',#1228,#1229,#1230);
#1232 = PLANE('',#1231);
#1233 = EDGE_LOOP('',(#1224,#1225,#1226,#1227));
#1234 = FACE_OUTER_BOUND('',#1233,.T.);
#1235 = ADVANCED_FACE('',(#1234),#1232,.T.);
#1236 = CLOSED_SHELL('',(#1047,#1075,#1103,#1131,#1151,#1163,#1185,#1207,#1223,#1235));
#1237 = MANIFOLD_SOLID_BREP('',#1236);
#1238 = COLOUR_RGB('',0.7529411764705882,0.7529411764705882,0.7529411764705882);
#1239 = FILL_AREA_STYLE_COLOUR('',#1238);
#1240 = FILL_AREA_STYLE('',(#1239));
#1241 = SURFACE_STYLE_FILL_AREA(#1240);
#1242 = SURFACE_SIDE_STYLE('',(#1241));
#1243 = SURFACE_STYLE_USAGE(.BOTH.,#1242);
#1244 = PRESENTATION_STYLE_ASSIGNMENT((#1243));
#1245 = STYLED_ITEM('',(#1244),#1237);
#1246 = CARTESIAN_POINT('',(1.27,-1.27,0.));
#1247 = VERTEX_POINT('',#1246);
#1248 = CARTESIAN_POINT('',(1.27,-1.27,2.));
#1249 = VERTEX_POINT('',#1248);
#1250 = CARTESIAN_POINT('',(1.27,1.27,2.));
#1251 = VERTEX_POINT('',#1250);
#1252 = CARTESIAN_POINT('',(1.27,1.27,0.));
#1253 = VERTEX_POINT('',#1252);
#1254 = DIRECTION('',(0.,0.,1.));
#1255 = VECTOR('',#1254,1.);
#1256 = LINE('',#1246,#1255);
#1257 = EDGE_CURVE('',#1247,#1249,#1256,.T.);
#1258 = ORIENTED_EDGE('',*,*,#1257,.T.);
#1259 = DIRECTION('',(0.,1.,0.));
#1260 = VECTOR('',#1259,1.);
#1261 = LINE('',#1248,#1260);
#1262 = EDGE_CURVE('',#1249,#1251,#1261,.T.);
#1263 = ORIENTED_EDGE('',*,*,#1262,.T.);
#1264 = DIRECTION('',(0.,0.,1.));
#1265 = VECTOR('',#1264,1.);
#1266 = LINE('',#1252,#1265);
#1267 = EDGE_CURVE('',#1253,#1251,#1266,.T.);
#1268 = ORIENTED_EDGE('',*,*,#1267,.F.);
#1269 = DIRECTION('',(0.,1.,0.));
#1270 = VECTOR('',#1269,1.);
#1271 = LINE('',#1246,#1270);
#1272 = EDGE_CURVE('',#1247,#1253,#1271,.T.);
#1273 = ORIENTED_EDGE('',*,*,#1272,.F.);
#1274 = CARTESIAN_POINT('',(1.27,-1.27,0.));
#1275 = DIRECTION('',(-1.,0.,0.));
#1276 = DIRECTION('',(0.,0.,1.));
#1277 = AXIS2_PLACEMENT_3D('',#1274,#1275,#1276);
#1278 = PLANE('',#1277);
#1279 = EDGE_LOOP('',(#1258,#1263,#1268,#1273));
#1280 = FACE_OUTER_BOUND('',#1279,.T.);
#1281 = ADVANCED_FACE('',(#1280),#1278,.T.);
#1282 = CARTESIAN_POINT('',(3.81,-1.27,0.));
#1283 = VERTEX_POINT('',#1282);
#1284 = CARTESIAN_POINT('',(3.81,1.27,0.));
#1285 = VERTEX_POINT('',#1284);
#1286 = CARTESIAN_POINT('',(3.81,1.27,2.));
#1287 = VERTEX_POINT('',#1286);
#1288 = CARTESIAN_POINT('',(3.81,-1.27,2.));
#1289 = VERTEX_POINT('',#1288);
#1290 = DIRECTION('',(0.,1.,0.));
#1291 = VECTOR('',#1290,1.);
#1292 = LINE('',#1282,#1291);
#1293 = EDGE_CURVE('',#1283,#1285,#1292,.T.);
#1294 = ORIENTED_EDGE('',*,*,#1293,.T.);
#1295 = DIRECTION('',(0.,0.,1.));
#1296 = VECTOR('',#1295,1.);
#1297 = LINE('',#1284,#1296);
#1298 = EDGE_CURVE('',#1285,#1287,#1297,.T.);
#1299 = ORIENTED_EDGE('',*,*,#1298,.T.);
#1300 = DIRECTION('',(0.,1.,0.));
#1301 = VECTOR('',#1300,1.);
#1302 = LINE('',#1288,#1301);
#1303 = EDGE_CURVE('',#1289,#1287,#1302,.T.);
#1304 = ORIENTED_EDGE('',*,*,#1303,.F.);
#1305 = DIRECTION('',(0.,0.,1.));
#1306 = VECTOR('',#1305,1.);
#1307 = LINE('',#1282,#1306);
#1308 = EDGE_CURVE('',#1283,#1289,#1307,.T.);
#1309 = ORIENTED_EDGE('',*,*,#1308,.F.);
#1310 = CARTESIAN_POINT('',(3.81,-1.27,0.));
#1311 = DIRECTION('',(1.,0.,0.));
#1312 = DIRECTION('',(0.,1.,0.));
#1313 = AXIS2_PLACEMENT_3D('',#1310,#1311,#1312);
#1314 = PLANE('',#1313);
#1315 = EDGE_LOOP('',(#1294,#1299,#1304,#1309));
#1316 = FACE_OUTER_BOUND('',#1315,.T.);
#1317 = ADVANCED_FACE('',(#1316),#1314,.T.);
#1318 = DIRECTION('',(1.,0.,0.));
#1319 = VECTOR('',#1318,1.);
#1320 = LINE('',#1246,#1319);
#1321 = EDGE_CURVE('',#1247,#1283,#1320,.T.);
#1322 = ORIENTED_EDGE('',*,*,#1321,.T.);
#1323 = ORIENTED_EDGE('',*,*,#1308,.T.);
#1324 = DIRECTION('',(1.,0.,0.));
#1325 = VECTOR('',#1324,1.);
#1326 = LINE('',#1248,#1325);
#1327 = EDGE_CURVE('',#1249,#1289,#1326,.T.);
#1328 = ORIENTED_EDGE('',*,*,#1327,.F.);
#1329 = ORIENTED_EDGE('',*,*,#1257,.F.);
#1330 = CARTESIAN_POINT('',(1.27,-1.27,0.));
#1331 = DIRECTION('',(0.,-1.,0.));
#1332 = DIRECTION('',(1.,0.,0.));
#1333 = AXIS2_PLACEMENT_3D('',#1330,#1331,#1332);
#1334 = PLANE('',#1333);
#1335 = EDGE_LOOP('',(#1322,#1323,#1328,#1329));
#1336 = FACE_OUTER_BOUND('',#1335,.T.);
#1337 = ADVANCED_FACE('',(#1336),#1334,.T.);
#1338 = ORIENTED_EDGE('',*,*,#1267,.T.);
#1339 = DIRECTION('',(1.,0.,0.));
#1340 = VECTOR('',#1339,1.);
#1341 = LINE('',#1250,#1340);
#1342 = EDGE_CURVE('',#1251,#1287,#1341,.T.);
#1343 = ORIENTED_EDGE('',*,*,#1342,.T.);
#1344 = ORIENTED_EDGE('',*,*,#1298,.F.);
#1345 = DIRECTION('',(1.,0.,0.));
#1346 = VECTOR('',#1345,1.);
#1347 = LINE('',#1252,#1346);
#1348 = EDGE_CURVE('',#1253,#1285,#1347,.T.);
#1349 = ORIENTED_EDGE('',*,*,#1348,.F.);
#1350 = CARTESIAN_POINT('',(1.27,1.27,0.));
#1351 = DIRECTION('',(0.,1.,0.));
#1352 = DIRECTION('',(0.,0.,1.));
#1353 = AXIS2_PLACEMENT_3D('',#1350,#1351,#1352);
#1354 = PLANE('',#1353);
#1355 = EDGE_LOOP('',(#1338,#1343,#1344,#1349));
#1356 = FACE_OUTER_BOUND('',#1355,.T.);
#1357 = ADVANCED_FACE('',(#1356),#1354,.T.);
#1358 = ORIENTED_EDGE('',*,*,#1272,.T.);
#1359 = ORIENTED_EDGE('',*,*,#1348,.T.);
#1360 = ORIENTED_EDGE('',*,*,#1293,.F.);
#1361 = ORIENTED_EDGE('',*,*,#1321,.F.);
#1362 = CARTESIAN_POINT('',(1.27,-1.27,0.));
#1363 = DIRECTION('',(0.,0.,-1.));
#1364 = DIRECTION('',(0.,1.,0.));
#1365 = AXIS2_PLACEMENT_3D('',#1362,#1363,#1364);
#1366 = PLANE('',#1365);
#1367 = EDGE_LOOP('',(#1358,#1359,#1360,#1361));
#1368 = FACE_OUTER_BOUND('',#1367,.T.);
#1369 = ADVANCED_FACE('',(#1368),#1366,.T.);
#1370 = ORIENTED_EDGE('',*,*,#1327,.T.);
#1371 = ORIENTED_EDGE('',*,*,#1303,.T.);
#1372 = ORIENTED_EDGE('',*,*,#1342,.F.);
#1373 = ORIENTED_EDGE('',*,*,#1262,.F.);
#1374 = CARTESIAN_POINT('',(1.27,-1.27,2.));
#1375 = DIRECTION('',(0.,0.,1.));
#1376 = DIRECTION('',(1.,0.,0.));
#1377 = AXIS2_PLACEMENT_3D('',#1374,#1375,#1376);
#1378 = PLANE('',#1377);
#1379 = EDGE_LOOP('',(#1370,#1371,#1372,#1373));
#1380 = FACE_OUTER_BOUND('',#1379,.T.);
#1381 = ADVANCED_FACE('',(#1380),#1378,.T.);
#1382 = CLOSED_SHELL('',(#1281,#1317,#1337,#1357,#1369,#1381));
#1383 = MANIFOLD_SOLID_BREP('',#1382);
#1384 = COLOUR_RGB('',0.13333333333333333,0.13333333333333333,0.13333333333333333);
#1385 = FILL_AREA_STYLE_COLOUR('',#1384);
#1386 = FILL_AREA_STYLE('',(#1385));
#1387 = SURFACE_STYLE_FILL_AREA(#1386);
#1388 = SURFACE_SIDE_STYLE('',(#1387));
#1389 = SURFACE_STYLE_USAGE(.BOTH.,#1388);
#1390 = PRESENTATION_STYLE_ASSIGNMENT((#1389));
#1391 = STYLED_ITEM('',(#1390),#1383);
#1392 = CARTESIAN_POINT('',(2.855,-0.315,0.5500000000000003));
#1393 = VERTEX_POINT('',#1392);
#1394 = CARTESIAN_POINT('',(2.855,0.315,0.5500000000000003));
#1395 = VERTEX_POINT('',#1394);
#1396 = CARTESIAN_POINT('',(2.225,0.315,0.5500000000000003));
#1397 = VERTEX_POINT('',#1396);
#1398 = CARTESIAN_POINT('',(2.225,-0.315,0.5500000000000003));
#1399 = VERTEX_POINT('',#1398);
#1400 = DIRECTION('',(0.,1.,0.));
#1401 = VECTOR('',#1400,1.);
#1402 = LINE('',#1392,#1401);
#1403 = EDGE_CURVE('',#1393,#1395,#1402,.T.);
#1404 = ORIENTED_EDGE('',*,*,#1403,.T.);
#1405 = DIRECTION('',(1.,0.,0.));
#1406 = VECTOR('',#1405,1.);
#1407 = LINE('',#1396,#1406);
#1408 = EDGE_CURVE('',#1397,#1395,#1407,.T.);
#1409 = ORIENTED_EDGE('',*,*,#1408,.F.);
#1410 = DIRECTION('',(0.,1.,0.));
#1411 = VECTOR('',#1410,1.);
#1412 = LINE('',#1398,#1411);
#1413 = EDGE_CURVE('',#1399,#1397,#1412,.T.);
#1414 = ORIENTED_EDGE('',*,*,#1413,.F.);
#1415 = DIRECTION('',(1.,0.,0.));
#1416 = VECTOR('',#1415,1.);
#1417 = LINE('',#1398,#1416);
#1418 = EDGE_CURVE('',#1399,#1393,#1417,.T.);
#1419 = ORIENTED_EDGE('',*,*,#1418,.T.);
#1420 = CARTESIAN_POINT('',(2.855,-0.315,0.5500000000000003));
#1421 = DIRECTION('',(0.,0.,1.));
#1422 = DIRECTION('',(0.,1.,0.));
#1423 = AXIS2_PLACEMENT_3D('',#1420,#1421,#1422);
#1424 = PLANE('',#1423);
#1425 = EDGE_LOOP('',(#1404,#1409,#1414,#1419));
#1426 = FACE_OUTER_BOUND('',#1425,.T.);
#1427 = ADVANCED_FACE('',(#1426),#1424,.T.);
#1428 = CARTESIAN_POINT('',(2.225,0.315,-2.15));
#1429 = VERTEX_POINT('',#1428);
#1430 = CARTESIAN_POINT('',(2.855,0.315,-2.15));
#1431 = VERTEX_POINT('',#1430);
#1432 = DIRECTION('',(0.,0.,1.));
#1433 = VECTOR('',#1432,1.);
#1434 = LINE('',#1428,#1433);
#1435 = EDGE_CURVE('',#1429,#1397,#1434,.T.);
#1436 = ORIENTED_EDGE('',*,*,#1435,.T.);
#1437 = ORIENTED_EDGE('',*,*,#1408,.T.);
#1438 = DIRECTION('',(0.,0.,1.));
#1439 = VECTOR('',#1438,1.);
#1440 = LINE('',#1430,#1439);
#1441 = EDGE_CURVE('',#1431,#1395,#1440,.T.);
#1442 = ORIENTED_EDGE('',*,*,#1441,.F.);
#1443 = DIRECTION('',(1.,0.,0.));
#1444 = VECTOR('',#1443,1.);
#1445 = LINE('',#1428,#1444);
#1446 = EDGE_CURVE('',#1429,#1431,#1445,.T.);
#1447 = ORIENTED_EDGE('',*,*,#1446,.F.);
#1448 = CARTESIAN_POINT('',(2.225,0.315,-2.15));
#1449 = DIRECTION('',(0.,1.,0.));
#1450 = DIRECTION('',(0.,0.,1.));
#1451 = AXIS2_PLACEMENT_3D('',#1448,#1449,#1450);
#1452 = PLANE('',#1451);
#1453 = EDGE_LOOP('',(#1436,#1437,#1442,#1447));
#1454 = FACE_OUTER_BOUND('',#1453,.T.);
#1455 = ADVANCED_FACE('',(#1454),#1452,.T.);
#1456 = CARTESIAN_POINT('',(2.225,-0.315,-2.15));
#1457 = VERTEX_POINT('',#1456);
#1458 = DIRECTION('',(0.,1.,0.));
#1459 = VECTOR('',#1458,1.);
#1460 = LINE('',#1456,#1459);
#1461 = EDGE_CURVE('',#1457,#1429,#1460,.T.);
#1462 = ORIENTED_EDGE('',*,*,#1461,.F.);
#1463 = DIRECTION('',(0.,0.,1.));
#1464 = VECTOR('',#1463,1.);
#1465 = LINE('',#1456,#1464);
#1466 = EDGE_CURVE('',#1457,#1399,#1465,.T.);
#1467 = ORIENTED_EDGE('',*,*,#1466,.T.);
#1468 = ORIENTED_EDGE('',*,*,#1413,.T.);
#1469 = ORIENTED_EDGE('',*,*,#1435,.F.);
#1470 = CARTESIAN_POINT('',(2.225,0.315,-2.15));
#1471 = DIRECTION('',(-1.,0.,0.));
#1472 = DIRECTION('',(0.,-1.,0.));
#1473 = AXIS2_PLACEMENT_3D('',#1470,#1471,#1472);
#1474 = PLANE('',#1473);
#1475 = EDGE_LOOP('',(#1462,#1467,#1468,#1469));
#1476 = FACE_OUTER_BOUND('',#1475,.T.);
#1477 = ADVANCED_FACE('',(#1476),#1474,.T.);
#1478 = CARTESIAN_POINT('',(2.855,-0.315,-2.15));
#1479 = VERTEX_POINT('',#1478);
#1480 = DIRECTION('',(0.,1.,0.));
#1481 = VECTOR('',#1480,1.);
#1482 = LINE('',#1478,#1481);
#1483 = EDGE_CURVE('',#1479,#1431,#1482,.T.);
#1484 = ORIENTED_EDGE('',*,*,#1483,.T.);
#1485 = ORIENTED_EDGE('',*,*,#1441,.T.);
#1486 = ORIENTED_EDGE('',*,*,#1403,.F.);
#1487 = DIRECTION('',(0.,0.,1.));
#1488 = VECTOR('',#1487,1.);
#1489 = LINE('',#1478,#1488);
#1490 = EDGE_CURVE('',#1479,#1393,#1489,.T.);
#1491 = ORIENTED_EDGE('',*,*,#1490,.F.);
#1492 = CARTESIAN_POINT('',(2.855,-0.315,-2.15));
#1493 = DIRECTION('',(1.,0.,0.));
#1494 = DIRECTION('',(0.,1.,0.));
#1495 = AXIS2_PLACEMENT_3D('',#1492,#1493,#1494);
#1496 = PLANE('',#1495);
#1497 = EDGE_LOOP('',(#1484,#1485,#1486,#1491));
#1498 = FACE_OUTER_BOUND('',#1497,.T.);
#1499 = ADVANCED_FACE('',(#1498),#1496,.T.);
#1500 = ORIENTED_EDGE('',*,*,#1490,.T.);
#1501 = ORIENTED_EDGE('',*,*,#1418,.F.);
#1502 = ORIENTED_EDGE('',*,*,#1466,.F.);
#1503 = DIRECTION('',(1.,0.,0.));
#1504 = VECTOR('',#1503,1.);
#1505 = LINE('',#1456,#1504);
#1506 = EDGE_CURVE('',#1457,#1479,#1505,.T.);
#1507 = ORIENTED_EDGE('',*,*,#1506,.T.);
#1508 = CARTESIAN_POINT('',(2.855,-0.315,-2.15));
#1509 = DIRECTION('',(0.,-1.,0.));
#1510 = DIRECTION('',(0.,0.,1.));
#1511 = AXIS2_PLACEMENT_3D('',#1508,#1509,#1510);
#1512 = PLANE('',#1511);
#1513 = EDGE_LOOP('',(#1500,#1501,#1502,#1507));
#1514 = FACE_OUTER_BOUND('',#1513,.T.);
#1515 = ADVANCED_FACE('',(#1514),#1512,.T.);
#1516 = CARTESIAN_POINT('',(2.365,0.175,-2.5));
#1517 = VERTEX_POINT('',#1516);
#1518 = CARTESIAN_POINT('',(2.715,0.175,-2.5));
#1519 = VERTEX_POINT('',#1518);
#1520 = DIRECTION('',(0.34815531191139587,-0.3481553119113956,-0.8703882797784892));
#1521 = VECTOR('',#1520,1.);
#1522 = LINE('',#1428,#1521);
#1523 = EDGE_CURVE('',#1429,#1517,#1522,.T.);
#1524 = ORIENTED_EDGE('',*,*,#1523,.F.);
#1525 = ORIENTED_EDGE('',*,*,#1446,.T.);
#1526 = DIRECTION('',(0.34815531191139587,0.3481553119113956,0.8703882797784892));
#1527 = VECTOR('',#1526,1.);
#1528 = LINE('',#1518,#1527);
#1529 = EDGE_CURVE('',#1519,#1431,#1528,.T.);
#1530 = ORIENTED_EDGE('',*,*,#1529,.F.);
#1531 = DIRECTION('',(1.,0.,0.));
#1532 = VECTOR('',#1531,1.);
#1533 = LINE('',#1516,#1532);
#1534 = EDGE_CURVE('',#1517,#1519,#1533,.T.);
#1535 = ORIENTED_EDGE('',*,*,#1534,.F.);
#1536 = CARTESIAN_POINT('',(2.365,0.175,-2.5));
#1537 = DIRECTION('',(0.,0.9284766908852596,-0.3713906763541032));
#1538 = DIRECTION('',(-0.34815531191139587,0.3481553119113956,0.8703882797784892));
#1539 = AXIS2_PLACEMENT_3D('',#1536,#1537,#1538);
#1540 = PLANE('',#1539);
#1541 = EDGE_LOOP('',(#1524,#1525,#1530,#1535));
#1542 = FACE_OUTER_BOUND('',#1541,.T.);
#1543 = ADVANCED_FACE('',(#1542),#1540,.T.);
#1544 = CARTESIAN_POINT('',(2.365,-0.175,-2.5));
#1545 = VERTEX_POINT('',#1544);
#1546 = DIRECTION('',(0.,1.,0.));
#1547 = VECTOR('',#1546,1.);
#1548 = LINE('',#1544,#1547);
#1549 = EDGE_CURVE('',#1545,#1517,#1548,.T.);
#1550 = ORIENTED_EDGE('',*,*,#1549,.F.);
#1551 = DIRECTION('',(0.34815531191139587,0.3481553119113956,-0.8703882797784892));
#1552 = VECTOR('',#1551,1.);
#1553 = LINE('',#1456,#1552);
#1554 = EDGE_CURVE('',#1457,#1545,#1553,.T.);
#1555 = ORIENTED_EDGE('',*,*,#1554,.F.);
#1556 = ORIENTED_EDGE('',*,*,#1461,.T.);
#1557 = ORIENTED_EDGE('',*,*,#1523,.T.);
#1558 = CARTESIAN_POINT('',(2.365,0.175,-2.5));
#1559 = DIRECTION('',(-0.9284766908852592,0.,-0.37139067635410367));
#1560 = DIRECTION('',(0.,-1.,0.));
#1561 = AXIS2_PLACEMENT_3D('',#1558,#1559,#1560);
#1562 = PLANE('',#1561);
#1563 = EDGE_LOOP('',(#1550,#1555,#1556,#1557));
#1564 = FACE_OUTER_BOUND('',#1563,.T.);
#1565 = ADVANCED_FACE('',(#1564),#1562,.T.);
#1566 = CARTESIAN_POINT('',(2.715,-0.175,-2.5));
#1567 = VERTEX_POINT('',#1566);
#1568 = DIRECTION('',(1.,0.,0.));
#1569 = VECTOR('',#1568,1.);
#1570 = LINE('',#1544,#1569);
#1571 = EDGE_CURVE('',#1545,#1567,#1570,.T.);
#1572 = ORIENTED_EDGE('',*,*,#1571,.F.);
#1573 = ORIENTED_EDGE('',*,*,#1549,.T.);
#1574 = ORIENTED_EDGE('',*,*,#1534,.T.);
#1575 = DIRECTION('',(0.,1.,0.));
#1576 = VECTOR('',#1575,1.);
#1577 = LINE('',#1566,#1576);
#1578 = EDGE_CURVE('',#1567,#1519,#1577,.T.);
#1579 = ORIENTED_EDGE('',*,*,#1578,.F.);
#1580 = CARTESIAN_POINT('',(2.715,-0.175,-2.5));
#1581 = DIRECTION('',(0.,0.,-1.));
#1582 = DIRECTION('',(-1.,0.,0.));
#1583 = AXIS2_PLACEMENT_3D('',#1580,#1581,#1582);
#1584 = PLANE('',#1583);
#1585 = EDGE_LOOP('',(#1572,#1573,#1574,#1579));
#1586 = FACE_OUTER_BOUND('',#1585,.T.);
#1587 = ADVANCED_FACE('',(#1586),#1584,.T.);
#1588 = ORIENTED_EDGE('',*,*,#1578,.T.);
#1589 = ORIENTED_EDGE('',*,*,#1529,.T.);
#1590 = ORIENTED_EDGE('',*,*,#1483,.F.);
#1591 = DIRECTION('',(0.34815531191139587,-0.3481553119113956,0.8703882797784892));
#1592 = VECTOR('',#1591,1.);
#1593 = LINE('',#1566,#1592);
#1594 = EDGE_CURVE('',#1567,#1479,#1593,.T.);
#1595 = ORIENTED_EDGE('',*,*,#1594,.F.);
#1596 = CARTESIAN_POINT('',(2.715,-0.175,-2.5));
#1597 = DIRECTION('',(0.9284766908852592,0.,-0.37139067635410367));
#1598 = DIRECTION('',(0.,1.,0.));
#1599 = AXIS2_PLACEMENT_3D('',#1596,#1597,#1598);
#1600 = PLANE('',#1599);
#1601 = EDGE_LOOP('',(#1588,#1589,#1590,#1595));
#1602 = FACE_OUTER_BOUND('',#1601,.T.);
#1603 = ADVANCED_FACE('',(#1602),#1600,.T.);
#1604 = ORIENTED_EDGE('',*,*,#1594,.T.);
#1605 = ORIENTED_EDGE('',*,*,#1506,.F.);
#1606 = ORIENTED_EDGE('',*,*,#1554,.T.);
#1607 = ORIENTED_EDGE('',*,*,#1571,.T.);
#1608 = CARTESIAN_POINT('',(2.715,-0.175,-2.5));
#1609 = DIRECTION('',(0.,-0.9284766908852596,-0.3713906763541032));
#1610 = DIRECTION('',(0.34815531191139587,-0.3481553119113956,0.8703882797784892));
#1611 = AXIS2_PLACEMENT_3D('',#1608,#1609,#1610);
#1612 = PLANE('',#1611);
#1613 = EDGE_LOOP('',(#1604,#1605,#1606,#1607));
#1614 = FACE_OUTER_BOUND('',#1613,.T.);
#1615 = ADVANCED_FACE('',(#1614),#1612,.T.);
#1616 = CLOSED_SHELL('',(#1427,#1455,#1477,#1499,#1515,#1543,#1565,#1587,#1603,#1615));
#1617 = MANIFOLD_SOLID_BREP('',#1616);
#1618 = COLOUR_RGB('',0.7529411764705882,0.7529411764705882,0.7529411764705882);
#1619 = FILL_AREA_STYLE_COLOUR('',#1618);
#1620 = FILL_AREA_STYLE('',(#1619));
#1621 = SURFACE_STYLE_FILL_AREA(#1620);
#1622 = SURFACE_SIDE_STYLE('',(#1621));
#1623 = SURFACE_STYLE_USAGE(.BOTH.,#1622);
#1624 = PRESENTATION_STYLE_ASSIGNMENT((#1623));
#1625 = STYLED_ITEM('',(#1624),#1617);
#1626 = CARTESIAN_POINT('',(2.225,0.315,2.));
#1627 = VERTEX_POINT('',#1626);
#1628 = CARTESIAN_POINT('',(2.225,-0.315,2.));
#1629 = VERTEX_POINT('',#1628);
#1630 = CARTESIAN_POINT('',(2.225,-0.315,7.4));
#1631 = VERTEX_POINT('',#1630);
#1632 = CARTESIAN_POINT('',(2.225,0.315,7.4));
#1633 = VERTEX_POINT('',#1632);
#1634 = DIRECTION('',(0.,1.,0.));
#1635 = VECTOR('',#1634,1.);
#1636 = LINE('',#1628,#1635);
#1637 = EDGE_CURVE('',#1629,#1627,#1636,.T.);
#1638 = ORIENTED_EDGE('',*,*,#1637,.F.);
#1639 = DIRECTION('',(0.,0.,1.));
#1640 = VECTOR('',#1639,1.);
#1641 = LINE('',#1628,#1640);
#1642 = EDGE_CURVE('',#1629,#1631,#1641,.T.);
#1643 = ORIENTED_EDGE('',*,*,#1642,.T.);
#1644 = DIRECTION('',(0.,1.,0.));
#1645 = VECTOR('',#1644,1.);
#1646 = LINE('',#1630,#1645);
#1647 = EDGE_CURVE('',#1631,#1633,#1646,.T.);
#1648 = ORIENTED_EDGE('',*,*,#1647,.T.);
#1649 = DIRECTION('',(0.,0.,1.));
#1650 = VECTOR('',#1649,1.);
#1651 = LINE('',#1626,#1650);
#1652 = EDGE_CURVE('',#1627,#1633,#1651,.T.);
#1653 = ORIENTED_EDGE('',*,*,#1652,.F.);
#1654 = CARTESIAN_POINT('',(2.225,0.315,2.));
#1655 = DIRECTION('',(-1.,0.,0.));
#1656 = DIRECTION('',(0.,-1.,0.));
#1657 = AXIS2_PLACEMENT_3D('',#1654,#1655,#1656);
#1658 = PLANE('',#1657);
#1659 = EDGE_LOOP('',(#1638,#1643,#1648,#1653));
#1660 = FACE_OUTER_BOUND('',#1659,.T.);
#1661 = ADVANCED_FACE('',(#1660),#1658,.T.);
#1662 = CARTESIAN_POINT('',(2.855,0.315,7.4));
#1663 = VERTEX_POINT('',#1662);
#1664 = CARTESIAN_POINT('',(2.855,0.315,2.));
#1665 = VERTEX_POINT('',#1664);
#1666 = DIRECTION('',(0.,0.,1.));
#1667 = VECTOR('',#1666,1.);
#1668 = LINE('',#1664,#1667);
#1669 = EDGE_CURVE('',#1665,#1663,#1668,.T.);
#1670 = ORIENTED_EDGE('',*,*,#1669,.F.);
#1671 = DIRECTION('',(1.,0.,0.));
#1672 = VECTOR('',#1671,1.);
#1673 = LINE('',#1626,#1672);
#1674 = EDGE_CURVE('',#1627,#1665,#1673,.T.);
#1675 = ORIENTED_EDGE('',*,*,#1674,.F.);
#1676 = ORIENTED_EDGE('',*,*,#1652,.T.);
#1677 = DIRECTION('',(1.,0.,0.));
#1678 = VECTOR('',#1677,1.);
#1679 = LINE('',#1632,#1678);
#1680 = EDGE_CURVE('',#1633,#1663,#1679,.T.);
#1681 = ORIENTED_EDGE('',*,*,#1680,.T.);
#1682 = CARTESIAN_POINT('',(2.855,0.315,7.4));
#1683 = DIRECTION('',(0.,1.,0.));
#1684 = DIRECTION('',(0.,0.,-1.));
#1685 = AXIS2_PLACEMENT_3D('',#1682,#1683,#1684);
#1686 = PLANE('',#1685);
#1687 = EDGE_LOOP('',(#1670,#1675,#1676,#1681));
#1688 = FACE_OUTER_BOUND('',#1687,.T.);
#1689 = ADVANCED_FACE('',(#1688),#1686,.T.);
#1690 = CARTESIAN_POINT('',(2.365,0.175,8.));
#1691 = VERTEX_POINT('',#1690);
#1692 = CARTESIAN_POINT('',(2.365,-0.175,8.));
#1693 = VERTEX_POINT('',#1692);
#1694 = DIRECTION('',(0.22158112824152176,-0.22158112824152157,0.9496334067493776));
#1695 = VECTOR('',#1694,1.);
#1696 = LINE('',#1632,#1695);
#1697 = EDGE_CURVE('',#1633,#1691,#1696,.T.);
#1698 = ORIENTED_EDGE('',*,*,#1697,.F.);
#1699 = ORIENTED_EDGE('',*,*,#1647,.F.);
#1700 = DIRECTION('',(0.22158112824152176,0.22158112824152157,0.9496334067493776));
#1701 = VECTOR('',#1700,1.);
#1702 = LINE('',#1630,#1701);
#1703 = EDGE_CURVE('',#1631,#1693,#1702,.T.);
#1704 = ORIENTED_EDGE('',*,*,#1703,.T.);
#1705 = DIRECTION('',(0.,1.,0.));
#1706 = VECTOR('',#1705,1.);
#1707 = LINE('',#1692,#1706);
#1708 = EDGE_CURVE('',#1693,#1691,#1707,.T.);
#1709 = ORIENTED_EDGE('',*,*,#1708,.T.);
#1710 = CARTESIAN_POINT('',(2.365,0.175,8.));
#1711 = DIRECTION('',(-0.9738412097417933,0.,0.2272296156064183));
#1712 = DIRECTION('',(-0.22158112824152176,0.22158112824152157,-0.9496334067493776));
#1713 = AXIS2_PLACEMENT_3D('',#1710,#1711,#1712);
#1714 = PLANE('',#1713);
#1715 = EDGE_LOOP('',(#1698,#1699,#1704,#1709));
#1716 = FACE_OUTER_BOUND('',#1715,.T.);
#1717 = ADVANCED_FACE('',(#1716),#1714,.T.);
#1718 = CARTESIAN_POINT('',(2.855,-0.315,2.));
#1719 = VERTEX_POINT('',#1718);
#1720 = CARTESIAN_POINT('',(2.855,-0.315,7.4));
#1721 = VERTEX_POINT('',#1720);
#1722 = DIRECTION('',(0.,1.,0.));
#1723 = VECTOR('',#1722,1.);
#1724 = LINE('',#1718,#1723);
#1725 = EDGE_CURVE('',#1719,#1665,#1724,.T.);
#1726 = ORIENTED_EDGE('',*,*,#1725,.T.);
#1727 = ORIENTED_EDGE('',*,*,#1669,.T.);
#1728 = DIRECTION('',(0.,1.,0.));
#1729 = VECTOR('',#1728,1.);
#1730 = LINE('',#1720,#1729);
#1731 = EDGE_CURVE('',#1721,#1663,#1730,.T.);
#1732 = ORIENTED_EDGE('',*,*,#1731,.F.);
#1733 = DIRECTION('',(0.,0.,1.));
#1734 = VECTOR('',#1733,1.);
#1735 = LINE('',#1718,#1734);
#1736 = EDGE_CURVE('',#1719,#1721,#1735,.T.);
#1737 = ORIENTED_EDGE('',*,*,#1736,.F.);
#1738 = CARTESIAN_POINT('',(2.855,-0.315,2.));
#1739 = DIRECTION('',(1.,0.,0.));
#1740 = DIRECTION('',(0.,1.,0.));
#1741 = AXIS2_PLACEMENT_3D('',#1738,#1739,#1740);
#1742 = PLANE('',#1741);
#1743 = EDGE_LOOP('',(#1726,#1727,#1732,#1737));
#1744 = FACE_OUTER_BOUND('',#1743,.T.);
#1745 = ADVANCED_FACE('',(#1744),#1742,.T.);
#1746 = ORIENTED_EDGE('',*,*,#1736,.T.);
#1747 = DIRECTION('',(1.,0.,0.));
#1748 = VECTOR('',#1747,1.);
#1749 = LINE('',#1630,#1748);
#1750 = EDGE_CURVE('',#1631,#1721,#1749,.T.);
#1751 = ORIENTED_EDGE('',*,*,#1750,.F.);
#1752 = ORIENTED_EDGE('',*,*,#1642,.F.);
#1753 = DIRECTION('',(1.,0.,0.));
#1754 = VECTOR('',#1753,1.);
#1755 = LINE('',#1628,#1754);
#1756 = EDGE_CURVE('',#1629,#1719,#1755,.T.);
#1757 = ORIENTED_EDGE('',*,*,#1756,.T.);
#1758 = CARTESIAN_POINT('',(2.855,-0.315,2.));
#1759 = DIRECTION('',(0.,-1.,0.));
#1760 = DIRECTION('',(0.,0.,1.));
#1761 = AXIS2_PLACEMENT_3D('',#1758,#1759,#1760);
#1762 = PLANE('',#1761);
#1763 = EDGE_LOOP('',(#1746,#1751,#1752,#1757));
#1764 = FACE_OUTER_BOUND('',#1763,.T.);
#1765 = ADVANCED_FACE('',(#1764),#1762,.T.);
#1766 = ORIENTED_EDGE('',*,*,#1756,.F.);
#1767 = ORIENTED_EDGE('',*,*,#1637,.T.);
#1768 = ORIENTED_EDGE('',*,*,#1674,.T.);
#1769 = ORIENTED_EDGE('',*,*,#1725,.F.);
#1770 = CARTESIAN_POINT('',(2.855,-0.315,2.));
#1771 = DIRECTION('',(0.,0.,-1.));
#1772 = DIRECTION('',(-1.,0.,0.));
#1773 = AXIS2_PLACEMENT_3D('',#1770,#1771,#1772);
#1774 = PLANE('',#1773);
#1775 = EDGE_LOOP('',(#1766,#1767,#1768,#1769));
#1776 = FACE_OUTER_BOUND('',#1775,.T.);
#1777 = ADVANCED_FACE('',(#1776),#1774,.T.);
#1778 = CARTESIAN_POINT('',(2.715,0.175,8.));
#1779 = VERTEX_POINT('',#1778);
#1780 = DIRECTION('',(0.22158112824152176,0.22158112824152157,-0.9496334067493776));
#1781 = VECTOR('',#1780,1.);
#1782 = LINE('',#1778,#1781);
#1783 = EDGE_CURVE('',#1779,#1663,#1782,.T.);
#1784 = ORIENTED_EDGE('',*,*,#1783,.T.);
#1785 = ORIENTED_EDGE('',*,*,#1680,.F.);
#1786 = ORIENTED_EDGE('',*,*,#1697,.T.);
#1787 = DIRECTION('',(1.,0.,0.));
#1788 = VECTOR('',#1787,1.);
#1789 = LINE('',#1690,#1788);
#1790 = EDGE_CURVE('',#1691,#1779,#1789,.T.);
#1791 = ORIENTED_EDGE('',*,*,#1790,.T.);
#1792 = CARTESIAN_POINT('',(2.715,0.175,8.));
#1793 = DIRECTION('',(0.,0.9738412097417933,0.2272296156064183));
#1794 = DIRECTION('',(0.22158112824152176,0.22158112824152157,-0.9496334067493776));
#1795 = AXIS2_PLACEMENT_3D('',#1792,#1793,#1794);
#1796 = PLANE('',#1795);
#1797 = EDGE_LOOP('',(#1784,#1785,#1786,#1791));
#1798 = FACE_OUTER_BOUND('',#1797,.T.);
#1799 = ADVANCED_FACE('',(#1798),#1796,.T.);
#1800 = CARTESIAN_POINT('',(2.715,-0.175,8.));
#1801 = VERTEX_POINT('',#1800);
#1802 = DIRECTION('',(0.22158112824152176,-0.22158112824152157,-0.9496334067493776));
#1803 = VECTOR('',#1802,1.);
#1804 = LINE('',#1800,#1803);
#1805 = EDGE_CURVE('',#1801,#1721,#1804,.T.);
#1806 = ORIENTED_EDGE('',*,*,#1805,.T.);
#1807 = ORIENTED_EDGE('',*,*,#1731,.T.);
#1808 = ORIENTED_EDGE('',*,*,#1783,.F.);
#1809 = DIRECTION('',(0.,1.,0.));
#1810 = VECTOR('',#1809,1.);
#1811 = LINE('',#1800,#1810);
#1812 = EDGE_CURVE('',#1801,#1779,#1811,.T.);
#1813 = ORIENTED_EDGE('',*,*,#1812,.F.);
#1814 = CARTESIAN_POINT('',(2.715,-0.175,8.));
#1815 = DIRECTION('',(0.9738412097417933,0.,0.2272296156064183));
#1816 = DIRECTION('',(0.22158112824152176,-0.22158112824152157,-0.9496334067493776));
#1817 = AXIS2_PLACEMENT_3D('',#1814,#1815,#1816);
#1818 = PLANE('',#1817);
#1819 = EDGE_LOOP('',(#1806,#1807,#1808,#1813));
#1820 = FACE_OUTER_BOUND('',#1819,.T.);
#1821 = ADVANCED_FACE('',(#1820),#1818,.T.);
#1822 = ORIENTED_EDGE('',*,*,#1812,.T.);
#1823 = ORIENTED_EDGE('',*,*,#1790,.F.);
#1824 = ORIENTED_EDGE('',*,*,#1708,.F.);
#1825 = DIRECTION('',(1.,0.,0.));
#1826 = VECTOR('',#1825,1.);
#1827 = LINE('',#1692,#1826);
#1828 = EDGE_CURVE('',#1693,#1801,#1827,.T.);
#1829 = ORIENTED_EDGE('',*,*,#1828,.T.);
#1830 = CARTESIAN_POINT('',(2.715,-0.175,8.));
#1831 = DIRECTION('',(0.,0.,1.));
#1832 = DIRECTION('',(0.,1.,0.));
#1833 = AXIS2_PLACEMENT_3D('',#1830,#1831,#1832);
#1834 = PLANE('',#1833);
#1835 = EDGE_LOOP('',(#1822,#1823,#1824,#1829));
#1836 = FACE_OUTER_BOUND('',#1835,.T.);
#1837 = ADVANCED_FACE('',(#1836),#1834,.T.);
#1838 = ORIENTED_EDGE('',*,*,#1828,.F.);
#1839 = ORIENTED_EDGE('',*,*,#1703,.F.);
#1840 = ORIENTED_EDGE('',*,*,#1750,.T.);
#1841 = ORIENTED_EDGE('',*,*,#1805,.F.);
#1842 = CARTESIAN_POINT('',(2.715,-0.175,8.));
#1843 = DIRECTION('',(0.,-0.9738412097417933,0.2272296156064183));
#1844 = DIRECTION('',(-1.,0.,0.));
#1845 = AXIS2_PLACEMENT_3D('',#1842,#1843,#1844);
#1846 = PLANE('',#1845);
#1847 = EDGE_LOOP('',(#1838,#1839,#1840,#1841));
#1848 = FACE_OUTER_BOUND('',#1847,.T.);
#1849 = ADVANCED_FACE('',(#1848),#1846,.T.);
#1850 = CLOSED_SHELL('',(#1661,#1689,#1717,#1745,#1765,#1777,#1799,#1821,#1837,#1849));
#1851 = MANIFOLD_SOLID_BREP('',#1850);
#1852 = COLOUR_RGB('',0.7529411764705882,0.7529411764705882,0.7529411764705882);
#1853 = FILL_AREA_STYLE_COLOUR('',#1852);
#1854 = FILL_AREA_STYLE('',(#1853));
#1855 = SURFACE_STYLE_FILL_AREA(#1854);
#1856 = SURFACE_SIDE_STYLE('',(#1855));
#1857 = SURFACE_STYLE_USAGE(.BOTH.,#1856);
#1858 = PRESENTATION_STYLE_ASSIGNMENT((#1857));
#1859 = STYLED_ITEM('',(#1858),#1851);
#1860 = ADVANCED_BREP_SHAPE_REPRESENTATION('',(#17,#155,#389,#623,#769,#1003,#1237,#1383,#1617,#1851),#13);
#1861 = SHAPE_DEFINITION_REPRESENTATION(#8,#1860);
#1862 = MECHANICAL_DESIGN_GEOMETRIC_PRESENTATION_REPRESENTATION('',(#163,#397,#631,#777,#1011,#1245,#1391,#1625,#1859),#13);
ENDSEC;
END-ISO-10303-21;